{"glyphs":{"0":{"ha":838,"x_min":0,"x_max":0,"o":"m 433 -14 b 754 469 625 -14 754 174 b 407 986 754 785 611 986 b 83 501 213 986 83 797 b 433 -14 83 188 222 -14 z m 442 25 b 193 536 275 25 193 306 b 399 943 193 725 243 943 b 649 439 563 943 649 667 b 442 25 649 249 590 25 z "},"1":{"ha":432,"x_min":0,"x_max":0,"o":"m 286 963 b 263 986 286 985 276 988 b 185 967 243 985 214 975 b 90 915 94 933 90 926 b 139 886 90 903 97 896 b 201 799 196 875 201 843 l 201 167 b 110 21 201 53 110 54 b 168 0 110 6 119 0 l 290 0 b 349 21 338 0 349 7 b 286 167 349 53 286 51 z "},"2":{"ha":810,"x_min":0,"x_max":0,"o":"m 661 0 b 725 63 696 0 713 22 b 744 144 735 99 739 111 b 728 183 747 168 742 183 b 528 93 694 183 671 103 b 193 93 419 86 306 86 b 675 711 513 365 672 519 b 408 986 678 869 572 986 b 110 785 264 986 156 892 b 146 767 96 754 129 742 b 371 903 218 869 296 903 b 574 697 493 903 574 824 b 82 67 574 496 278 236 b 111 0 44 35 58 0 z "},"3":{"ha":850,"x_min":0,"x_max":0,"o":"m 436 -15 b 772 299 643 -15 772 139 b 424 586 772 494 563 585 b 735 929 553 689 650 808 b 706 972 753 957 733 972 l 279 972 b 172 932 190 972 178 958 b 156 804 161 894 157 857 b 174 763 154 783 154 763 b 229 831 197 763 203 792 b 343 885 258 872 306 881 b 647 882 429 894 554 892 b 325 567 549 758 439 654 b 339 511 293 540 296 514 b 675 267 510 501 675 439 b 425 57 675 125 560 57 b 122 218 296 57 197 117 b 81 197 106 244 67 229 b 436 -15 132 85 260 -15 z "},"4":{"ha":824,"x_min":0,"x_max":0,"o":"m 569 -22 b 629 -4 585 -22 619 -11 b 650 39 651 7 650 24 l 650 211 l 708 211 b 751 247 738 211 744 226 b 744 321 765 296 765 321 b 650 300 724 321 707 300 l 650 949 b 621 986 650 972 642 986 b 600 986 618 986 601 985 b 275 561 564 946 371 692 b 64 246 133 371 64 272 b 115 207 64 206 86 207 l 550 210 l 550 7 b 569 -22 550 -17 560 -22 z m 207 300 b 179 333 171 300 164 313 b 568 868 282 486 418 682 l 568 299 z "},"5":{"ha":818,"x_min":0,"x_max":0,"o":"m 408 -14 b 736 304 611 -14 736 139 b 242 656 736 504 556 615 l 307 883 b 653 886 426 876 556 876 b 710 910 683 889 700 894 b 733 992 722 933 731 958 b 715 1025 735 1014 729 1025 b 619 972 689 1025 686 978 b 308 972 518 965 414 965 b 283 953 297 974 286 964 l 176 610 b 193 582 174 596 181 583 b 631 275 476 553 631 471 b 400 61 631 167 542 61 b 92 219 272 61 167 118 b 50 200 75 246 36 231 b 408 -14 101 86 229 -14 z "},"6":{"ha":831,"x_min":0,"x_max":0,"o":"m 421 -14 b 760 354 611 -14 760 147 b 457 676 760 529 631 676 b 206 524 357 676 250 614 b 464 917 204 744 294 917 b 638 871 529 917 575 907 b 667 901 663 854 685 876 b 460 986 632 947 561 986 b 85 432 250 986 86 767 b 421 -14 83 165 213 -14 z m 449 43 b 208 357 288 43 208 200 b 415 593 208 496 290 593 b 651 293 564 593 651 451 b 449 43 651 154 582 43 z "},"7":{"ha":714,"x_min":0,"x_max":0,"o":"m 249 -11 b 279 0 260 -14 279 -12 b 672 935 279 328 496 626 b 644 972 689 963 669 972 l 129 972 b 99 947 117 972 106 967 b 74 822 83 906 75 858 b 90 785 74 808 76 785 b 218 876 124 785 138 869 b 582 876 339 886 460 886 b 163 57 408 585 163 265 b 183 14 163 42 164 26 b 249 -11 203 3 221 -8 z "},"8":{"ha":797,"x_min":0,"x_max":0,"o":"m 488 521 b 697 785 635 601 697 679 b 429 988 697 897 596 988 b 133 757 236 988 133 879 b 286 525 133 653 204 582 b 81 240 136 446 81 326 b 403 -11 81 93 203 -11 b 715 246 617 -11 715 125 b 488 521 715 363 667 417 z m 414 943 b 608 774 528 943 608 879 b 457 539 608 704 567 628 b 454 540 456 539 456 540 b 232 788 344 604 232 681 b 414 943 232 889 319 943 z m 424 31 b 178 253 265 31 178 131 b 317 506 178 353 232 436 b 383 464 339 490 361 478 b 613 210 568 358 613 289 b 424 31 613 107 529 31 z "},"9":{"ha":838,"x_min":0,"x_max":0,"o":"m 415 986 b 78 619 226 986 78 825 b 381 296 78 443 206 296 b 632 450 479 296 588 360 b 372 56 632 228 542 56 b 200 103 308 56 261 65 b 171 71 174 118 151 96 b 376 -14 206 25 275 -14 b 753 540 586 -14 751 206 b 415 986 753 807 624 986 z m 388 929 b 629 615 549 929 629 774 b 421 379 629 478 547 379 b 185 679 272 379 185 522 b 388 929 185 818 254 929 z "},"A":{"ha":926,"x_min":0,"x_max":0,"o":"m 201 260 b 447 304 217 304 217 304 b 676 265 661 304 661 304 l 719 154 b 679 19 763 47 679 58 b 729 0 679 4 701 0 l 854 0 b 917 24 897 0 917 4 b 815 154 917 60 860 40 l 501 954 b 475 972 497 965 488 972 l 367 972 b 332 949 336 972 332 961 b 381 853 332 910 408 922 l 111 156 b -3 19 63 31 -3 63 b 46 0 -3 4 18 0 l 151 0 b 194 25 176 0 194 6 b 161 156 194 61 117 40 z m 449 346 b 244 371 235 346 235 346 l 436 874 l 631 382 b 449 346 644 346 644 346 z "},"Á":{"ha":926,"x_min":0,"x_max":0,"o":"m 365 1065 b 589 1176 419 1044 568 1128 b 561 1247 601 1210 586 1238 b 447 1181 525 1260 496 1228 b 363 1089 396 1128 368 1097 b 365 1065 360 1083 353 1071 z m 201 260 b 447 304 217 304 217 304 b 676 265 661 304 661 304 l 719 154 b 679 19 763 47 679 58 b 729 0 679 4 701 0 l 854 0 b 917 24 897 0 917 4 b 815 154 917 60 860 40 l 501 954 b 475 972 497 965 488 972 l 367 972 b 332 949 336 972 332 961 b 381 853 332 910 408 922 l 111 156 b -3 19 63 31 -3 63 b 46 0 -3 4 18 0 l 151 0 b 194 25 176 0 194 6 b 161 156 194 61 117 40 z m 449 346 b 244 371 235 346 235 346 l 436 874 l 631 382 b 449 346 644 346 644 346 z "},"Ă":{"ha":926,"x_min":0,"x_max":0,"o":"m 428 1053 b 585 1193 524 1053 579 1124 b 569 1219 586 1210 579 1219 b 554 1206 564 1219 561 1215 b 428 1132 526 1161 488 1132 b 304 1206 368 1132 331 1163 b 288 1219 299 1215 293 1219 b 272 1193 276 1219 271 1210 b 428 1053 278 1125 322 1053 z m 201 260 b 447 304 217 304 217 304 b 676 265 661 304 661 304 l 719 154 b 679 19 763 47 679 58 b 729 0 679 4 701 0 l 854 0 b 917 24 897 0 917 4 b 815 154 917 60 860 40 l 501 954 b 475 972 497 965 488 972 l 367 972 b 332 949 336 972 332 961 b 381 853 332 910 408 922 l 111 156 b -3 19 63 31 -3 63 b 46 0 -3 4 18 0 l 151 0 b 194 25 176 0 194 6 b 161 156 194 61 117 40 z m 449 346 b 244 371 235 346 235 346 l 436 874 l 631 382 b 449 346 644 346 644 346 z "},"Â":{"ha":926,"x_min":0,"x_max":0,"o":"m 283 1047 b 444 1110 315 1043 408 1082 b 606 1047 481 1082 574 1043 b 618 1064 621 1049 621 1057 b 547 1142 615 1076 579 1108 b 443 1218 475 1213 474 1218 b 343 1142 415 1218 406 1206 b 269 1064 310 1110 274 1078 b 283 1047 268 1057 268 1049 z m 201 260 b 447 304 217 304 217 304 b 676 265 661 304 661 304 l 719 154 b 679 19 763 47 679 58 b 729 0 679 4 701 0 l 854 0 b 917 24 897 0 917 4 b 815 154 917 60 860 40 l 501 954 b 475 972 497 965 488 972 l 367 972 b 332 949 336 972 332 961 b 381 853 332 910 408 922 l 111 156 b -3 19 63 31 -3 63 b 46 0 -3 4 18 0 l 151 0 b 194 25 176 0 194 6 b 161 156 194 61 117 40 z m 449 346 b 244 371 235 346 235 346 l 436 874 l 631 382 b 449 346 644 346 644 346 z "},"Ä":{"ha":926,"x_min":0,"x_max":0,"o":"m 321 1086 b 397 1154 358 1086 397 1115 b 339 1210 397 1186 372 1210 b 268 1133 300 1210 268 1171 b 321 1086 268 1104 290 1086 z m 504 1086 b 582 1154 542 1086 582 1115 b 524 1210 582 1186 557 1210 b 453 1133 485 1210 453 1171 b 504 1086 453 1104 475 1086 z m 201 260 b 447 304 217 304 217 304 b 676 265 661 304 661 304 l 719 154 b 679 19 763 47 679 58 b 729 0 679 4 701 0 l 854 0 b 917 24 897 0 917 4 b 815 154 917 60 860 40 l 501 954 b 475 972 497 965 488 972 l 367 972 b 332 949 336 972 332 961 b 381 853 332 910 408 922 l 111 156 b -3 19 63 31 -3 63 b 46 0 -3 4 18 0 l 151 0 b 194 25 176 0 194 6 b 161 156 194 61 117 40 z m 449 346 b 244 371 235 346 235 346 l 436 874 l 631 382 b 449 346 644 346 644 346 z "},"À":{"ha":926,"x_min":0,"x_max":0,"o":"m 524 1065 b 525 1089 535 1071 529 1083 b 442 1181 521 1097 492 1128 b 328 1247 392 1228 364 1260 b 300 1176 303 1238 288 1210 b 524 1065 319 1128 468 1044 z m 201 260 b 447 304 217 304 217 304 b 676 265 661 304 661 304 l 719 154 b 679 19 763 47 679 58 b 729 0 679 4 701 0 l 854 0 b 917 24 897 0 917 4 b 815 154 917 60 860 40 l 501 954 b 475 972 497 965 488 972 l 367 972 b 332 949 336 972 332 961 b 381 853 332 910 408 922 l 111 156 b -3 19 63 31 -3 63 b 46 0 -3 4 18 0 l 151 0 b 194 25 176 0 194 6 b 161 156 194 61 117 40 z m 449 346 b 244 371 235 346 235 346 l 436 874 l 631 382 b 449 346 644 346 644 346 z "},"Ā":{"ha":926,"x_min":0,"x_max":0,"o":"m 585 1079 b 614 1107 610 1079 613 1090 b 592 1136 617 1125 618 1136 l 274 1136 b 243 1108 246 1136 244 1125 b 267 1079 240 1090 239 1079 z m 201 260 b 447 304 217 304 217 304 b 676 265 661 304 661 304 l 719 154 b 679 19 763 47 679 58 b 729 0 679 4 701 0 l 854 0 b 917 24 897 0 917 4 b 815 154 917 60 860 40 l 501 954 b 475 972 497 965 488 972 l 367 972 b 332 949 336 972 332 961 b 381 853 332 910 408 922 l 111 156 b -3 19 63 31 -3 63 b 46 0 -3 4 18 0 l 151 0 b 194 25 176 0 194 6 b 161 156 194 61 117 40 z m 449 346 b 244 371 235 346 235 346 l 436 874 l 631 382 b 449 346 644 346 644 346 z "},"Ą":{"ha":926,"x_min":0,"x_max":0,"o":"m 918 -199 b 856 -211 901 -204 875 -211 b 771 -133 800 -211 771 -183 b 842 0 771 -96 790 -49 l 854 0 b 917 24 897 0 917 4 b 815 154 917 60 860 40 l 501 954 b 475 972 497 965 488 972 l 367 972 b 332 949 336 972 332 961 b 381 853 332 910 408 922 l 111 156 b -3 19 63 31 -3 63 b 46 0 -3 4 18 0 l 151 0 b 194 25 176 0 194 6 b 161 156 194 61 117 40 l 201 260 b 447 304 217 304 217 304 b 676 265 661 304 661 304 l 719 154 b 679 19 763 47 679 58 b 729 0 679 4 701 0 l 806 0 b 700 -144 746 -43 700 -87 b 832 -250 700 -215 764 -250 b 935 -218 860 -250 904 -243 b 918 -199 946 -208 940 -189 z m 449 346 b 244 371 235 346 235 346 l 436 874 l 631 382 b 449 346 644 346 644 346 z "},"Å":{"ha":926,"x_min":0,"x_max":0,"o":"m 433 1053 b 561 1174 504 1053 561 1099 b 439 1290 561 1244 508 1290 b 310 1169 367 1290 310 1243 b 433 1053 310 1099 363 1053 z m 440 1094 b 361 1171 397 1094 368 1126 b 433 1251 358 1218 386 1251 b 510 1176 475 1251 504 1219 b 440 1094 513 1132 486 1094 z m 201 260 b 447 304 217 304 217 304 b 676 265 661 304 661 304 l 719 154 b 679 19 763 47 679 58 b 729 0 679 4 701 0 l 854 0 b 917 24 897 0 917 4 b 815 154 917 60 860 40 l 501 954 b 475 972 497 965 488 972 l 367 972 b 332 949 336 972 332 961 b 381 853 332 910 408 922 l 111 156 b -3 19 63 31 -3 63 b 46 0 -3 4 18 0 l 151 0 b 194 25 176 0 194 6 b 161 156 194 61 117 40 z m 449 346 b 244 371 235 346 235 346 l 436 874 l 631 382 b 449 346 644 346 644 346 z "},"Ã":{"ha":926,"x_min":0,"x_max":0,"o":"m 532 1064 b 621 1139 583 1064 621 1090 b 588 1169 621 1183 588 1203 b 540 1131 588 1146 575 1131 b 318 1189 490 1131 411 1189 b 229 1113 267 1189 229 1161 b 263 1082 229 1068 263 1049 b 311 1122 263 1107 276 1122 b 532 1064 375 1122 468 1064 z m 201 260 b 447 304 217 304 217 304 b 676 265 661 304 661 304 l 719 154 b 679 19 763 47 679 58 b 729 0 679 4 701 0 l 854 0 b 917 24 897 0 917 4 b 815 154 917 60 860 40 l 501 954 b 475 972 497 965 488 972 l 367 972 b 332 949 336 972 332 961 b 381 853 332 910 408 922 l 111 156 b -3 19 63 31 -3 63 b 46 0 -3 4 18 0 l 151 0 b 194 25 176 0 194 6 b 161 156 194 61 117 40 z m 449 346 b 244 371 235 346 235 346 l 436 874 l 631 382 b 449 346 644 346 644 346 z "},"Æ":{"ha":1333,"x_min":0,"x_max":0,"o":"m 1267 217 b 1217 160 1250 218 1238 208 b 1026 47 1183 79 1161 47 l 911 46 b 735 117 754 46 735 65 l 735 499 b 846 567 735 569 779 567 l 899 567 b 1111 446 1065 565 1072 433 b 1117 518 1129 451 1131 463 l 1094 610 b 1063 657 1086 646 1074 657 b 899 613 1028 657 1057 613 l 846 613 b 735 681 779 613 735 611 l 735 861 b 914 926 735 906 754 926 l 999 926 b 1201 793 1101 926 1160 881 b 1253 744 1219 757 1229 740 b 1265 785 1269 749 1269 763 b 1232 935 1258 850 1244 897 b 1140 974 1222 967 1217 974 l 600 972 b 567 951 569 972 567 961 b 589 917 567 935 571 928 b 606 803 619 897 646 858 l 103 106 b -11 19 61 46 -11 63 b 38 0 -11 6 10 0 l 143 0 b 186 25 168 0 186 6 b 157 110 186 61 119 57 l 301 308 l 649 308 l 649 163 b 571 21 649 21 571 58 b 635 0 571 -1 593 0 l 1151 0 b 1261 42 1243 0 1253 15 b 1282 179 1272 81 1276 118 b 1267 217 1283 197 1282 214 z m 649 347 l 329 347 l 649 786 z "},"B":{"ha":814,"x_min":0,"x_max":0,"o":"m 444 576 b 643 756 593 590 642 672 b 322 972 643 886 540 972 l 132 972 b 69 951 92 972 69 974 b 146 810 69 914 146 951 l 146 163 b 69 21 146 21 69 58 b 132 0 69 -1 92 0 l 340 0 b 771 300 601 0 771 68 b 444 576 771 457 628 560 z m 232 863 b 332 926 232 919 261 926 b 547 749 458 926 547 860 b 318 603 547 650 493 603 b 232 629 268 603 232 603 z m 339 46 b 232 143 249 46 232 75 l 232 496 b 325 554 232 532 236 554 b 672 288 546 554 672 457 b 339 46 672 113 560 46 z "},"":{"ha":814,"x_min":0,"x_max":0,"o":"m 444 576 b 643 756 593 590 642 672 b 322 972 643 886 540 972 l 132 972 b 69 951 92 972 69 974 b 146 810 69 914 146 951 l 146 163 b 69 21 146 21 69 58 b 132 0 69 -1 92 0 l 340 0 b 771 300 601 0 771 68 b 444 576 771 457 628 560 z m 232 863 b 332 926 232 919 261 926 b 547 749 458 926 547 860 b 318 603 547 650 493 603 b 232 629 268 603 232 603 z m 339 46 b 232 143 249 46 232 75 l 232 496 b 325 554 232 532 236 554 b 672 288 546 554 672 457 b 339 46 672 113 560 46 z "},"C":{"ha":936,"x_min":0,"x_max":0,"o":"m 513 -14 b 874 142 733 -14 843 108 b 850 185 903 182 874 213 b 544 49 788 115 701 49 b 146 504 313 49 146 236 b 499 921 146 715 276 921 b 796 749 661 921 738 842 b 844 706 811 724 825 703 b 860 744 860 708 864 724 b 822 910 843 826 832 874 b 772 983 806 967 799 983 b 708 967 754 983 738 967 b 539 986 664 967 617 986 b 54 460 264 986 54 758 b 513 -14 54 183 222 -14 z "},"Ć":{"ha":936,"x_min":0,"x_max":0,"o":"m 417 1065 b 640 1176 471 1044 619 1128 b 613 1247 653 1210 638 1238 b 499 1181 576 1260 547 1228 b 414 1089 447 1128 419 1097 b 417 1065 411 1083 404 1071 z m 513 -14 b 874 142 733 -14 843 108 b 850 185 903 182 874 213 b 544 49 788 115 701 49 b 146 504 313 49 146 236 b 499 921 146 715 276 921 b 796 749 661 921 738 842 b 844 706 811 724 825 703 b 860 744 860 708 864 724 b 822 910 843 826 832 874 b 772 983 806 967 799 983 b 708 967 754 983 738 967 b 539 986 664 967 617 986 b 54 460 264 986 54 758 b 513 -14 54 183 222 -14 z "},"Č":{"ha":936,"x_min":0,"x_max":0,"o":"m 335 1217 b 321 1199 319 1215 319 1207 b 394 1121 325 1186 361 1154 b 494 1044 457 1058 467 1044 b 599 1122 525 1044 526 1050 b 669 1199 631 1154 667 1186 b 657 1217 672 1207 672 1215 b 496 1153 625 1219 532 1182 b 335 1217 460 1182 367 1219 z m 513 -14 b 874 142 733 -14 843 108 b 850 185 903 182 874 213 b 544 49 788 115 701 49 b 146 504 313 49 146 236 b 499 921 146 715 276 921 b 796 749 661 921 738 842 b 844 706 811 724 825 703 b 860 744 860 708 864 724 b 822 910 843 826 832 874 b 772 983 806 967 799 983 b 708 967 754 983 738 967 b 539 986 664 967 617 986 b 54 460 264 986 54 758 b 513 -14 54 183 222 -14 z "},"Ç":{"ha":936,"x_min":0,"x_max":0,"o":"m 850 185 b 544 49 788 115 701 49 b 146 504 313 49 146 236 b 499 921 146 715 276 921 b 796 749 661 921 738 842 b 844 706 811 724 825 703 b 860 744 860 708 864 724 b 822 910 843 826 832 874 b 772 983 806 967 799 983 b 708 967 754 983 738 967 b 539 986 664 967 617 986 b 54 460 264 986 54 758 b 472 -12 54 196 207 4 l 429 -93 b 446 -115 422 -106 432 -112 b 540 -193 494 -128 540 -147 b 474 -254 540 -226 519 -254 b 392 -229 435 -254 411 -240 b 375 -249 376 -219 364 -235 b 482 -290 390 -268 422 -290 b 606 -183 547 -290 606 -249 b 478 -76 606 -119 549 -89 l 508 -14 l 513 -14 b 874 142 733 -14 843 108 b 850 185 903 182 874 213 z "},"Ċ":{"ha":936,"x_min":0,"x_max":0,"o":"m 492 1074 b 593 1153 533 1068 589 1117 b 547 1215 597 1179 578 1211 b 442 1132 501 1224 446 1175 b 492 1074 438 1097 463 1076 z m 513 -14 b 874 142 733 -14 843 108 b 850 185 903 182 874 213 b 544 49 788 115 701 49 b 146 504 313 49 146 236 b 499 921 146 715 276 921 b 796 749 661 921 738 842 b 844 706 811 724 825 703 b 860 744 860 708 864 724 b 822 910 843 826 832 874 b 772 983 806 967 799 983 b 708 967 754 983 738 967 b 539 986 664 967 617 986 b 54 460 264 986 54 758 b 513 -14 54 183 222 -14 z "},"D":{"ha":993,"x_min":0,"x_max":0,"o":"m 132 972 b 69 951 92 972 69 974 b 146 810 69 914 146 951 l 146 163 b 69 21 146 21 69 58 b 132 0 69 -1 92 0 l 432 0 b 940 501 821 0 940 253 b 390 972 940 711 794 972 z m 417 47 b 232 129 264 47 232 69 l 232 865 b 333 926 232 917 251 926 b 844 443 669 926 844 717 b 417 47 844 260 778 47 z "},"Ď":{"ha":993,"x_min":0,"x_max":0,"o":"m 208 1121 b 308 1044 271 1058 281 1044 b 413 1122 339 1044 340 1050 b 483 1199 444 1154 481 1186 b 471 1217 486 1207 486 1215 b 310 1153 439 1219 346 1182 b 149 1217 274 1182 181 1219 b 135 1199 133 1215 133 1207 b 208 1121 139 1186 175 1154 z m 132 972 b 69 951 92 972 69 974 b 146 810 69 914 146 951 l 146 163 b 69 21 146 21 69 58 b 132 0 69 -1 92 0 l 432 0 b 940 501 821 0 940 253 b 390 972 940 711 794 972 z m 417 47 b 232 129 264 47 232 69 l 232 865 b 333 926 232 917 251 926 b 844 443 669 926 844 717 b 417 47 844 260 778 47 z "},"Đ":{"ha":993,"x_min":0,"x_max":0,"o":"m 132 972 b 69 951 92 972 69 974 b 146 810 69 914 146 951 l 146 506 l 44 506 b 11 481 14 506 11 497 b 44 460 11 468 17 460 l 146 460 l 146 163 b 69 21 146 21 69 58 b 132 0 69 -1 92 0 l 432 0 b 940 501 821 0 940 253 b 390 972 940 711 794 972 z m 417 47 b 232 129 264 47 232 69 l 232 460 l 322 460 b 356 481 350 460 356 468 b 322 506 356 497 353 506 l 232 506 l 232 865 b 333 926 232 917 251 926 b 844 443 669 926 844 717 b 417 47 844 260 778 47 z "},"Ð":{"ha":993,"x_min":0,"x_max":0,"o":"m 132 972 b 69 951 92 972 69 974 b 146 810 69 914 146 951 l 146 506 l 44 506 b 11 481 14 506 11 497 b 44 460 11 468 17 460 l 146 460 l 146 163 b 69 21 146 21 69 58 b 132 0 69 -1 92 0 l 432 0 b 940 501 821 0 940 253 b 390 972 940 711 794 972 z m 417 47 b 232 129 264 47 232 69 l 232 460 l 322 460 b 356 481 350 460 356 468 b 322 506 356 497 353 506 l 232 506 l 232 865 b 333 926 232 917 251 926 b 844 443 669 926 844 717 b 417 47 844 260 778 47 z "},"E":{"ha":831,"x_min":0,"x_max":0,"o":"m 764 217 b 714 160 747 218 735 208 b 524 47 681 79 660 47 l 408 46 b 232 117 251 46 232 65 l 232 499 b 343 567 232 569 276 567 l 396 567 b 608 446 563 565 569 433 b 615 518 626 451 628 463 l 592 610 b 560 657 583 646 572 657 b 396 613 525 657 556 613 l 343 613 b 232 681 276 613 232 611 l 232 861 b 411 926 232 906 251 926 l 496 926 b 699 793 599 926 657 881 b 750 744 718 757 726 740 b 764 785 768 749 767 763 b 729 935 756 850 742 897 b 638 974 719 967 714 974 l 132 972 b 69 951 92 972 69 974 b 146 810 69 914 146 951 l 146 163 b 69 21 146 21 69 58 b 132 0 69 -1 92 0 l 649 0 b 758 42 740 0 750 15 b 779 179 769 81 774 118 b 764 217 781 197 779 214 z "},"":{"ha":831,"x_min":0,"x_max":0,"o":"m 764 217 b 714 160 747 218 735 208 b 524 47 681 79 660 47 l 408 46 b 232 117 251 46 232 65 l 232 499 b 343 567 232 569 276 567 l 396 567 b 608 446 563 565 569 433 b 615 518 626 451 628 463 l 592 610 b 560 657 583 646 572 657 b 396 613 525 657 556 613 l 343 613 b 232 681 276 613 232 611 l 232 861 b 411 926 232 906 251 926 l 496 926 b 699 793 599 926 657 881 b 750 744 718 757 726 740 b 764 785 768 749 767 763 b 729 935 756 850 742 897 b 638 974 719 967 714 974 l 132 972 b 69 951 92 972 69 974 b 146 810 69 914 146 951 l 146 163 b 69 21 146 21 69 58 b 132 0 69 -1 92 0 l 649 0 b 758 42 740 0 750 15 b 779 179 769 81 774 118 b 764 217 781 197 779 214 z "},"É":{"ha":831,"x_min":0,"x_max":0,"o":"m 335 1065 b 558 1176 389 1044 538 1128 b 531 1247 571 1210 556 1238 b 417 1181 494 1260 465 1228 b 332 1089 365 1128 338 1097 b 335 1065 329 1083 322 1071 z m 764 217 b 714 160 747 218 735 208 b 524 47 681 79 660 47 l 408 46 b 232 117 251 46 232 65 l 232 499 b 343 567 232 569 276 567 l 396 567 b 608 446 563 565 569 433 b 615 518 626 451 628 463 l 592 610 b 560 657 583 646 572 657 b 396 613 525 657 556 613 l 343 613 b 232 681 276 613 232 611 l 232 861 b 411 926 232 906 251 926 l 496 926 b 699 793 599 926 657 881 b 750 744 718 757 726 740 b 764 785 768 749 767 763 b 729 935 756 850 742 897 b 638 974 719 967 714 974 l 132 972 b 69 951 92 972 69 974 b 146 810 69 914 146 951 l 146 163 b 69 21 146 21 69 58 b 132 0 69 -1 92 0 l 649 0 b 758 42 740 0 750 15 b 779 179 769 81 774 118 b 764 217 781 197 779 214 z "},"Ě":{"ha":831,"x_min":0,"x_max":0,"o":"m 311 1121 b 411 1044 374 1058 383 1044 b 515 1122 442 1044 443 1050 b 586 1199 547 1154 583 1186 b 574 1217 589 1207 589 1215 b 413 1153 542 1219 449 1182 b 251 1217 376 1182 283 1219 b 238 1199 236 1215 236 1207 b 311 1121 242 1186 278 1154 z m 764 217 b 714 160 747 218 735 208 b 524 47 681 79 660 47 l 408 46 b 232 117 251 46 232 65 l 232 499 b 343 567 232 569 276 567 l 396 567 b 608 446 563 565 569 433 b 615 518 626 451 628 463 l 592 610 b 560 657 583 646 572 657 b 396 613 525 657 556 613 l 343 613 b 232 681 276 613 232 611 l 232 861 b 411 926 232 906 251 926 l 496 926 b 699 793 599 926 657 881 b 750 744 718 757 726 740 b 764 785 768 749 767 763 b 729 935 756 850 742 897 b 638 974 719 967 714 974 l 132 972 b 69 951 92 972 69 974 b 146 810 69 914 146 951 l 146 163 b 69 21 146 21 69 58 b 132 0 69 -1 92 0 l 649 0 b 758 42 740 0 750 15 b 779 179 769 81 774 118 b 764 217 781 197 779 214 z "},"Ê":{"ha":831,"x_min":0,"x_max":0,"o":"m 257 1047 b 418 1110 289 1043 382 1082 b 579 1047 454 1082 547 1043 b 592 1064 594 1049 594 1057 b 521 1142 589 1076 553 1108 b 417 1218 449 1213 447 1218 b 317 1142 389 1218 379 1206 b 243 1064 283 1110 247 1078 b 257 1047 242 1057 242 1049 z m 764 217 b 714 160 747 218 735 208 b 524 47 681 79 660 47 l 408 46 b 232 117 251 46 232 65 l 232 499 b 343 567 232 569 276 567 l 396 567 b 608 446 563 565 569 433 b 615 518 626 451 628 463 l 592 610 b 560 657 583 646 572 657 b 396 613 525 657 556 613 l 343 613 b 232 681 276 613 232 611 l 232 861 b 411 926 232 906 251 926 l 496 926 b 699 793 599 926 657 881 b 750 744 718 757 726 740 b 764 785 768 749 767 763 b 729 935 756 850 742 897 b 638 974 719 967 714 974 l 132 972 b 69 951 92 972 69 974 b 146 810 69 914 146 951 l 146 163 b 69 21 146 21 69 58 b 132 0 69 -1 92 0 l 649 0 b 758 42 740 0 750 15 b 779 179 769 81 774 118 b 764 217 781 197 779 214 z "},"Ë":{"ha":831,"x_min":0,"x_max":0,"o":"m 324 1086 b 400 1154 361 1086 400 1115 b 342 1210 400 1186 375 1210 b 271 1133 303 1210 271 1171 b 324 1086 271 1104 293 1086 z m 507 1086 b 585 1154 544 1086 585 1115 b 526 1210 585 1186 560 1210 b 456 1133 488 1210 456 1171 b 507 1086 456 1104 478 1086 z m 764 217 b 714 160 747 218 735 208 b 524 47 681 79 660 47 l 408 46 b 232 117 251 46 232 65 l 232 499 b 343 567 232 569 276 567 l 396 567 b 608 446 563 565 569 433 b 615 518 626 451 628 463 l 592 610 b 560 657 583 646 572 657 b 396 613 525 657 556 613 l 343 613 b 232 681 276 613 232 611 l 232 861 b 411 926 232 906 251 926 l 496 926 b 699 793 599 926 657 881 b 750 744 718 757 726 740 b 764 785 768 749 767 763 b 729 935 756 850 742 897 b 638 974 719 967 714 974 l 132 972 b 69 951 92 972 69 974 b 146 810 69 914 146 951 l 146 163 b 69 21 146 21 69 58 b 132 0 69 -1 92 0 l 649 0 b 758 42 740 0 750 15 b 779 179 769 81 774 118 b 764 217 781 197 779 214 z "},"Ė":{"ha":831,"x_min":0,"x_max":0,"o":"m 390 1074 b 492 1153 432 1068 488 1117 b 446 1215 496 1179 476 1211 b 340 1132 400 1224 344 1175 b 390 1074 336 1097 361 1076 z m 764 217 b 714 160 747 218 735 208 b 524 47 681 79 660 47 l 408 46 b 232 117 251 46 232 65 l 232 499 b 343 567 232 569 276 567 l 396 567 b 608 446 563 565 569 433 b 615 518 626 451 628 463 l 592 610 b 560 657 583 646 572 657 b 396 613 525 657 556 613 l 343 613 b 232 681 276 613 232 611 l 232 861 b 411 926 232 906 251 926 l 496 926 b 699 793 599 926 657 881 b 750 744 718 757 726 740 b 764 785 768 749 767 763 b 729 935 756 850 742 897 b 638 974 719 967 714 974 l 132 972 b 69 951 92 972 69 974 b 146 810 69 914 146 951 l 146 163 b 69 21 146 21 69 58 b 132 0 69 -1 92 0 l 649 0 b 758 42 740 0 750 15 b 779 179 769 81 774 118 b 764 217 781 197 779 214 z "},"È":{"ha":831,"x_min":0,"x_max":0,"o":"m 479 1065 b 481 1089 490 1071 485 1083 b 397 1181 476 1097 447 1128 b 283 1247 347 1228 319 1260 b 256 1176 258 1238 243 1210 b 479 1065 275 1128 424 1044 z m 764 217 b 714 160 747 218 735 208 b 524 47 681 79 660 47 l 408 46 b 232 117 251 46 232 65 l 232 499 b 343 567 232 569 276 567 l 396 567 b 608 446 563 565 569 433 b 615 518 626 451 628 463 l 592 610 b 560 657 583 646 572 657 b 396 613 525 657 556 613 l 343 613 b 232 681 276 613 232 611 l 232 861 b 411 926 232 906 251 926 l 496 926 b 699 793 599 926 657 881 b 750 744 718 757 726 740 b 764 785 768 749 767 763 b 729 935 756 850 742 897 b 638 974 719 967 714 974 l 132 972 b 69 951 92 972 69 974 b 146 810 69 914 146 951 l 146 163 b 69 21 146 21 69 58 b 132 0 69 -1 92 0 l 649 0 b 758 42 740 0 750 15 b 779 179 769 81 774 118 b 764 217 781 197 779 214 z "},"Ē":{"ha":831,"x_min":0,"x_max":0,"o":"m 578 1079 b 607 1107 603 1079 606 1090 b 585 1136 610 1125 611 1136 l 267 1136 b 236 1108 239 1136 238 1125 b 260 1079 233 1090 232 1079 z m 764 217 b 714 160 747 218 735 208 b 524 47 681 79 660 47 l 408 46 b 232 117 251 46 232 65 l 232 499 b 343 567 232 569 276 567 l 396 567 b 608 446 563 565 569 433 b 615 518 626 451 628 463 l 592 610 b 560 657 583 646 572 657 b 396 613 525 657 556 613 l 343 613 b 232 681 276 613 232 611 l 232 861 b 411 926 232 906 251 926 l 496 926 b 699 793 599 926 657 881 b 750 744 718 757 726 740 b 764 785 768 749 767 763 b 729 935 756 850 742 897 b 638 974 719 967 714 974 l 132 972 b 69 951 92 972 69 974 b 146 810 69 914 146 951 l 146 163 b 69 21 146 21 69 58 b 132 0 69 -1 92 0 l 649 0 b 758 42 740 0 750 15 b 779 179 769 81 774 118 b 764 217 781 197 779 214 z "},"Ę":{"ha":831,"x_min":0,"x_max":0,"o":"m 764 217 b 714 160 747 218 735 208 b 524 47 681 79 660 47 l 408 46 b 232 117 251 46 232 65 l 232 499 b 343 567 232 569 276 567 l 396 567 b 608 446 563 565 569 433 b 615 518 626 451 628 463 l 592 610 b 560 657 583 646 572 657 b 396 613 525 657 556 613 l 343 613 b 232 681 276 613 232 611 l 232 861 b 411 926 232 906 251 926 l 496 926 b 699 793 599 926 657 881 b 750 744 718 757 726 740 b 764 785 768 749 767 763 b 729 935 756 850 742 897 b 638 974 719 967 714 974 l 132 972 b 69 951 92 972 69 974 b 146 810 69 914 146 951 l 146 163 b 69 21 146 21 69 58 b 132 0 69 -1 92 0 l 522 0 b 417 -144 463 -43 417 -87 b 549 -250 417 -215 481 -250 b 651 -218 576 -250 621 -243 b 635 -199 663 -208 657 -189 b 572 -211 618 -204 592 -211 b 488 -133 517 -211 488 -183 b 558 0 488 -96 507 -49 l 649 0 b 758 42 740 0 750 15 b 779 179 769 81 774 118 b 764 217 781 197 779 214 z "},"F":{"ha":761,"x_min":0,"x_max":0,"o":"m 746 785 b 711 935 738 850 724 897 b 619 974 701 967 697 974 l 132 972 b 69 951 92 972 69 974 b 146 810 69 914 146 951 l 146 182 b 69 21 146 29 69 63 b 132 0 69 4 92 0 l 243 0 b 307 21 288 0 307 4 b 232 182 307 63 232 29 l 232 485 b 343 553 232 556 276 553 l 393 553 b 606 432 558 551 565 419 b 611 504 622 438 624 449 l 589 596 b 556 643 579 632 568 643 b 393 599 521 643 551 599 l 343 599 b 232 667 276 599 232 596 l 232 851 b 413 926 232 907 251 926 l 479 926 b 682 793 582 926 640 881 b 732 744 700 757 710 740 b 746 785 750 749 749 763 z "},"G":{"ha":1026,"x_min":0,"x_max":0,"o":"m 536 -12 b 897 169 708 -8 897 89 l 897 318 b 944 471 897 463 944 425 b 906 492 944 488 925 492 l 726 493 b 663 472 682 493 663 489 b 811 318 663 421 811 446 l 811 167 b 558 53 811 100 679 53 b 146 522 307 53 143 258 b 501 919 146 717 279 919 b 811 739 686 921 753 818 b 863 699 829 713 844 696 b 878 738 879 701 882 717 b 839 910 864 819 849 874 b 790 983 825 967 817 983 b 735 969 772 983 764 969 b 568 986 690 969 656 986 b 54 461 267 986 54 758 b 536 -12 54 200 228 -17 z "},"Ğ":{"ha":1026,"x_min":0,"x_max":0,"o":"m 549 1053 b 706 1193 644 1053 700 1124 b 690 1219 707 1210 700 1219 b 675 1206 685 1219 682 1215 b 549 1132 647 1161 608 1132 b 425 1206 489 1132 451 1163 b 408 1219 419 1215 414 1219 b 393 1193 397 1219 392 1210 b 549 1053 399 1125 443 1053 z m 536 -12 b 897 169 708 -8 897 89 l 897 318 b 944 471 897 463 944 425 b 906 492 944 488 925 492 l 726 493 b 663 472 682 493 663 489 b 811 318 663 421 811 446 l 811 167 b 558 53 811 100 679 53 b 146 522 307 53 143 258 b 501 919 146 717 279 919 b 811 739 686 921 753 818 b 863 699 829 713 844 696 b 878 738 879 701 882 717 b 839 910 864 819 849 874 b 790 983 825 967 817 983 b 735 969 772 983 764 969 b 568 986 690 969 656 986 b 54 461 267 986 54 758 b 536 -12 54 200 228 -17 z "},"Ġ":{"ha":1026,"x_min":0,"x_max":0,"o":"m 522 1108 b 624 1188 564 1103 619 1151 b 578 1250 628 1214 608 1246 b 472 1167 532 1258 476 1210 b 522 1108 468 1132 493 1111 z m 536 -12 b 897 169 708 -8 897 89 l 897 318 b 944 471 897 463 944 425 b 906 492 944 488 925 492 l 726 493 b 663 472 682 493 663 489 b 811 318 663 421 811 446 l 811 167 b 558 53 811 100 679 53 b 146 522 307 53 143 258 b 501 919 146 717 279 919 b 811 739 686 921 753 818 b 863 699 829 713 844 696 b 878 738 879 701 882 717 b 839 910 864 819 849 874 b 790 983 825 967 817 983 b 735 969 772 983 764 969 b 568 986 690 969 656 986 b 54 461 267 986 54 758 b 536 -12 54 200 228 -17 z "},"H":{"ha":1050,"x_min":0,"x_max":0,"o":"m 904 790 b 981 951 904 943 981 910 b 918 972 981 968 958 972 l 807 972 b 743 951 763 972 743 968 b 818 790 743 910 818 943 l 818 611 b 536 540 818 540 818 540 b 232 611 232 540 232 540 l 232 790 b 310 951 232 943 310 910 b 246 972 310 968 288 972 l 135 972 b 72 951 92 972 72 968 b 146 790 72 910 146 943 l 146 182 b 69 21 146 29 69 63 b 132 0 69 4 92 0 l 243 0 b 307 21 288 0 307 4 b 232 182 307 63 232 29 l 232 422 b 535 493 232 493 232 493 b 818 422 818 493 818 493 l 818 182 b 740 21 818 29 740 63 b 804 0 740 4 763 0 l 915 0 b 978 21 958 0 978 4 b 904 182 978 63 904 29 z "},"Ħ":{"ha":1050,"x_min":0,"x_max":0,"o":"m 904 790 b 981 951 904 943 981 910 b 918 972 981 968 958 972 l 807 972 b 743 951 763 972 743 968 b 818 790 743 910 818 943 l 818 743 l 232 743 l 232 790 b 310 951 232 943 310 910 b 246 972 310 968 288 972 l 135 972 b 72 951 92 972 72 968 b 146 790 72 910 146 943 l 146 743 l 72 743 b 53 722 57 743 53 736 l 53 721 b 72 697 53 707 57 697 l 146 697 l 146 182 b 69 21 146 29 69 63 b 132 0 69 4 92 0 l 243 0 b 307 21 288 0 307 4 b 232 182 307 63 232 29 l 232 422 b 535 493 232 493 232 493 b 818 422 818 493 818 493 l 818 182 b 740 21 818 29 740 63 b 804 0 740 4 763 0 l 915 0 b 978 21 958 0 978 4 b 904 182 978 63 904 29 l 904 697 l 996 697 b 1015 721 1011 697 1015 707 l 1015 722 b 996 743 1015 736 1011 743 l 904 743 z m 818 611 b 536 540 818 540 818 540 b 232 611 232 540 232 540 l 232 697 l 818 697 z "},"I":{"ha":378,"x_min":0,"x_max":0,"o":"m 146 182 b 69 21 146 29 69 63 b 132 0 69 4 92 0 l 243 0 b 307 21 288 0 307 4 b 232 182 307 63 232 29 l 232 790 b 310 951 232 943 310 910 b 246 972 310 968 288 972 l 135 972 b 72 951 92 972 72 968 b 146 790 72 910 146 943 z "},"Í":{"ha":378,"x_min":0,"x_max":0,"o":"m 118 1065 b 342 1176 172 1044 321 1128 b 314 1247 354 1210 339 1238 b 200 1181 278 1260 249 1228 b 115 1089 149 1128 121 1097 b 118 1065 113 1083 106 1071 z m 146 182 b 69 21 146 29 69 63 b 132 0 69 4 92 0 l 243 0 b 307 21 288 0 307 4 b 232 182 307 63 232 29 l 232 790 b 310 951 232 943 310 910 b 246 972 310 968 288 972 l 135 972 b 72 951 92 972 72 968 b 146 790 72 910 146 943 z "},"Î":{"ha":378,"x_min":0,"x_max":0,"o":"m 38 1047 b 199 1110 69 1043 163 1082 b 360 1047 235 1082 328 1043 b 372 1064 375 1049 375 1057 b 301 1142 369 1076 333 1108 b 197 1218 229 1213 228 1218 b 97 1142 169 1218 160 1206 b 24 1064 64 1110 28 1078 b 38 1047 22 1057 22 1049 z m 146 182 b 69 21 146 29 69 63 b 132 0 69 4 92 0 l 243 0 b 307 21 288 0 307 4 b 232 182 307 63 232 29 l 232 790 b 310 951 232 943 310 910 b 246 972 310 968 288 972 l 135 972 b 72 951 92 972 72 968 b 146 790 72 910 146 943 z "},"Ï":{"ha":378,"x_min":0,"x_max":0,"o":"m 92 1086 b 168 1154 129 1086 168 1115 b 110 1210 168 1186 143 1210 b 39 1133 71 1210 39 1171 b 92 1086 39 1104 61 1086 z m 275 1086 b 353 1154 313 1086 353 1115 b 294 1210 353 1186 328 1210 b 224 1133 256 1210 224 1171 b 275 1086 224 1104 246 1086 z m 146 182 b 69 21 146 29 69 63 b 132 0 69 4 92 0 l 243 0 b 307 21 288 0 307 4 b 232 182 307 63 232 29 l 232 790 b 310 951 232 943 310 910 b 246 972 310 968 288 972 l 135 972 b 72 951 92 972 72 968 b 146 790 72 910 146 943 z "},"İ":{"ha":378,"x_min":0,"x_max":0,"o":"m 188 1076 b 289 1156 229 1071 285 1119 b 243 1218 293 1182 274 1214 b 138 1135 197 1226 142 1178 b 188 1076 133 1100 158 1079 z m 146 182 b 69 21 146 29 69 63 b 132 0 69 4 92 0 l 243 0 b 307 21 288 0 307 4 b 232 182 307 63 232 29 l 232 790 b 310 951 232 943 310 910 b 246 972 310 968 288 972 l 135 972 b 72 951 92 972 72 968 b 146 790 72 910 146 943 z "},"Ì":{"ha":378,"x_min":0,"x_max":0,"o":"m 276 1065 b 278 1089 288 1071 282 1083 b 194 1181 274 1097 244 1128 b 81 1247 144 1228 117 1260 b 53 1176 56 1238 40 1210 b 276 1065 72 1128 221 1044 z m 146 182 b 69 21 146 29 69 63 b 132 0 69 4 92 0 l 243 0 b 307 21 288 0 307 4 b 232 182 307 63 232 29 l 232 790 b 310 951 232 943 310 910 b 246 972 310 968 288 972 l 135 972 b 72 951 92 972 72 968 b 146 790 72 910 146 943 z "},"Ī":{"ha":378,"x_min":0,"x_max":0,"o":"m 338 1079 b 367 1107 363 1079 365 1090 b 344 1136 369 1125 371 1136 l 26 1136 b -4 1108 -1 1136 -3 1125 b 19 1079 -7 1090 -8 1079 z m 146 182 b 69 21 146 29 69 63 b 132 0 69 4 92 0 l 243 0 b 307 21 288 0 307 4 b 232 182 307 63 232 29 l 232 790 b 310 951 232 943 310 910 b 246 972 310 968 288 972 l 135 972 b 72 951 92 972 72 968 b 146 790 72 910 146 943 z "},"Į":{"ha":378,"x_min":0,"x_max":0,"o":"m 338 -199 b 275 -211 321 -204 294 -211 b 190 -133 219 -211 190 -183 b 261 0 190 -96 210 -49 b 307 21 293 1 307 7 b 232 182 307 63 232 29 l 232 790 b 310 951 232 943 310 910 b 246 972 310 968 288 972 l 135 972 b 72 951 92 972 72 968 b 146 790 72 910 146 943 l 146 182 b 69 21 146 29 69 63 b 132 0 69 4 92 0 l 225 0 b 119 -144 165 -43 119 -87 b 251 -250 119 -215 183 -250 b 354 -218 279 -250 324 -243 b 338 -199 365 -208 360 -189 z "},"J":{"ha":689,"x_min":0,"x_max":0,"o":"m 465 972 b 401 951 421 972 401 968 b 476 790 401 910 476 943 l 476 382 b 299 40 476 178 426 40 b 135 213 194 40 150 117 b 78 271 129 243 113 271 b 28 210 47 271 28 246 b 276 -11 28 107 107 -11 b 561 381 465 -11 561 114 l 563 790 b 640 951 563 943 640 910 b 576 972 640 968 618 972 z "},"K":{"ha":926,"x_min":0,"x_max":0,"o":"m 708 851 b 853 951 796 932 853 910 b 789 972 853 968 832 972 l 671 972 b 629 950 649 972 629 968 b 638 851 629 904 715 924 l 232 472 l 232 790 b 310 951 232 943 310 910 b 246 972 310 968 288 972 l 135 972 b 72 951 92 972 72 968 b 146 790 72 910 146 943 l 146 182 b 69 21 146 29 69 63 b 132 0 69 4 92 0 l 243 0 b 307 21 288 0 307 4 b 232 182 307 63 232 29 l 232 407 l 499 656 l 722 133 b 700 26 760 47 700 54 b 765 0 700 4 724 0 l 878 0 b 922 21 903 0 922 4 b 822 124 922 56 860 38 l 560 713 z "},"L":{"ha":747,"x_min":0,"x_max":0,"o":"m 704 217 b 654 160 688 218 675 208 b 464 47 621 79 600 47 l 363 46 b 232 117 251 46 232 65 l 232 790 b 310 951 232 943 310 910 b 246 972 310 968 288 972 l 135 972 b 72 951 92 972 72 968 b 146 790 72 910 146 943 l 146 163 b 69 21 146 21 69 58 b 132 0 69 -1 92 0 l 589 0 b 699 42 681 0 690 15 b 719 179 710 81 715 118 b 704 217 721 197 719 214 z "},"Ĺ":{"ha":747,"x_min":0,"x_max":0,"o":"m 135 1065 b 358 1176 189 1044 338 1128 b 331 1247 371 1210 356 1238 b 217 1181 294 1260 265 1228 b 132 1089 165 1128 138 1097 b 135 1065 129 1083 122 1071 z m 704 217 b 654 160 688 218 675 208 b 464 47 621 79 600 47 l 363 46 b 232 117 251 46 232 65 l 232 790 b 310 951 232 943 310 910 b 246 972 310 968 288 972 l 135 972 b 72 951 92 972 72 968 b 146 790 72 910 146 943 l 146 163 b 69 21 146 21 69 58 b 132 0 69 -1 92 0 l 589 0 b 699 42 681 0 690 15 b 719 179 710 81 715 118 b 704 217 721 197 719 214 z "},"Ľ":{"ha":747,"x_min":0,"x_max":0,"o":"m 704 217 b 654 160 688 218 675 208 b 464 47 621 79 600 47 l 363 46 b 232 117 251 46 232 65 l 232 790 b 310 951 232 943 310 910 b 246 972 310 968 288 972 l 135 972 b 72 951 92 972 72 968 b 146 790 72 910 146 943 l 146 163 b 69 21 146 21 69 58 b 132 0 69 -1 92 0 l 589 0 b 699 42 681 0 690 15 b 719 179 710 81 715 118 b 704 217 721 197 719 214 z m 547 685 b 643 917 581 685 643 876 b 600 969 643 958 621 969 b 549 908 574 969 550 950 b 532 704 549 890 535 749 b 547 685 531 694 536 685 z "},"Ł":{"ha":747,"x_min":0,"x_max":0,"o":"m 704 217 b 654 160 688 218 675 208 b 464 47 621 79 600 47 l 363 46 b 232 117 251 46 232 65 l 232 468 l 376 551 b 385 581 390 560 390 569 b 357 586 378 592 371 596 l 232 515 l 232 790 b 310 951 232 943 310 910 b 246 972 310 968 288 972 l 135 972 b 72 951 92 972 72 968 b 146 790 72 910 146 943 l 146 465 l 68 421 b 60 394 53 413 54 404 b 89 385 67 382 74 376 l 146 418 l 146 163 b 69 21 146 21 69 58 b 132 0 69 -1 92 0 l 589 0 b 699 42 681 0 690 15 b 719 179 710 81 715 118 b 704 217 721 197 719 214 z "},"M":{"ha":1210,"x_min":0,"x_max":0,"o":"m 1038 828 b 1097 953 1035 933 1097 922 b 1053 972 1097 967 1088 972 l 979 972 b 950 953 965 972 956 967 l 593 158 l 267 951 b 238 972 260 967 251 972 l 157 972 b 113 953 122 972 113 967 b 172 828 113 926 176 921 l 149 163 b 69 25 144 42 69 69 b 128 0 69 4 93 0 l 203 0 b 264 25 246 0 264 6 b 197 163 264 68 193 42 l 224 839 l 539 74 b 578 64 543 63 554 58 b 607 86 593 69 601 75 l 615 104 l 954 846 l 974 156 b 899 24 976 49 899 61 b 963 0 899 4 921 0 l 1075 0 b 1129 24 1110 0 1129 4 b 1058 156 1129 60 1063 50 z "},"N":{"ha":1036,"x_min":0,"x_max":0,"o":"m 843 972 b 782 947 801 972 782 967 b 856 810 782 904 854 931 l 858 203 l 186 957 b 158 972 176 969 169 972 l 126 972 b 63 951 85 972 63 974 b 140 810 63 914 140 951 l 140 163 b 67 25 140 42 67 69 b 125 0 67 4 90 0 l 200 0 b 263 25 243 0 263 6 b 188 163 263 68 189 42 l 185 828 l 828 110 b 860 26 851 83 860 53 b 879 0 860 13 868 0 b 904 33 893 0 904 8 l 904 810 b 976 947 904 931 976 903 b 918 972 976 968 953 972 z "},"Ń":{"ha":1036,"x_min":0,"x_max":0,"o":"m 449 1065 b 672 1176 503 1044 651 1128 b 644 1247 685 1210 669 1238 b 531 1181 608 1260 579 1228 b 446 1089 479 1128 451 1097 b 449 1065 443 1083 436 1071 z m 843 972 b 782 947 801 972 782 967 b 856 810 782 904 854 931 l 858 203 l 186 957 b 158 972 176 969 169 972 l 126 972 b 63 951 85 972 63 974 b 140 810 63 914 140 951 l 140 163 b 67 25 140 42 67 69 b 125 0 67 4 90 0 l 200 0 b 263 25 243 0 263 6 b 188 163 263 68 189 42 l 185 828 l 828 110 b 860 26 851 83 860 53 b 879 0 860 13 868 0 b 904 33 893 0 904 8 l 904 810 b 976 947 904 931 976 903 b 918 972 976 968 953 972 z "},"Ň":{"ha":1036,"x_min":0,"x_max":0,"o":"m 426 1121 b 526 1044 489 1058 499 1044 b 631 1122 557 1044 558 1050 b 701 1199 663 1154 699 1186 b 689 1217 704 1207 704 1215 b 528 1153 657 1219 564 1182 b 367 1217 492 1182 399 1219 b 353 1199 351 1215 351 1207 b 426 1121 357 1186 393 1154 z m 843 972 b 782 947 801 972 782 967 b 856 810 782 904 854 931 l 858 203 l 186 957 b 158 972 176 969 169 972 l 126 972 b 63 951 85 972 63 974 b 140 810 63 914 140 951 l 140 163 b 67 25 140 42 67 69 b 125 0 67 4 90 0 l 200 0 b 263 25 243 0 263 6 b 188 163 263 68 189 42 l 185 828 l 828 110 b 860 26 851 83 860 53 b 879 0 860 13 868 0 b 904 33 893 0 904 8 l 904 810 b 976 947 904 931 976 903 b 918 972 976 968 953 972 z "},"Ñ":{"ha":1036,"x_min":0,"x_max":0,"o":"m 346 1082 b 394 1122 346 1107 360 1122 b 615 1064 458 1122 551 1064 b 704 1139 667 1064 704 1090 b 671 1169 704 1183 671 1203 b 624 1131 671 1146 658 1131 b 401 1189 574 1131 494 1189 b 313 1113 350 1189 313 1161 b 346 1082 313 1068 346 1049 z m 843 972 b 782 947 801 972 782 967 b 856 810 782 904 854 931 l 858 203 l 186 957 b 158 972 176 969 169 972 l 126 972 b 63 951 85 972 63 974 b 140 810 63 914 140 951 l 140 163 b 67 25 140 42 67 69 b 125 0 67 4 90 0 l 200 0 b 263 25 243 0 263 6 b 188 163 263 68 189 42 l 185 828 l 828 110 b 860 26 851 83 860 53 b 879 0 860 13 868 0 b 904 33 893 0 904 8 l 904 810 b 976 947 904 931 976 903 b 918 972 976 968 953 972 z "},"O":{"ha":1063,"x_min":0,"x_max":0,"o":"m 503 -14 b 1008 525 808 -14 1008 215 b 561 986 1008 789 835 986 b 54 447 263 986 54 746 b 503 -14 54 182 224 -14 z m 554 49 b 140 533 303 49 140 243 b 517 928 140 718 274 928 b 918 463 765 928 918 725 b 554 49 918 254 790 49 z "},"Ó":{"ha":1063,"x_min":0,"x_max":0,"o":"m 464 1065 b 688 1176 518 1044 667 1128 b 660 1247 700 1210 685 1238 b 546 1181 624 1260 594 1228 b 461 1089 494 1128 467 1097 b 464 1065 458 1083 451 1071 z m 503 -14 b 1008 525 808 -14 1008 215 b 561 986 1008 789 835 986 b 54 447 263 986 54 746 b 503 -14 54 182 224 -14 z m 554 49 b 140 533 303 49 140 243 b 517 928 140 718 274 928 b 918 463 765 928 918 725 b 554 49 918 254 790 49 z "},"Ô":{"ha":1063,"x_min":0,"x_max":0,"o":"m 382 1047 b 543 1110 414 1043 507 1082 b 704 1047 579 1082 672 1043 b 717 1064 719 1049 719 1057 b 646 1142 714 1076 678 1108 b 542 1218 574 1213 572 1218 b 442 1142 514 1218 504 1206 b 368 1064 408 1110 372 1078 b 382 1047 367 1057 367 1049 z m 503 -14 b 1008 525 808 -14 1008 215 b 561 986 1008 789 835 986 b 54 447 263 986 54 746 b 503 -14 54 182 224 -14 z m 554 49 b 140 533 303 49 140 243 b 517 928 140 718 274 928 b 918 463 765 928 918 725 b 554 49 918 254 790 49 z "},"Ö":{"ha":1063,"x_min":0,"x_max":0,"o":"m 419 1086 b 496 1154 457 1086 496 1115 b 438 1210 496 1186 471 1210 b 367 1133 399 1210 367 1171 b 419 1086 367 1104 389 1086 z m 603 1086 b 681 1154 640 1086 681 1115 b 622 1210 681 1186 656 1210 b 551 1133 583 1210 551 1171 b 603 1086 551 1104 574 1086 z m 503 -14 b 1008 525 808 -14 1008 215 b 561 986 1008 789 835 986 b 54 447 263 986 54 746 b 503 -14 54 182 224 -14 z m 554 49 b 140 533 303 49 140 243 b 517 928 140 718 274 928 b 918 463 765 928 918 725 b 554 49 918 254 790 49 z "},"Ò":{"ha":1063,"x_min":0,"x_max":0,"o":"m 622 1065 b 624 1089 633 1071 628 1083 b 540 1181 619 1097 590 1128 b 426 1247 490 1228 463 1260 b 399 1176 401 1238 386 1210 b 622 1065 418 1128 567 1044 z m 503 -14 b 1008 525 808 -14 1008 215 b 561 986 1008 789 835 986 b 54 447 263 986 54 746 b 503 -14 54 182 224 -14 z m 554 49 b 140 533 303 49 140 243 b 517 928 140 718 274 928 b 918 463 765 928 918 725 b 554 49 918 254 790 49 z "},"Ő":{"ha":1063,"x_min":0,"x_max":0,"o":"m 347 1067 b 554 1181 410 1067 554 1125 b 500 1228 554 1204 525 1228 b 401 1171 474 1228 444 1203 b 304 1083 356 1135 304 1094 b 347 1067 304 1074 319 1067 z m 608 1064 b 821 1167 671 1061 818 1113 b 768 1217 822 1190 794 1215 b 668 1165 742 1218 713 1197 b 567 1083 621 1132 567 1094 b 608 1064 565 1074 581 1065 z m 503 -14 b 1008 525 808 -14 1008 215 b 561 986 1008 789 835 986 b 54 447 263 986 54 746 b 503 -14 54 182 224 -14 z m 554 49 b 140 533 303 49 140 243 b 517 928 140 718 274 928 b 918 463 765 928 918 725 b 554 49 918 254 790 49 z "},"Ō":{"ha":1063,"x_min":0,"x_max":0,"o":"m 683 1079 b 713 1107 708 1079 711 1090 b 690 1136 715 1125 717 1136 l 372 1136 b 342 1108 344 1136 343 1125 b 365 1079 339 1090 338 1079 z m 503 -14 b 1008 525 808 -14 1008 215 b 561 986 1008 789 835 986 b 54 447 263 986 54 746 b 503 -14 54 182 224 -14 z m 554 49 b 140 533 303 49 140 243 b 517 928 140 718 274 928 b 918 463 765 928 918 725 b 554 49 918 254 790 49 z "},"Ø":{"ha":1063,"x_min":0,"x_max":0,"o":"m 893 1057 b 894 1096 903 1074 910 1086 b 857 1085 876 1107 865 1101 l 772 939 b 561 986 713 969 640 986 b 54 447 263 986 54 746 b 258 49 54 272 128 128 l 190 -69 b 192 -110 179 -87 179 -97 b 226 -97 208 -121 218 -112 l 299 28 b 503 -14 357 1 426 -14 b 1008 525 808 -14 1008 215 b 813 917 1008 694 936 838 z m 140 533 b 517 928 140 718 274 928 b 731 865 599 928 671 906 l 306 131 b 140 533 201 214 140 356 z m 554 49 b 343 104 474 49 403 68 l 767 839 b 918 463 864 754 918 619 b 554 49 918 254 790 49 z "},"Õ":{"ha":1063,"x_min":0,"x_max":0,"o":"m 631 1064 b 719 1139 682 1064 719 1090 b 686 1169 719 1183 686 1203 b 639 1131 686 1146 674 1131 b 417 1189 589 1131 510 1189 b 328 1113 365 1189 328 1161 b 361 1082 328 1068 361 1049 b 410 1122 361 1107 375 1122 b 631 1064 474 1122 567 1064 z m 503 -14 b 1008 525 808 -14 1008 215 b 561 986 1008 789 835 986 b 54 447 263 986 54 746 b 503 -14 54 182 224 -14 z m 554 49 b 140 533 303 49 140 243 b 517 928 140 718 274 928 b 918 463 765 928 918 725 b 554 49 918 254 790 49 z "},"Œ":{"ha":1626,"x_min":0,"x_max":0,"o":"m 1558 229 b 1508 182 1536 233 1526 218 b 1306 47 1467 93 1408 47 l 1193 46 b 1033 104 1053 46 1033 67 l 1033 500 l 1300 500 b 1513 379 1465 499 1472 365 b 1518 451 1529 385 1531 396 l 1496 543 b 1463 589 1486 578 1475 589 b 1300 546 1428 589 1458 546 l 1033 546 l 1033 868 b 1193 926 1033 906 1053 926 l 1282 926 b 1485 793 1385 926 1443 881 b 1535 744 1503 757 1513 740 b 1549 785 1553 749 1551 763 b 1514 935 1540 850 1526 897 b 1422 974 1504 967 1500 974 l 974 972 b 932 931 947 972 932 957 l 932 799 b 561 986 856 914 726 986 b 54 447 263 986 54 746 b 503 -14 54 182 224 -14 b 932 224 696 -14 847 78 l 932 42 b 974 0 932 15 947 0 l 1446 0 b 1538 39 1524 0 1528 7 b 1572 190 1550 76 1564 125 b 1558 229 1575 211 1576 226 z m 554 49 b 140 533 303 49 140 243 b 517 928 140 718 274 928 b 918 463 765 928 918 725 b 554 49 918 254 790 49 z "},"P":{"ha":846,"x_min":0,"x_max":0,"o":"m 132 972 b 69 951 92 972 69 974 b 146 810 69 914 146 951 l 146 182 b 69 21 146 29 69 63 b 132 0 69 4 92 0 l 243 0 b 307 21 288 0 307 4 b 232 182 307 63 232 29 l 232 290 b 260 318 232 318 231 318 l 389 318 b 804 640 668 318 804 442 b 351 972 804 813 653 972 z m 389 364 b 232 401 242 364 232 379 l 232 888 b 349 925 232 917 246 925 b 704 613 571 925 704 783 b 389 364 704 413 567 364 z "},"Þ":{"ha":799,"x_min":0,"x_max":0,"o":"m 232 197 b 260 225 232 225 231 225 l 376 225 b 757 476 644 225 757 321 b 356 783 757 683 575 786 l 232 782 b 294 951 232 935 294 913 b 236 972 294 965 283 972 l 142 972 b 83 951 93 972 83 965 b 146 783 83 915 146 919 l 146 183 b 69 22 146 31 69 64 b 132 1 69 6 92 1 l 243 1 b 307 22 288 1 307 6 b 232 183 307 64 232 31 z m 358 272 b 232 311 239 272 232 288 l 232 699 b 308 736 232 728 244 738 b 658 479 503 732 658 672 b 358 272 658 329 540 272 z "},"Q":{"ha":1063,"x_min":0,"x_max":0,"o":"m 963 -46 b 867 -81 931 -46 939 -81 b 458 -12 736 -81 589 -47 b 503 -14 472 -14 488 -14 b 1008 525 808 -14 1008 215 b 561 986 1008 789 835 986 b 54 447 263 986 54 746 b 292 32 54 258 140 104 b 196 43 253 40 225 43 b 118 -15 153 43 118 25 b 138 -42 118 -29 125 -42 b 183 -15 153 -42 154 -15 b 394 -71 228 -15 281 -29 b 842 -196 554 -129 740 -196 b 982 -78 947 -196 982 -139 b 963 -46 982 -57 971 -46 z m 140 533 b 517 928 140 718 274 928 b 918 463 765 928 918 725 b 554 49 918 254 790 49 b 140 533 303 49 140 243 z "},"R":{"ha":879,"x_min":0,"x_max":0,"o":"m 593 404 b 803 669 725 446 803 528 b 357 972 803 826 668 972 l 132 972 b 69 951 92 972 69 974 b 146 810 69 914 146 951 l 146 182 b 69 21 146 29 69 63 b 132 0 69 4 92 0 l 243 0 b 307 21 288 0 307 4 b 232 182 307 63 232 29 l 232 360 b 378 393 232 414 269 407 b 533 322 481 381 503 375 l 636 133 b 613 26 681 51 613 54 b 682 0 613 4 638 0 l 797 0 b 840 21 821 0 840 4 b 739 128 840 56 786 39 z m 481 438 b 232 514 414 436 232 447 l 232 888 b 356 924 232 917 251 925 b 701 651 586 921 701 794 b 481 438 701 499 601 442 z "},"Ŕ":{"ha":879,"x_min":0,"x_max":0,"o":"m 315 1065 b 539 1176 369 1044 518 1128 b 511 1247 551 1210 536 1238 b 397 1181 475 1260 446 1228 b 313 1089 346 1128 318 1097 b 315 1065 310 1083 303 1071 z m 593 404 b 803 669 725 446 803 528 b 357 972 803 826 668 972 l 132 972 b 69 951 92 972 69 974 b 146 810 69 914 146 951 l 146 182 b 69 21 146 29 69 63 b 132 0 69 4 92 0 l 243 0 b 307 21 288 0 307 4 b 232 182 307 63 232 29 l 232 360 b 378 393 232 414 269 407 b 533 322 481 381 503 375 l 636 133 b 613 26 681 51 613 54 b 682 0 613 4 638 0 l 797 0 b 840 21 821 0 840 4 b 739 128 840 56 786 39 z m 481 438 b 232 514 414 436 232 447 l 232 888 b 356 924 232 917 251 925 b 701 651 586 921 701 794 b 481 438 701 499 601 442 z "},"Ř":{"ha":879,"x_min":0,"x_max":0,"o":"m 303 1121 b 403 1044 365 1058 375 1044 b 507 1122 433 1044 435 1050 b 578 1199 539 1154 575 1186 b 565 1217 581 1207 581 1215 b 404 1153 533 1219 440 1182 b 243 1217 368 1182 275 1219 b 229 1199 228 1215 228 1207 b 303 1121 233 1186 269 1154 z m 593 404 b 803 669 725 446 803 528 b 357 972 803 826 668 972 l 132 972 b 69 951 92 972 69 974 b 146 810 69 914 146 951 l 146 182 b 69 21 146 29 69 63 b 132 0 69 4 92 0 l 243 0 b 307 21 288 0 307 4 b 232 182 307 63 232 29 l 232 360 b 378 393 232 414 269 407 b 533 322 481 381 503 375 l 636 133 b 613 26 681 51 613 54 b 682 0 613 4 638 0 l 797 0 b 840 21 821 0 840 4 b 739 128 840 56 786 39 z m 481 438 b 232 514 414 436 232 447 l 232 888 b 356 924 232 917 251 925 b 701 651 586 921 701 794 b 481 438 701 499 601 442 z "},"S":{"ha":776,"x_min":0,"x_max":0,"o":"m 397 -14 b 732 265 579 -12 740 96 b 415 554 724 438 556 488 b 175 767 290 614 175 647 b 371 932 175 860 242 932 b 629 758 504 932 586 829 b 676 721 643 732 660 721 b 690 757 694 721 696 739 b 654 910 676 831 664 874 b 610 983 640 967 638 983 b 554 969 592 983 583 969 b 408 983 510 969 465 983 b 94 750 188 983 94 865 b 397 456 94 576 264 518 b 643 228 517 400 651 357 b 410 38 638 128 565 36 b 133 254 244 40 174 153 b 88 294 122 283 104 294 b 71 254 69 294 67 276 b 101 64 83 151 96 94 b 151 -12 111 7 125 -12 b 207 0 169 -12 179 0 b 397 -14 250 0 290 -14 z "},"":{"ha":776,"x_min":0,"x_max":0,"o":"m 397 -14 b 732 265 579 -12 740 96 b 415 554 724 438 556 488 b 175 767 290 614 175 647 b 371 932 175 860 242 932 b 629 758 504 932 586 829 b 676 721 643 732 660 721 b 690 757 694 721 696 739 b 654 910 676 831 664 874 b 610 983 640 967 638 983 b 554 969 592 983 583 969 b 408 983 510 969 465 983 b 94 750 188 983 94 865 b 397 456 94 576 264 518 b 643 228 517 400 651 357 b 410 38 638 128 565 36 b 133 254 244 40 174 153 b 88 294 122 283 104 294 b 71 254 69 294 67 276 b 101 64 83 151 96 94 b 151 -12 111 7 125 -12 b 207 0 169 -12 179 0 b 397 -14 250 0 290 -14 z "},"Ś":{"ha":776,"x_min":0,"x_max":0,"o":"m 311 1082 b 535 1193 365 1061 514 1144 b 507 1264 547 1226 532 1254 b 393 1197 471 1276 442 1244 b 308 1106 342 1144 314 1114 b 311 1082 306 1100 299 1088 z m 397 -14 b 732 265 579 -12 740 96 b 415 554 724 438 556 488 b 175 767 290 614 175 647 b 371 932 175 860 242 932 b 629 758 504 932 586 829 b 676 721 643 732 660 721 b 690 757 694 721 696 739 b 654 910 676 831 664 874 b 610 983 640 967 638 983 b 554 969 592 983 583 969 b 408 983 510 969 465 983 b 94 750 188 983 94 865 b 397 456 94 576 264 518 b 643 228 517 400 651 357 b 410 38 638 128 565 36 b 133 254 244 40 174 153 b 88 294 122 283 104 294 b 71 254 69 294 67 276 b 101 64 83 151 96 94 b 151 -12 111 7 125 -12 b 207 0 169 -12 179 0 b 397 -14 250 0 290 -14 z "},"Š":{"ha":776,"x_min":0,"x_max":0,"o":"m 229 1233 b 215 1215 214 1232 214 1224 b 289 1138 219 1203 256 1171 b 389 1061 351 1075 361 1061 b 493 1139 419 1061 421 1067 b 564 1215 525 1171 561 1203 b 551 1233 567 1224 567 1232 b 390 1169 519 1236 426 1199 b 229 1233 354 1199 261 1236 z m 397 -14 b 732 265 579 -12 740 96 b 415 554 724 438 556 488 b 175 767 290 614 175 647 b 371 932 175 860 242 932 b 629 758 504 932 586 829 b 676 721 643 732 660 721 b 690 757 694 721 696 739 b 654 910 676 831 664 874 b 610 983 640 967 638 983 b 554 969 592 983 583 969 b 408 983 510 969 465 983 b 94 750 188 983 94 865 b 397 456 94 576 264 518 b 643 228 517 400 651 357 b 410 38 638 128 565 36 b 133 254 244 40 174 153 b 88 294 122 283 104 294 b 71 254 69 294 67 276 b 101 64 83 151 96 94 b 151 -12 111 7 125 -12 b 207 0 169 -12 179 0 b 397 -14 250 0 290 -14 z "},"Ş":{"ha":776,"x_min":0,"x_max":0,"o":"m 732 265 b 415 554 724 438 556 488 b 175 767 290 614 175 647 b 371 932 175 860 242 932 b 629 758 504 932 586 829 b 676 721 643 732 660 721 b 690 757 694 721 696 739 b 654 910 676 831 664 874 b 610 983 640 967 638 983 b 554 969 592 983 583 969 b 408 983 510 969 465 983 b 94 750 188 983 94 865 b 397 456 94 576 264 518 b 643 228 517 400 651 357 b 410 38 638 128 565 36 b 133 254 244 40 174 153 b 88 294 122 283 104 294 b 71 254 69 294 67 276 b 101 64 83 151 96 94 b 151 -12 111 7 125 -12 b 207 0 169 -12 179 0 b 379 -14 247 0 286 -12 l 336 -93 b 353 -115 329 -106 339 -112 b 447 -193 401 -128 447 -147 b 381 -254 447 -226 426 -254 b 299 -229 342 -254 318 -240 b 282 -249 283 -219 271 -235 b 389 -290 297 -268 329 -290 b 513 -183 454 -290 513 -249 b 385 -76 513 -119 456 -89 l 415 -14 b 732 265 590 -6 740 101 z "},"ẞ":{"ha":1553,"x_min":0,"x_max":0,"o":"m 397 -14 b 732 265 579 -12 740 96 b 415 554 724 438 556 488 b 175 767 290 614 175 647 b 371 932 175 860 242 932 b 629 758 504 932 586 829 b 676 721 643 732 660 721 b 690 757 694 721 696 739 b 654 910 676 831 664 874 b 610 983 640 967 638 983 b 554 969 592 983 583 969 b 408 983 510 969 465 983 b 94 750 188 983 94 865 b 397 456 94 576 264 518 b 643 228 517 400 651 357 b 410 38 638 128 565 36 b 133 254 244 40 174 153 b 88 294 122 283 104 294 b 71 254 69 294 67 276 b 101 64 83 151 96 94 b 151 -12 111 7 125 -12 b 207 0 169 -12 179 0 b 397 -14 250 0 290 -14 z m 1174 -14 b 1508 265 1356 -12 1517 96 b 1192 554 1500 438 1332 488 b 951 767 1067 614 951 647 b 1147 932 951 860 1018 932 b 1406 758 1281 932 1363 829 b 1453 721 1419 732 1436 721 b 1467 757 1471 721 1472 739 b 1431 910 1453 831 1440 874 b 1386 983 1417 967 1414 983 b 1331 969 1368 983 1360 969 b 1185 983 1286 969 1242 983 b 871 750 964 983 871 865 b 1174 456 871 576 1040 518 b 1419 228 1293 400 1428 357 b 1186 38 1414 128 1342 36 b 910 254 1021 40 950 153 b 864 294 899 283 881 294 b 847 254 846 294 843 276 b 878 64 860 151 872 94 b 928 -12 888 7 901 -12 b 983 0 946 -12 956 0 b 1174 -14 1026 0 1067 -14 z "},"T":{"ha":875,"x_min":0,"x_max":0,"o":"m 481 856 b 563 929 481 908 500 929 b 742 814 682 929 699 893 b 793 757 765 769 775 757 b 817 794 817 757 818 776 b 800 932 815 857 811 893 b 690 974 792 960 782 974 l 185 972 b 75 931 93 972 82 957 b 58 793 64 892 58 854 b 82 756 57 775 58 756 b 133 813 99 756 110 768 b 313 928 176 892 193 928 b 394 854 375 928 394 907 l 394 182 b 317 21 394 29 317 63 b 381 0 317 4 339 0 l 492 0 b 554 21 535 0 554 4 b 481 182 554 63 481 29 z "},"Ŧ":{"ha":875,"x_min":0,"x_max":0,"o":"m 817 794 b 800 932 815 857 811 893 b 690 974 792 960 782 974 l 185 972 b 75 931 93 972 82 957 b 58 793 64 892 58 854 b 82 756 57 775 58 756 b 133 813 99 756 110 768 b 313 928 176 892 193 928 b 394 854 375 928 394 907 l 394 506 l 296 506 b 263 481 265 506 263 497 b 296 460 263 468 268 460 l 394 460 l 394 182 b 317 21 394 29 317 63 b 381 0 317 4 339 0 l 492 0 b 554 21 535 0 554 4 b 481 182 554 63 481 29 l 481 460 l 574 460 b 607 481 601 460 607 468 b 574 506 607 497 604 506 l 481 506 l 481 856 b 563 929 481 908 500 929 b 742 814 682 929 699 893 b 793 757 765 769 775 757 b 817 794 817 757 818 776 z "},"Ť":{"ha":875,"x_min":0,"x_max":0,"o":"m 299 1217 b 285 1199 283 1215 283 1207 b 358 1121 289 1186 325 1154 b 458 1044 421 1058 431 1044 b 563 1122 489 1044 490 1050 b 633 1199 594 1154 631 1186 b 621 1217 636 1207 636 1215 b 460 1153 589 1219 496 1182 b 299 1217 424 1182 331 1219 z m 481 856 b 563 929 481 908 500 929 b 742 814 682 929 699 893 b 793 757 765 769 775 757 b 817 794 817 757 818 776 b 800 932 815 857 811 893 b 690 974 792 960 782 974 l 185 972 b 75 931 93 972 82 957 b 58 793 64 892 58 854 b 82 756 57 775 58 756 b 133 813 99 756 110 768 b 313 928 176 892 193 928 b 394 854 375 928 394 907 l 394 182 b 317 21 394 29 317 63 b 381 0 317 4 339 0 l 492 0 b 554 21 535 0 554 4 b 481 182 554 63 481 29 z "},"U":{"ha":982,"x_min":0,"x_max":0,"o":"m 508 -14 b 863 369 756 -14 863 165 l 864 810 b 938 947 864 931 938 903 b 879 972 938 968 914 972 l 804 972 b 742 947 761 972 742 967 b 814 810 742 904 815 931 l 819 358 b 525 38 819 185 719 38 b 231 346 342 38 231 144 l 231 788 b 308 949 231 940 308 907 b 244 969 308 965 286 969 l 133 969 b 69 949 89 969 69 965 b 144 788 69 907 144 940 l 144 360 b 508 -14 144 139 288 -14 z "},"Ú":{"ha":982,"x_min":0,"x_max":0,"o":"m 504 1065 b 728 1176 558 1044 707 1128 b 700 1247 740 1210 725 1238 b 586 1181 664 1260 635 1228 b 501 1089 535 1128 507 1097 b 504 1065 499 1083 492 1071 z m 508 -14 b 863 369 756 -14 863 165 l 864 810 b 938 947 864 931 938 903 b 879 972 938 968 914 972 l 804 972 b 742 947 761 972 742 967 b 814 810 742 904 815 931 l 819 358 b 525 38 819 185 719 38 b 231 346 342 38 231 144 l 231 788 b 308 949 231 940 308 907 b 244 969 308 965 286 969 l 133 969 b 69 949 89 969 69 965 b 144 788 69 907 144 940 l 144 360 b 508 -14 144 139 288 -14 z "},"Û":{"ha":982,"x_min":0,"x_max":0,"o":"m 424 1047 b 585 1110 456 1043 549 1082 b 746 1047 621 1082 714 1043 b 758 1064 761 1049 761 1057 b 688 1142 756 1076 719 1108 b 583 1218 615 1213 614 1218 b 483 1142 556 1218 546 1206 b 410 1064 450 1110 414 1078 b 424 1047 408 1057 408 1049 z m 508 -14 b 863 369 756 -14 863 165 l 864 810 b 938 947 864 931 938 903 b 879 972 938 968 914 972 l 804 972 b 742 947 761 972 742 967 b 814 810 742 904 815 931 l 819 358 b 525 38 819 185 719 38 b 231 346 342 38 231 144 l 231 788 b 308 949 231 940 308 907 b 244 969 308 965 286 969 l 133 969 b 69 949 89 969 69 965 b 144 788 69 907 144 940 l 144 360 b 508 -14 144 139 288 -14 z "},"Ü":{"ha":982,"x_min":0,"x_max":0,"o":"m 460 1086 b 536 1154 497 1086 536 1115 b 478 1210 536 1186 511 1210 b 407 1133 439 1210 407 1171 b 460 1086 407 1104 429 1086 z m 643 1086 b 721 1154 681 1086 721 1115 b 663 1210 721 1186 696 1210 b 592 1133 624 1210 592 1171 b 643 1086 592 1104 614 1086 z m 508 -14 b 863 369 756 -14 863 165 l 864 810 b 938 947 864 931 938 903 b 879 972 938 968 914 972 l 804 972 b 742 947 761 972 742 967 b 814 810 742 904 815 931 l 819 358 b 525 38 819 185 719 38 b 231 346 342 38 231 144 l 231 788 b 308 949 231 940 308 907 b 244 969 308 965 286 969 l 133 969 b 69 949 89 969 69 965 b 144 788 69 907 144 940 l 144 360 b 508 -14 144 139 288 -14 z "},"Ù":{"ha":982,"x_min":0,"x_max":0,"o":"m 663 1065 b 664 1089 674 1071 668 1083 b 581 1181 660 1097 631 1128 b 467 1247 531 1228 503 1260 b 439 1176 442 1238 426 1210 b 663 1065 458 1128 607 1044 z m 508 -14 b 863 369 756 -14 863 165 l 864 810 b 938 947 864 931 938 903 b 879 972 938 968 914 972 l 804 972 b 742 947 761 972 742 967 b 814 810 742 904 815 931 l 819 358 b 525 38 819 185 719 38 b 231 346 342 38 231 144 l 231 788 b 308 949 231 940 308 907 b 244 969 308 965 286 969 l 133 969 b 69 949 89 969 69 965 b 144 788 69 907 144 940 l 144 360 b 508 -14 144 139 288 -14 z "},"Ű":{"ha":982,"x_min":0,"x_max":0,"o":"m 388 1067 b 594 1181 450 1067 594 1125 b 540 1228 594 1204 565 1228 b 442 1171 514 1228 485 1203 b 344 1083 396 1135 344 1094 b 388 1067 344 1074 360 1067 z m 649 1064 b 861 1167 711 1061 858 1113 b 808 1217 863 1190 835 1215 b 708 1165 782 1218 753 1197 b 607 1083 661 1132 607 1094 b 649 1064 606 1074 621 1065 z m 508 -14 b 863 369 756 -14 863 165 l 864 810 b 938 947 864 931 938 903 b 879 972 938 968 914 972 l 804 972 b 742 947 761 972 742 967 b 814 810 742 904 815 931 l 819 358 b 525 38 819 185 719 38 b 231 346 342 38 231 144 l 231 788 b 308 949 231 940 308 907 b 244 969 308 965 286 969 l 133 969 b 69 949 89 969 69 965 b 144 788 69 907 144 940 l 144 360 b 508 -14 144 139 288 -14 z "},"Ū":{"ha":982,"x_min":0,"x_max":0,"o":"m 724 1079 b 753 1107 749 1079 751 1090 b 731 1136 756 1125 757 1136 l 413 1136 b 382 1108 385 1136 383 1125 b 406 1079 379 1090 378 1079 z m 508 -14 b 863 369 756 -14 863 165 l 864 810 b 938 947 864 931 938 903 b 879 972 938 968 914 972 l 804 972 b 742 947 761 972 742 967 b 814 810 742 904 815 931 l 819 358 b 525 38 819 185 719 38 b 231 346 342 38 231 144 l 231 788 b 308 949 231 940 308 907 b 244 969 308 965 286 969 l 133 969 b 69 949 89 969 69 965 b 144 788 69 907 144 940 l 144 360 b 508 -14 144 139 288 -14 z "},"Ų":{"ha":982,"x_min":0,"x_max":0,"o":"m 804 972 b 742 947 761 972 742 967 b 814 810 742 904 815 931 l 819 358 b 525 38 819 185 719 38 b 231 346 342 38 231 144 l 231 788 b 308 949 231 940 308 907 b 244 969 308 965 286 969 l 133 969 b 69 949 89 969 69 965 b 144 788 69 907 144 940 l 144 360 b 508 -14 144 139 288 -14 b 561 -11 526 -14 544 -12 b 471 -144 508 -50 471 -92 b 603 -250 471 -215 535 -250 b 706 -218 631 -250 675 -243 b 689 -199 717 -208 711 -189 b 626 -211 672 -204 646 -211 b 542 -133 571 -211 542 -183 b 610 -3 542 -96 561 -50 b 863 369 785 40 863 196 l 864 810 b 938 947 864 931 938 903 b 879 972 938 968 914 972 z "},"Ů":{"ha":982,"x_min":0,"x_max":0,"o":"m 574 1053 b 701 1174 644 1053 701 1099 b 579 1290 701 1244 649 1290 b 450 1169 507 1290 450 1243 b 574 1053 450 1099 503 1053 z m 581 1094 b 501 1171 538 1094 508 1126 b 574 1251 499 1218 526 1251 b 650 1176 615 1251 644 1219 b 581 1094 653 1132 626 1094 z m 508 -14 b 863 369 756 -14 863 165 l 864 810 b 938 947 864 931 938 903 b 879 972 938 968 914 972 l 804 972 b 742 947 761 972 742 967 b 814 810 742 904 815 931 l 819 358 b 525 38 819 185 719 38 b 231 346 342 38 231 144 l 231 788 b 308 949 231 940 308 907 b 244 969 308 965 286 969 l 133 969 b 69 949 89 969 69 965 b 144 788 69 907 144 940 l 144 360 b 508 -14 144 139 288 -14 z "},"V":{"ha":931,"x_min":0,"x_max":0,"o":"m 786 972 b 743 947 761 972 743 967 b 776 817 743 913 821 932 l 489 65 l 194 818 b 235 953 153 925 235 914 b 185 972 235 968 213 972 l 61 972 b -3 949 17 972 -3 968 b 100 818 -3 913 54 932 l 424 11 b 478 -7 432 -8 443 -12 b 518 21 507 -1 511 4 l 826 817 b 940 953 875 942 940 910 b 892 972 940 968 919 972 z "},"W":{"ha":1414,"x_min":0,"x_max":0,"o":"m 1269 972 b 1226 947 1244 972 1226 967 b 1263 815 1226 911 1301 933 l 1018 78 l 761 817 b 808 953 722 928 808 913 b 757 972 808 968 786 972 l 633 972 b 568 947 588 972 568 967 b 667 817 568 913 626 935 l 678 785 l 444 81 l 190 817 b 238 953 151 928 238 913 b 186 972 238 968 215 972 l 63 972 b -3 947 17 972 -3 967 b 96 817 -3 913 56 935 l 381 8 b 431 -4 385 -6 407 -11 b 472 25 453 0 467 10 l 706 711 l 956 8 b 1003 -4 960 -6 982 -10 b 1046 25 1026 0 1040 10 l 1313 815 b 1424 953 1356 943 1424 910 b 1375 972 1424 967 1403 972 z "},"Ẃ":{"ha":1414,"x_min":0,"x_max":0,"o":"m 596 1065 b 819 1176 650 1044 799 1128 b 792 1247 832 1210 817 1238 b 678 1181 756 1260 726 1228 b 593 1089 626 1128 599 1097 b 596 1065 590 1083 583 1071 z m 1269 972 b 1226 947 1244 972 1226 967 b 1263 815 1226 911 1301 933 l 1018 78 l 761 817 b 808 953 722 928 808 913 b 757 972 808 968 786 972 l 633 972 b 568 947 588 972 568 967 b 667 817 568 913 626 935 l 678 785 l 444 81 l 190 817 b 238 953 151 928 238 913 b 186 972 238 968 215 972 l 63 972 b -3 947 17 972 -3 967 b 96 817 -3 913 56 935 l 381 8 b 431 -4 385 -6 407 -11 b 472 25 453 0 467 10 l 706 711 l 956 8 b 1003 -4 960 -6 982 -10 b 1046 25 1026 0 1040 10 l 1313 815 b 1424 953 1356 943 1424 910 b 1375 972 1424 967 1403 972 z "},"Ŵ":{"ha":1414,"x_min":0,"x_max":0,"o":"m 515 1047 b 676 1110 547 1043 640 1082 b 838 1047 713 1082 806 1043 b 850 1064 853 1049 853 1057 b 779 1142 847 1076 811 1108 b 675 1218 707 1213 706 1218 b 575 1142 647 1218 638 1206 b 501 1064 542 1110 506 1078 b 515 1047 500 1057 500 1049 z m 1269 972 b 1226 947 1244 972 1226 967 b 1263 815 1226 911 1301 933 l 1018 78 l 761 817 b 808 953 722 928 808 913 b 757 972 808 968 786 972 l 633 972 b 568 947 588 972 568 967 b 667 817 568 913 626 935 l 678 785 l 444 81 l 190 817 b 238 953 151 928 238 913 b 186 972 238 968 215 972 l 63 972 b -3 947 17 972 -3 967 b 96 817 -3 913 56 935 l 381 8 b 431 -4 385 -6 407 -11 b 472 25 453 0 467 10 l 706 711 l 956 8 b 1003 -4 960 -6 982 -10 b 1046 25 1026 0 1040 10 l 1313 815 b 1424 953 1356 943 1424 910 b 1375 972 1424 967 1403 972 z "},"Ẅ":{"ha":1414,"x_min":0,"x_max":0,"o":"m 599 1086 b 675 1154 636 1086 675 1115 b 617 1210 675 1186 650 1210 b 546 1133 578 1210 546 1171 b 599 1086 546 1104 568 1086 z m 782 1086 b 860 1154 819 1086 860 1115 b 801 1210 860 1186 835 1210 b 731 1133 763 1210 731 1171 b 782 1086 731 1104 753 1086 z m 1269 972 b 1226 947 1244 972 1226 967 b 1263 815 1226 911 1301 933 l 1018 78 l 761 817 b 808 953 722 928 808 913 b 757 972 808 968 786 972 l 633 972 b 568 947 588 972 568 967 b 667 817 568 913 626 935 l 678 785 l 444 81 l 190 817 b 238 953 151 928 238 913 b 186 972 238 968 215 972 l 63 972 b -3 947 17 972 -3 967 b 96 817 -3 913 56 935 l 381 8 b 431 -4 385 -6 407 -11 b 472 25 453 0 467 10 l 706 711 l 956 8 b 1003 -4 960 -6 982 -10 b 1046 25 1026 0 1040 10 l 1313 815 b 1424 953 1356 943 1424 910 b 1375 972 1424 967 1403 972 z "},"Ẁ":{"ha":1414,"x_min":0,"x_max":0,"o":"m 754 1065 b 756 1089 765 1071 760 1083 b 672 1181 751 1097 722 1128 b 558 1247 622 1228 594 1260 b 531 1176 533 1238 518 1210 b 754 1065 550 1128 699 1044 z m 1269 972 b 1226 947 1244 972 1226 967 b 1263 815 1226 911 1301 933 l 1018 78 l 761 817 b 808 953 722 928 808 913 b 757 972 808 968 786 972 l 633 972 b 568 947 588 972 568 967 b 667 817 568 913 626 935 l 678 785 l 444 81 l 190 817 b 238 953 151 928 238 913 b 186 972 238 968 215 972 l 63 972 b -3 947 17 972 -3 967 b 96 817 -3 913 56 935 l 381 8 b 431 -4 385 -6 407 -11 b 472 25 453 0 467 10 l 706 711 l 956 8 b 1003 -4 960 -6 982 -10 b 1046 25 1026 0 1040 10 l 1313 815 b 1424 953 1356 943 1424 910 b 1375 972 1424 967 1403 972 z "},"X":{"ha":953,"x_min":0,"x_max":0,"o":"m 771 846 b 900 953 839 939 900 910 b 851 972 900 967 879 972 l 754 972 b 713 947 729 972 713 967 b 715 844 713 911 776 931 l 493 536 l 275 826 b 304 953 206 917 304 913 b 253 972 304 968 282 972 l 101 972 b 36 947 54 972 36 967 b 167 826 36 913 93 924 l 419 489 l 158 128 b 31 19 92 33 31 63 b 79 0 31 6 50 0 l 175 0 b 218 25 200 0 218 6 b 215 126 218 61 153 42 l 447 453 l 678 146 b 649 19 747 56 649 61 b 700 0 649 4 671 0 l 851 0 b 917 25 899 0 917 6 b 786 146 917 61 860 49 l 519 500 z "},"Y":{"ha":886,"x_min":0,"x_max":0,"o":"m 742 972 b 699 947 715 972 699 967 b 706 843 699 913 761 932 l 475 482 l 240 824 b 272 953 175 918 272 913 b 221 972 272 968 250 972 l 69 972 b 4 947 22 972 4 967 b 133 825 4 913 63 925 l 408 431 l 408 182 b 331 21 408 29 331 63 b 394 0 331 4 353 0 l 504 0 b 568 21 549 0 568 4 b 493 182 568 63 493 29 l 493 426 l 761 843 b 886 953 822 940 886 910 b 838 972 886 968 865 972 z "},"Ý":{"ha":886,"x_min":0,"x_max":0,"o":"m 393 1065 b 617 1176 447 1044 596 1128 b 589 1247 629 1210 614 1238 b 475 1181 553 1260 524 1228 b 390 1089 424 1128 396 1097 b 393 1065 388 1083 381 1071 z m 742 972 b 699 947 715 972 699 967 b 706 843 699 913 761 932 l 475 482 l 240 824 b 272 953 175 918 272 913 b 221 972 272 968 250 972 l 69 972 b 4 947 22 972 4 967 b 133 825 4 913 63 925 l 408 431 l 408 182 b 331 21 408 29 331 63 b 394 0 331 4 353 0 l 504 0 b 568 21 549 0 568 4 b 493 182 568 63 493 29 l 493 426 l 761 843 b 886 953 822 940 886 910 b 838 972 886 968 865 972 z "},"Ŷ":{"ha":886,"x_min":0,"x_max":0,"o":"m 313 1047 b 474 1110 344 1043 438 1082 b 635 1047 510 1082 603 1043 b 647 1064 650 1049 650 1057 b 576 1142 644 1076 608 1108 b 472 1218 504 1213 503 1218 b 372 1142 444 1218 435 1206 b 299 1064 339 1110 303 1078 b 313 1047 297 1057 297 1049 z m 742 972 b 699 947 715 972 699 967 b 706 843 699 913 761 932 l 475 482 l 240 824 b 272 953 175 918 272 913 b 221 972 272 968 250 972 l 69 972 b 4 947 22 972 4 967 b 133 825 4 913 63 925 l 408 431 l 408 182 b 331 21 408 29 331 63 b 394 0 331 4 353 0 l 504 0 b 568 21 549 0 568 4 b 493 182 568 63 493 29 l 493 426 l 761 843 b 886 953 822 940 886 910 b 838 972 886 968 865 972 z "},"Ÿ":{"ha":886,"x_min":0,"x_max":0,"o":"m 363 1086 b 439 1154 400 1086 439 1115 b 381 1210 439 1186 414 1210 b 310 1133 342 1210 310 1171 b 363 1086 310 1104 332 1086 z m 546 1086 b 624 1154 583 1086 624 1115 b 565 1210 624 1186 599 1210 b 494 1133 526 1210 494 1171 b 546 1086 494 1104 517 1086 z m 742 972 b 699 947 715 972 699 967 b 706 843 699 913 761 932 l 475 482 l 240 824 b 272 953 175 918 272 913 b 221 972 272 968 250 972 l 69 972 b 4 947 22 972 4 967 b 133 825 4 913 63 925 l 408 431 l 408 182 b 331 21 408 29 331 63 b 394 0 331 4 353 0 l 504 0 b 568 21 549 0 568 4 b 493 182 568 63 493 29 l 493 426 l 761 843 b 886 953 822 940 886 910 b 838 972 886 968 865 972 z "},"Ỳ":{"ha":886,"x_min":0,"x_max":0,"o":"m 551 1065 b 553 1089 563 1071 557 1083 b 469 1181 549 1097 519 1128 b 356 1247 419 1228 392 1260 b 328 1176 331 1238 315 1210 b 551 1065 347 1128 496 1044 z m 742 972 b 699 947 715 972 699 967 b 706 843 699 913 761 932 l 475 482 l 240 824 b 272 953 175 918 272 913 b 221 972 272 968 250 972 l 69 972 b 4 947 22 972 4 967 b 133 825 4 913 63 925 l 408 431 l 408 182 b 331 21 408 29 331 63 b 394 0 331 4 353 0 l 504 0 b 568 21 549 0 568 4 b 493 182 568 63 493 29 l 493 426 l 761 843 b 886 953 822 940 886 910 b 838 972 886 968 865 972 z "},"Z":{"ha":878,"x_min":0,"x_max":0,"o":"m 801 229 b 750 182 778 233 769 218 b 549 47 708 93 650 47 l 178 46 l 806 925 b 781 972 825 951 814 972 l 204 972 b 113 933 126 972 122 965 b 78 782 100 896 85 849 b 92 743 74 761 74 747 b 142 790 114 739 124 754 b 344 925 183 879 242 925 l 701 926 l 74 47 b 99 0 56 21 67 0 l 689 0 b 781 39 765 0 771 7 b 815 190 793 76 807 125 b 801 229 818 211 819 226 z "},"Ź":{"ha":878,"x_min":0,"x_max":0,"o":"m 365 1065 b 589 1176 419 1044 568 1128 b 561 1247 601 1210 586 1238 b 447 1181 525 1260 496 1228 b 363 1089 396 1128 368 1097 b 365 1065 360 1083 353 1071 z m 801 229 b 750 182 778 233 769 218 b 549 47 708 93 650 47 l 178 46 l 806 925 b 781 972 825 951 814 972 l 204 972 b 113 933 126 972 122 965 b 78 782 100 896 85 849 b 92 743 74 761 74 747 b 142 790 114 739 124 754 b 344 925 183 879 242 925 l 701 926 l 74 47 b 99 0 56 21 67 0 l 689 0 b 781 39 765 0 771 7 b 815 190 793 76 807 125 b 801 229 818 211 819 226 z "},"Ž":{"ha":878,"x_min":0,"x_max":0,"o":"m 343 1121 b 443 1044 406 1058 415 1044 b 547 1122 474 1044 475 1050 b 618 1199 579 1154 615 1186 b 606 1217 621 1207 621 1215 b 444 1153 574 1219 481 1182 b 283 1217 408 1182 315 1219 b 269 1199 268 1215 268 1207 b 343 1121 274 1186 310 1154 z m 801 229 b 750 182 778 233 769 218 b 549 47 708 93 650 47 l 178 46 l 806 925 b 781 972 825 951 814 972 l 204 972 b 113 933 126 972 122 965 b 78 782 100 896 85 849 b 92 743 74 761 74 747 b 142 790 114 739 124 754 b 344 925 183 879 242 925 l 701 926 l 74 47 b 99 0 56 21 67 0 l 689 0 b 781 39 765 0 771 7 b 815 190 793 76 807 125 b 801 229 818 211 819 226 z "},"Ż":{"ha":878,"x_min":0,"x_max":0,"o":"m 401 1108 b 503 1188 443 1103 499 1151 b 457 1250 507 1214 488 1246 b 351 1167 411 1258 356 1210 b 401 1108 347 1132 372 1111 z m 801 229 b 750 182 778 233 769 218 b 549 47 708 93 650 47 l 178 46 l 806 925 b 781 972 825 951 814 972 l 204 972 b 113 933 126 972 122 965 b 78 782 100 896 85 849 b 92 743 74 761 74 747 b 142 790 114 739 124 754 b 344 925 183 879 242 925 l 701 926 l 74 47 b 99 0 56 21 67 0 l 689 0 b 781 39 765 0 771 7 b 815 190 793 76 807 125 b 801 229 818 211 819 226 z "},"Ģ":{"ha":1026,"x_min":0,"x_max":0,"o":"m 536 -12 b 897 169 708 -8 897 89 l 897 318 b 944 471 897 463 944 425 b 906 492 944 488 925 492 l 726 493 b 663 472 682 493 663 489 b 811 318 663 421 811 446 l 811 167 b 558 53 811 100 679 53 b 146 522 307 53 143 258 b 501 919 146 717 279 919 b 811 739 686 921 753 818 b 863 699 829 713 844 696 b 878 738 879 701 882 717 b 839 910 864 819 849 874 b 790 983 825 967 817 983 b 735 969 772 983 764 969 b 568 986 690 969 656 986 b 54 461 267 986 54 758 b 536 -12 54 200 228 -17 z m 510 -353 b 628 -164 542 -353 628 -282 b 551 -79 628 -103 592 -79 b 488 -146 524 -79 488 -103 b 544 -246 488 -200 544 -208 b 494 -337 544 -289 494 -324 b 510 -353 494 -346 499 -353 z "},"Ķ":{"ha":926,"x_min":0,"x_max":0,"o":"m 708 851 b 853 951 796 932 853 910 b 789 972 853 968 832 972 l 671 972 b 629 950 649 972 629 968 b 638 851 629 904 715 924 l 232 472 l 232 790 b 310 951 232 943 310 910 b 246 972 310 968 288 972 l 135 972 b 72 951 92 972 72 968 b 146 790 72 910 146 943 l 146 182 b 69 21 146 29 69 63 b 132 0 69 4 92 0 l 243 0 b 307 21 288 0 307 4 b 232 182 307 63 232 29 l 232 407 l 499 656 l 722 133 b 700 26 760 47 700 54 b 765 0 700 4 724 0 l 878 0 b 922 21 903 0 922 4 b 822 124 922 56 860 38 l 560 713 z m 489 -79 b 425 -146 461 -79 425 -103 b 482 -246 425 -200 482 -208 b 432 -337 482 -289 432 -324 b 447 -353 432 -346 436 -353 b 565 -164 479 -353 565 -282 b 489 -79 565 -103 529 -79 z "},"Ļ":{"ha":747,"x_min":0,"x_max":0,"o":"m 704 217 b 654 160 688 218 675 208 b 464 47 621 79 600 47 l 363 46 b 232 117 251 46 232 65 l 232 790 b 310 951 232 943 310 910 b 246 972 310 968 288 972 l 135 972 b 72 951 92 972 72 968 b 146 790 72 910 146 943 l 146 163 b 69 21 146 21 69 58 b 132 0 69 -1 92 0 l 589 0 b 699 42 681 0 690 15 b 719 179 710 81 715 118 b 704 217 721 197 719 214 z m 424 -79 b 360 -146 396 -79 360 -103 b 417 -246 360 -200 417 -208 b 367 -337 417 -289 367 -324 b 382 -353 367 -346 371 -353 b 500 -164 414 -353 500 -282 b 424 -79 500 -103 464 -79 z "},"Ņ":{"ha":1036,"x_min":0,"x_max":0,"o":"m 843 972 b 782 947 801 972 782 967 b 856 810 782 904 854 931 l 858 203 l 186 957 b 158 972 176 969 169 972 l 126 972 b 63 951 85 972 63 974 b 140 810 63 914 140 951 l 140 163 b 67 25 140 42 67 69 b 125 0 67 4 90 0 l 200 0 b 263 25 243 0 263 6 b 188 163 263 68 189 42 l 185 828 l 828 110 b 860 26 851 83 860 53 b 879 0 860 13 868 0 b 904 33 893 0 904 8 l 904 810 b 976 947 904 931 976 903 b 918 972 976 968 953 972 z m 514 -79 b 450 -146 486 -79 450 -103 b 507 -246 450 -200 507 -208 b 457 -337 507 -289 457 -324 b 472 -353 457 -346 461 -353 b 590 -164 504 -353 590 -282 b 514 -79 590 -103 554 -79 z "},"Ŗ":{"ha":879,"x_min":0,"x_max":0,"o":"m 593 404 b 803 669 725 446 803 528 b 357 972 803 826 668 972 l 132 972 b 69 951 92 972 69 974 b 146 810 69 914 146 951 l 146 182 b 69 21 146 29 69 63 b 132 0 69 4 92 0 l 243 0 b 307 21 288 0 307 4 b 232 182 307 63 232 29 l 232 360 b 378 393 232 414 269 407 b 533 322 481 381 503 375 l 636 133 b 613 26 681 51 613 54 b 682 0 613 4 638 0 l 797 0 b 840 21 821 0 840 4 b 739 128 840 56 786 39 z m 481 438 b 232 514 414 436 232 447 l 232 888 b 356 924 232 917 251 925 b 701 651 586 921 701 794 b 481 438 701 499 601 442 z m 424 -79 b 360 -146 396 -79 360 -103 b 417 -246 360 -200 417 -208 b 367 -337 417 -289 367 -324 b 382 -353 367 -346 371 -353 b 500 -164 414 -353 500 -282 b 424 -79 500 -103 464 -79 z "},"Ţ":{"ha":875,"x_min":0,"x_max":0,"o":"m 817 794 b 800 932 815 857 811 893 b 690 974 792 960 782 974 l 185 972 b 75 931 93 972 82 957 b 58 793 64 892 58 854 b 82 756 57 775 58 756 b 133 813 99 756 110 768 b 313 928 176 892 193 928 b 394 854 375 928 394 907 l 394 182 b 317 21 394 29 317 63 b 381 0 317 4 339 0 l 424 0 l 374 -93 b 390 -115 367 -106 376 -112 b 485 -193 439 -128 485 -147 b 418 -254 485 -226 464 -254 b 336 -229 379 -254 356 -240 b 319 -249 321 -219 308 -235 b 426 -290 335 -268 367 -290 b 550 -183 492 -290 550 -249 b 422 -76 550 -119 493 -89 l 460 0 l 492 0 b 554 21 535 0 554 4 b 481 182 554 63 481 29 l 481 856 b 563 929 481 908 500 929 b 742 814 682 929 699 893 b 793 757 765 769 775 757 b 817 794 817 757 818 776 z "},"Ș":{"ha":776,"x_min":0,"x_max":0,"o":"m 397 -14 b 732 265 579 -12 740 96 b 415 554 724 438 556 488 b 175 767 290 614 175 647 b 371 932 175 860 242 932 b 629 758 504 932 586 829 b 676 721 643 732 660 721 b 690 757 694 721 696 739 b 654 910 676 831 664 874 b 610 983 640 967 638 983 b 554 969 592 983 583 969 b 408 983 510 969 465 983 b 94 750 188 983 94 865 b 397 456 94 576 264 518 b 643 228 517 400 651 357 b 410 38 638 128 565 36 b 133 254 244 40 174 153 b 88 294 122 283 104 294 b 71 254 69 294 67 276 b 101 64 83 151 96 94 b 151 -12 111 7 125 -12 b 207 0 169 -12 179 0 b 397 -14 250 0 290 -14 z m 349 -353 b 467 -164 381 -353 467 -282 b 390 -79 467 -103 431 -79 b 326 -146 363 -79 326 -103 b 383 -246 326 -200 383 -208 b 333 -337 383 -289 333 -324 b 349 -353 333 -346 338 -353 z "},"Ț":{"ha":875,"x_min":0,"x_max":0,"o":"m 481 856 b 563 929 481 908 500 929 b 742 814 682 929 699 893 b 793 757 765 769 775 757 b 817 794 817 757 818 776 b 800 932 815 857 811 893 b 690 974 792 960 782 974 l 185 972 b 75 931 93 972 82 957 b 58 793 64 892 58 854 b 82 756 57 775 58 756 b 133 813 99 756 110 768 b 313 928 176 892 193 928 b 394 854 375 928 394 907 l 394 182 b 317 21 394 29 317 63 b 381 0 317 4 339 0 l 492 0 b 554 21 535 0 554 4 b 481 182 554 63 481 29 z m 386 -353 b 504 -164 418 -353 504 -282 b 428 -79 504 -103 468 -79 b 364 -146 400 -79 364 -103 b 421 -246 364 -200 421 -208 b 371 -337 421 -289 371 -324 b 386 -353 371 -346 375 -353 z "},"a":{"ha":739,"x_min":0,"x_max":0,"o":"m 693 72 b 618 147 668 74 633 69 l 556 475 b 331 679 532 599 469 679 b 81 581 210 679 114 622 b 108 553 64 557 82 538 b 310 614 172 589 221 614 b 483 403 442 614 453 529 b 308 425 426 418 379 425 b 35 203 157 425 35 336 b 308 -14 35 83 129 -14 b 538 100 388 -14 483 28 b 621 -10 546 35 553 -10 b 721 60 681 -10 721 35 b 693 72 721 75 708 72 z m 315 38 b 131 208 201 38 136 111 b 335 376 128 311 199 376 b 496 331 378 376 492 364 b 525 188 508 261 518 225 b 315 38 536 122 422 38 z "},"á":{"ha":739,"x_min":0,"x_max":0,"o":"m 268 751 b 489 856 324 732 471 807 b 461 922 500 886 485 913 b 344 861 426 933 397 906 b 256 774 293 814 260 785 b 268 751 253 768 251 757 z m 693 72 b 618 147 668 74 633 69 l 556 475 b 331 679 532 599 469 679 b 81 581 210 679 114 622 b 108 553 64 557 82 538 b 310 614 172 589 221 614 b 483 403 442 614 453 529 b 308 425 426 418 379 425 b 35 203 157 425 35 336 b 308 -14 35 83 129 -14 b 538 100 388 -14 483 28 b 621 -10 546 35 553 -10 b 721 60 681 -10 721 35 b 693 72 721 75 708 72 z m 315 38 b 131 208 201 38 136 111 b 335 376 128 311 199 376 b 496 331 378 376 492 364 b 525 188 508 261 518 225 b 315 38 536 122 422 38 z "},"ă":{"ha":739,"x_min":0,"x_max":0,"o":"m 340 747 b 497 888 436 747 492 818 b 482 914 499 904 492 914 b 467 900 476 914 474 910 b 340 826 439 856 400 826 b 217 900 281 826 243 857 b 200 914 211 910 206 914 b 185 888 189 914 183 904 b 340 747 190 819 235 747 z m 693 72 b 618 147 668 74 633 69 l 556 475 b 331 679 532 599 469 679 b 81 581 210 679 114 622 b 108 553 64 557 82 538 b 310 614 172 589 221 614 b 483 403 442 614 453 529 b 308 425 426 418 379 425 b 35 203 157 425 35 336 b 308 -14 35 83 129 -14 b 538 100 388 -14 483 28 b 621 -10 546 35 553 -10 b 721 60 681 -10 721 35 b 693 72 721 75 708 72 z m 315 38 b 131 208 201 38 136 111 b 335 376 128 311 199 376 b 496 331 378 376 492 364 b 525 188 508 261 518 225 b 315 38 536 122 422 38 z "},"â":{"ha":739,"x_min":0,"x_max":0,"o":"m 214 751 b 350 833 246 749 314 794 b 486 751 386 794 454 749 b 501 768 501 753 501 761 b 438 863 500 778 471 810 b 354 939 394 928 392 939 b 258 857 317 939 311 931 b 199 768 222 807 200 778 b 214 751 199 761 199 753 z m 693 72 b 618 147 668 74 633 69 l 556 475 b 331 679 532 599 469 679 b 81 581 210 679 114 622 b 108 553 64 557 82 538 b 310 614 172 589 221 614 b 483 403 442 614 453 529 b 308 425 426 418 379 425 b 35 203 157 425 35 336 b 308 -14 35 83 129 -14 b 538 100 388 -14 483 28 b 621 -10 546 35 553 -10 b 721 60 681 -10 721 35 b 693 72 721 75 708 72 z m 315 38 b 131 208 201 38 136 111 b 335 376 128 311 199 376 b 496 331 378 376 492 364 b 525 188 508 261 518 225 b 315 38 536 122 422 38 z "},"ä":{"ha":739,"x_min":0,"x_max":0,"o":"m 226 801 b 303 871 264 801 303 832 b 246 926 303 903 279 926 b 174 850 207 926 174 888 b 226 801 174 821 197 801 z m 411 801 b 488 871 449 801 488 832 b 431 926 488 903 463 926 b 358 850 390 926 358 888 b 411 801 358 821 382 801 z m 693 72 b 618 147 668 74 633 69 l 556 475 b 331 679 532 599 469 679 b 81 581 210 679 114 622 b 108 553 64 557 82 538 b 310 614 172 589 221 614 b 483 403 442 614 453 529 b 308 425 426 418 379 425 b 35 203 157 425 35 336 b 308 -14 35 83 129 -14 b 538 100 388 -14 483 28 b 621 -10 546 35 553 -10 b 721 60 681 -10 721 35 b 693 72 721 75 708 72 z m 315 38 b 131 208 201 38 136 111 b 335 376 128 311 199 376 b 496 331 378 376 492 364 b 525 188 508 261 518 225 b 315 38 536 122 422 38 z "},"à":{"ha":739,"x_min":0,"x_max":0,"o":"m 460 751 b 472 774 476 757 475 768 b 383 861 468 785 435 814 b 267 922 331 906 301 933 b 239 856 243 913 228 886 b 460 751 257 807 404 732 z m 693 72 b 618 147 668 74 633 69 l 556 475 b 331 679 532 599 469 679 b 81 581 210 679 114 622 b 108 553 64 557 82 538 b 310 614 172 589 221 614 b 483 403 442 614 453 529 b 308 425 426 418 379 425 b 35 203 157 425 35 336 b 308 -14 35 83 129 -14 b 538 100 388 -14 483 28 b 621 -10 546 35 553 -10 b 721 60 681 -10 721 35 b 693 72 721 75 708 72 z m 315 38 b 131 208 201 38 136 111 b 335 376 128 311 199 376 b 496 331 378 376 492 364 b 525 188 508 261 518 225 b 315 38 536 122 422 38 z "},"ā":{"ha":739,"x_min":0,"x_max":0,"o":"m 496 774 b 525 801 521 774 524 785 b 503 831 528 819 529 831 l 185 831 b 154 803 157 831 156 819 b 178 774 151 785 150 774 z m 693 72 b 618 147 668 74 633 69 l 556 475 b 331 679 532 599 469 679 b 81 581 210 679 114 622 b 108 553 64 557 82 538 b 310 614 172 589 221 614 b 483 403 442 614 453 529 b 308 425 426 418 379 425 b 35 203 157 425 35 336 b 308 -14 35 83 129 -14 b 538 100 388 -14 483 28 b 621 -10 546 35 553 -10 b 721 60 681 -10 721 35 b 693 72 721 75 708 72 z m 315 38 b 131 208 201 38 136 111 b 335 376 128 311 199 376 b 496 331 378 376 492 364 b 525 188 508 261 518 225 b 315 38 536 122 422 38 z "},"ą":{"ha":739,"x_min":0,"x_max":0,"o":"m 588 -6 b 621 -10 597 -8 608 -10 b 721 60 681 -10 721 35 b 693 72 721 75 708 72 b 618 147 668 74 633 69 l 556 475 b 331 679 532 599 469 679 b 81 581 210 679 114 622 b 108 553 64 557 82 538 b 310 614 172 589 221 614 b 483 403 442 614 453 529 b 308 425 426 418 379 425 b 35 203 157 425 35 336 b 308 -14 35 83 129 -14 b 538 100 388 -14 483 28 b 568 7 543 58 547 26 b 451 -144 501 -37 451 -83 b 583 -250 451 -215 515 -250 b 686 -218 611 -250 656 -243 b 669 -199 697 -208 692 -189 b 607 -211 653 -204 626 -211 b 522 -133 551 -211 522 -183 b 588 -6 522 -96 540 -53 z m 315 38 b 131 208 201 38 136 111 b 335 376 128 311 199 376 b 496 331 378 376 492 364 b 525 188 508 261 518 225 b 315 38 536 122 422 38 z "},"å":{"ha":739,"x_min":0,"x_max":0,"o":"m 346 747 b 474 868 417 747 474 793 b 351 985 474 939 421 985 b 222 864 279 985 222 938 b 346 747 222 793 275 747 z m 346 946 b 422 871 388 946 417 914 b 353 789 425 826 399 789 b 274 865 310 789 281 821 b 346 946 271 913 299 946 z m 693 72 b 618 147 668 74 633 69 l 556 475 b 331 679 532 599 469 679 b 81 581 210 679 114 622 b 108 553 64 557 82 538 b 310 614 172 589 221 614 b 483 403 442 614 453 529 b 308 425 426 418 379 425 b 35 203 157 425 35 336 b 308 -14 35 83 129 -14 b 538 100 388 -14 483 28 b 621 -10 546 35 553 -10 b 721 60 681 -10 721 35 b 693 72 721 75 708 72 z m 315 38 b 131 208 201 38 136 111 b 335 376 128 311 199 376 b 496 331 378 376 492 364 b 525 188 508 261 518 225 b 315 38 536 122 422 38 z "},"ã":{"ha":739,"x_min":0,"x_max":0,"o":"m 174 776 b 222 817 174 801 188 817 b 443 758 286 817 379 758 b 532 833 494 758 532 785 b 499 864 532 878 499 897 b 451 825 499 840 486 825 b 229 883 401 825 322 883 b 140 807 178 883 140 856 b 174 776 140 763 174 743 z m 693 72 b 618 147 668 74 633 69 l 556 475 b 331 679 532 599 469 679 b 81 581 210 679 114 622 b 108 553 64 557 82 538 b 310 614 172 589 221 614 b 483 403 442 614 453 529 b 308 425 426 418 379 425 b 35 203 157 425 35 336 b 308 -14 35 83 129 -14 b 538 100 388 -14 483 28 b 621 -10 546 35 553 -10 b 721 60 681 -10 721 35 b 693 72 721 75 708 72 z m 315 38 b 131 208 201 38 136 111 b 335 376 128 311 199 376 b 496 331 378 376 492 364 b 525 188 508 261 518 225 b 315 38 536 122 422 38 z "},"æ":{"ha":1213,"x_min":0,"x_max":0,"o":"m 1124 158 b 894 56 1074 103 992 56 b 640 263 751 56 664 174 b 1133 424 806 313 979 368 b 1167 481 1168 436 1172 456 b 890 681 1136 600 1033 681 b 611 542 768 681 672 626 b 382 679 583 622 510 679 b 132 581 258 679 164 622 b 158 553 113 554 132 538 b 357 614 224 589 274 614 b 547 382 488 614 551 551 b 318 428 460 422 357 428 b 35 201 151 428 35 335 b 294 -14 35 88 124 -14 b 579 151 415 -14 524 44 b 863 -14 631 53 732 -14 b 1161 140 1033 -14 1132 76 b 1124 158 1175 171 1144 181 z m 858 632 b 1039 475 940 629 1031 564 b 1017 433 1040 457 1038 442 b 638 307 900 392 772 350 b 631 389 632 331 631 351 b 858 632 631 499 707 635 z m 542 203 b 328 47 540 142 439 47 b 138 210 206 47 140 113 b 346 375 132 311 217 375 b 542 313 443 375 542 340 z "},"b":{"ha":842,"x_min":0,"x_max":0,"o":"m 472 681 b 224 546 364 681 269 617 l 224 771 l 225 963 b 200 986 225 985 215 988 b 103 950 181 985 165 981 b 64 918 69 935 64 929 b 135 771 64 875 135 908 l 135 124 b 128 26 135 94 135 61 b 144 -3 125 11 131 -3 b 247 38 183 -3 204 38 b 471 -14 292 38 331 -14 b 789 354 667 -14 789 174 b 472 681 789 546 660 681 z m 474 32 b 225 278 335 32 225 161 l 225 399 b 444 614 226 453 282 614 b 697 313 569 614 697 510 b 474 32 697 121 606 32 z "},"":{"ha":842,"x_min":0,"x_max":0,"o":"m 472 681 b 224 546 364 681 269 617 l 224 771 l 225 963 b 200 986 225 985 215 988 b 103 950 181 985 165 981 b 64 918 69 935 64 929 b 135 771 64 875 135 908 l 135 124 b 128 26 135 94 135 61 b 144 -3 125 11 131 -3 b 247 38 183 -3 204 38 b 471 -14 292 38 331 -14 b 789 354 667 -14 789 174 b 472 681 789 546 660 681 z m 474 32 b 225 278 335 32 225 161 l 225 399 b 444 614 226 453 282 614 b 697 313 569 614 697 510 b 474 32 697 121 606 32 z "},"c":{"ha":703,"x_min":0,"x_max":0,"o":"m 367 -14 b 657 143 540 -14 628 79 b 619 161 671 174 640 183 b 403 54 569 104 500 54 b 136 365 246 54 136 175 b 361 629 136 515 219 629 b 550 454 475 626 524 551 b 607 396 560 424 572 396 b 657 457 639 396 657 421 b 394 679 657 561 567 679 b 50 310 197 679 50 517 b 367 -14 50 125 182 -14 z "},"ć":{"ha":703,"x_min":0,"x_max":0,"o":"m 338 768 b 558 872 393 749 540 824 b 531 939 569 903 554 929 b 414 878 496 950 467 922 b 325 790 363 831 329 801 b 338 768 322 785 321 774 z m 367 -14 b 657 143 540 -14 628 79 b 619 161 671 174 640 183 b 403 54 569 104 500 54 b 136 365 246 54 136 175 b 361 629 136 515 219 629 b 550 454 475 626 524 551 b 607 396 560 424 572 396 b 657 457 639 396 657 421 b 394 679 657 561 567 679 b 50 310 197 679 50 517 b 367 -14 50 125 182 -14 z "},"č":{"ha":703,"x_min":0,"x_max":0,"o":"m 283 965 b 268 947 268 964 268 956 b 328 860 269 939 292 910 b 424 778 381 786 386 778 b 507 854 461 778 464 788 b 571 947 540 907 569 939 b 556 965 571 956 571 964 b 419 883 524 968 456 921 b 283 965 383 921 315 968 z m 367 -14 b 657 143 540 -14 628 79 b 619 161 671 174 640 183 b 403 54 569 104 500 54 b 136 365 246 54 136 175 b 361 629 136 515 219 629 b 550 454 475 626 524 551 b 607 396 560 424 572 396 b 657 457 639 396 657 421 b 394 679 657 561 567 679 b 50 310 197 679 50 517 b 367 -14 50 125 182 -14 z "},"ç":{"ha":703,"x_min":0,"x_max":0,"o":"m 619 161 b 403 54 569 104 500 54 b 136 365 246 54 136 175 b 361 629 136 515 219 629 b 550 454 475 626 524 551 b 607 396 560 424 572 396 b 657 457 639 396 657 421 b 394 679 657 561 567 679 b 50 310 197 679 50 517 b 354 -14 50 129 176 -7 l 311 -93 b 328 -115 304 -106 314 -112 b 422 -193 376 -128 422 -147 b 356 -254 422 -226 401 -254 b 274 -229 317 -254 293 -240 b 257 -249 258 -219 246 -235 b 364 -290 272 -268 304 -290 b 488 -183 429 -290 488 -249 b 360 -76 488 -119 431 -89 l 390 -14 b 657 143 549 -6 629 82 b 619 161 671 174 640 183 z "},"ċ":{"ha":703,"x_min":0,"x_max":0,"o":"m 350 788 b 451 867 392 782 447 831 b 406 929 456 893 436 925 b 300 846 360 938 304 889 b 350 788 296 811 321 790 z m 367 -14 b 657 143 540 -14 628 79 b 619 161 671 174 640 183 b 403 54 569 104 500 54 b 136 365 246 54 136 175 b 361 629 136 515 219 629 b 550 454 475 626 524 551 b 607 396 560 424 572 396 b 657 457 639 396 657 421 b 394 679 657 561 567 679 b 50 310 197 679 50 517 b 367 -14 50 125 182 -14 z "},"d":{"ha":803,"x_min":0,"x_max":0,"o":"m 704 963 b 679 986 704 985 694 988 b 582 950 661 985 646 981 b 544 918 549 935 544 929 b 615 771 544 875 614 908 l 614 586 b 392 681 556 657 465 681 b 50 314 200 681 50 517 b 360 -14 50 136 165 -15 b 614 108 465 -12 563 33 l 615 51 b 656 -15 615 11 625 -15 b 756 21 685 -15 725 3 b 786 54 775 32 786 44 b 701 165 786 94 701 58 l 703 771 z m 386 54 b 139 367 278 54 139 147 b 357 624 139 511 221 624 b 561 504 447 624 514 581 b 613 257 613 421 613 303 b 386 54 613 179 531 54 z "},"ď":{"ha":803,"x_min":0,"x_max":0,"o":"m 656 -15 b 756 21 685 -15 725 3 b 786 54 775 32 786 44 b 701 165 786 94 701 58 l 703 771 l 704 963 b 679 986 704 985 694 988 b 582 950 661 985 646 981 b 544 918 549 935 544 929 b 615 771 544 875 614 908 l 614 586 b 392 681 556 657 465 681 b 50 314 200 681 50 517 b 360 -14 50 136 165 -15 b 614 108 465 -12 563 33 l 615 51 b 656 -15 615 11 625 -15 z m 842 685 b 938 917 875 685 938 876 b 894 969 938 958 915 969 b 843 908 868 969 844 950 b 826 704 843 890 829 749 b 842 685 825 694 831 685 z m 386 54 b 139 367 278 54 139 147 b 357 624 139 511 221 624 b 561 504 447 624 514 581 b 613 257 613 421 613 303 b 386 54 613 179 531 54 z "},"đ":{"ha":803,"x_min":0,"x_max":0,"o":"m 754 744 b 775 767 771 744 775 753 b 754 788 775 781 771 788 l 703 788 l 704 963 b 679 986 704 985 694 988 b 582 950 661 985 646 981 b 544 918 549 935 544 929 b 615 788 544 876 608 906 l 521 788 b 500 767 504 788 500 781 b 521 744 500 753 504 744 l 615 744 l 614 586 b 392 681 556 657 465 681 b 50 314 200 681 50 517 b 360 -14 50 136 165 -15 b 614 108 465 -12 563 33 l 615 51 b 656 -15 615 11 625 -15 b 756 21 685 -15 725 3 b 786 54 775 32 786 44 b 701 165 786 94 701 58 l 703 744 z m 386 54 b 139 367 278 54 139 147 b 357 624 139 511 221 624 b 561 504 447 624 514 581 b 613 257 613 421 613 303 b 386 54 613 179 531 54 z "},"ð":{"ha":781,"x_min":0,"x_max":0,"o":"m 489 915 b 497 947 503 922 503 933 b 474 957 494 960 488 964 l 404 917 b 206 975 340 953 272 974 b 161 954 174 975 161 968 b 192 936 161 939 174 940 b 331 874 242 921 289 899 l 271 839 b 261 810 257 832 256 824 b 286 797 265 797 272 790 l 371 846 b 567 617 468 776 535 686 b 381 678 506 661 453 678 b 50 333 194 679 50 521 b 374 -14 50 131 185 -14 b 728 374 586 -14 725 139 b 446 890 729 574 606 779 z m 417 43 b 136 365 250 43 136 203 b 365 628 136 510 228 628 b 647 304 528 628 647 465 b 417 43 647 161 556 43 z "},"e":{"ha":721,"x_min":0,"x_max":0,"o":"m 633 158 b 403 56 583 103 500 56 b 149 263 260 56 172 174 b 642 424 314 313 488 368 b 675 481 676 436 681 456 b 399 681 644 600 542 681 b 50 308 186 681 50 515 b 371 -14 50 129 179 -14 b 669 140 542 -14 640 76 b 633 158 683 171 653 181 z m 367 632 b 547 475 449 629 539 564 b 525 433 549 457 546 442 b 146 307 408 392 281 350 b 140 389 140 331 140 351 b 367 632 140 499 215 635 z "},"é":{"ha":721,"x_min":0,"x_max":0,"o":"m 282 751 b 503 856 338 732 485 807 b 475 922 514 886 499 913 b 358 861 440 933 411 906 b 269 774 307 814 274 785 b 282 751 267 768 265 757 z m 633 158 b 403 56 583 103 500 56 b 149 263 260 56 172 174 b 642 424 314 313 488 368 b 675 481 676 436 681 456 b 399 681 644 600 542 681 b 50 308 186 681 50 515 b 371 -14 50 129 179 -14 b 669 140 542 -14 640 76 b 633 158 683 171 653 181 z m 367 632 b 547 475 449 629 539 564 b 525 433 549 457 546 442 b 146 307 408 392 281 350 b 140 389 140 331 140 351 b 367 632 140 499 215 635 z "},"ě":{"ha":721,"x_min":0,"x_max":0,"o":"m 368 761 b 451 838 406 761 408 771 b 515 931 485 890 514 922 b 500 949 515 939 515 947 b 364 867 468 951 400 904 b 228 949 328 904 260 951 b 213 931 213 947 213 939 b 272 843 214 922 236 893 b 368 761 325 769 331 761 z m 633 158 b 403 56 583 103 500 56 b 149 263 260 56 172 174 b 642 424 314 313 488 368 b 675 481 676 436 681 456 b 399 681 644 600 542 681 b 50 308 186 681 50 515 b 371 -14 50 129 179 -14 b 669 140 542 -14 640 76 b 633 158 683 171 653 181 z m 367 632 b 547 475 449 629 539 564 b 525 433 549 457 546 442 b 146 307 408 392 281 350 b 140 389 140 331 140 351 b 367 632 140 499 215 635 z "},"ê":{"ha":721,"x_min":0,"x_max":0,"o":"m 228 751 b 364 833 260 749 328 794 b 500 751 400 794 468 749 b 515 768 515 753 515 761 b 451 863 514 778 485 810 b 368 939 408 928 406 939 b 272 857 331 939 325 931 b 213 768 236 807 214 778 b 228 751 213 761 213 753 z m 633 158 b 403 56 583 103 500 56 b 149 263 260 56 172 174 b 642 424 314 313 488 368 b 675 481 676 436 681 456 b 399 681 644 600 542 681 b 50 308 186 681 50 515 b 371 -14 50 129 179 -14 b 669 140 542 -14 640 76 b 633 158 683 171 653 181 z m 367 632 b 547 475 449 629 539 564 b 525 433 549 457 546 442 b 146 307 408 392 281 350 b 140 389 140 331 140 351 b 367 632 140 499 215 635 z "},"ë":{"ha":721,"x_min":0,"x_max":0,"o":"m 251 801 b 328 871 289 801 328 832 b 271 926 328 903 304 926 b 199 850 232 926 199 888 b 251 801 199 821 222 801 z m 436 801 b 513 871 474 801 513 832 b 456 926 513 903 488 926 b 383 850 415 926 383 888 b 436 801 383 821 407 801 z m 633 158 b 403 56 583 103 500 56 b 149 263 260 56 172 174 b 642 424 314 313 488 368 b 675 481 676 436 681 456 b 399 681 644 600 542 681 b 50 308 186 681 50 515 b 371 -14 50 129 179 -14 b 669 140 542 -14 640 76 b 633 158 683 171 653 181 z m 367 632 b 547 475 449 629 539 564 b 525 433 549 457 546 442 b 146 307 408 392 281 350 b 140 389 140 331 140 351 b 367 632 140 499 215 635 z "},"ė":{"ha":721,"x_min":0,"x_max":0,"o":"m 336 789 b 438 868 378 783 433 832 b 392 931 442 894 422 926 b 286 847 346 939 290 890 b 336 789 282 813 307 792 z m 633 158 b 403 56 583 103 500 56 b 149 263 260 56 172 174 b 642 424 314 313 488 368 b 675 481 676 436 681 456 b 399 681 644 600 542 681 b 50 308 186 681 50 515 b 371 -14 50 129 179 -14 b 669 140 542 -14 640 76 b 633 158 683 171 653 181 z m 367 632 b 547 475 449 629 539 564 b 525 433 549 457 546 442 b 146 307 408 392 281 350 b 140 389 140 331 140 351 b 367 632 140 499 215 635 z "},"è":{"ha":721,"x_min":0,"x_max":0,"o":"m 475 751 b 488 774 492 757 490 768 b 399 861 483 785 450 814 b 282 922 346 906 317 933 b 254 856 258 913 243 886 b 475 751 272 807 419 732 z m 633 158 b 403 56 583 103 500 56 b 149 263 260 56 172 174 b 642 424 314 313 488 368 b 675 481 676 436 681 456 b 399 681 644 600 542 681 b 50 308 186 681 50 515 b 371 -14 50 129 179 -14 b 669 140 542 -14 640 76 b 633 158 683 171 653 181 z m 367 632 b 547 475 449 629 539 564 b 525 433 549 457 546 442 b 146 307 408 392 281 350 b 140 389 140 331 140 351 b 367 632 140 499 215 635 z "},"ē":{"ha":721,"x_min":0,"x_max":0,"o":"m 511 774 b 540 801 536 774 539 785 b 518 831 543 819 544 831 l 200 831 b 169 803 172 831 171 819 b 193 774 167 785 165 774 z m 633 158 b 403 56 583 103 500 56 b 149 263 260 56 172 174 b 642 424 314 313 488 368 b 675 481 676 436 681 456 b 399 681 644 600 542 681 b 50 308 186 681 50 515 b 371 -14 50 129 179 -14 b 669 140 542 -14 640 76 b 633 158 683 171 653 181 z m 367 632 b 547 475 449 629 539 564 b 525 433 549 457 546 442 b 146 307 408 392 281 350 b 140 389 140 331 140 351 b 367 632 140 499 215 635 z "},"ę":{"ha":721,"x_min":0,"x_max":0,"o":"m 633 158 b 403 56 583 103 500 56 b 149 263 260 56 172 174 b 642 424 314 313 488 368 b 675 481 676 436 681 456 b 399 681 644 600 542 681 b 50 308 186 681 50 515 b 371 -14 50 129 179 -14 b 482 0 413 -14 449 -8 b 426 -104 449 -31 426 -64 b 558 -210 426 -175 490 -210 b 661 -178 586 -210 631 -203 b 644 -158 672 -168 667 -149 b 582 -171 628 -164 601 -171 b 497 -93 526 -171 497 -143 b 558 31 497 -57 514 -15 b 669 140 617 63 653 106 b 633 158 683 171 653 181 z m 367 632 b 547 475 449 629 539 564 b 525 433 549 457 546 442 b 146 307 408 392 281 350 b 140 389 140 331 140 351 b 367 632 140 499 215 635 z "},"f":{"ha":483,"x_min":0,"x_max":0,"o":"m 363 986 b 156 667 232 986 156 910 l 113 667 b 75 644 93 667 79 665 b 115 619 71 619 94 621 l 156 618 l 156 175 b 89 22 156 38 89 57 b 139 0 89 4 111 0 l 281 0 b 331 22 313 0 331 6 b 240 175 331 65 240 31 l 240 615 l 413 611 b 461 640 432 610 454 611 b 415 667 467 669 438 667 l 240 667 b 219 782 224 667 219 744 b 321 929 219 886 267 929 b 413 831 374 929 394 900 b 463 789 418 804 436 789 b 517 850 497 789 517 821 b 363 986 517 913 471 986 z "},"g":{"ha":747,"x_min":0,"x_max":0,"o":"m 526 81 b 343 74 485 81 418 74 b 154 169 254 74 154 92 b 197 232 154 197 178 221 b 326 206 232 215 275 206 b 629 465 513 206 629 317 b 546 628 629 524 601 585 b 651 738 604 644 651 689 b 607 783 651 767 628 783 b 567 754 590 783 579 769 b 474 675 542 710 506 675 b 379 681 444 675 429 681 l 378 681 b 68 425 207 682 68 576 b 161 251 68 358 99 293 b 51 138 76 222 51 167 b 138 17 51 75 97 38 b 43 -117 69 -15 43 -74 b 351 -294 43 -243 190 -294 b 738 -69 613 -294 738 -197 b 526 81 738 11 668 81 z m 347 636 b 532 436 467 636 531 547 b 350 251 532 338 465 251 b 160 451 239 251 161 339 b 347 636 160 565 243 636 z m 382 -251 b 142 -111 240 -251 142 -203 b 276 -6 142 -44 211 -7 b 479 1 368 -6 436 -3 b 642 -103 615 11 642 -56 b 382 -251 642 -206 519 -251 z "},"ğ":{"ha":747,"x_min":0,"x_max":0,"o":"m 369 747 b 526 888 465 747 521 818 b 511 914 528 904 521 914 b 496 900 506 914 503 910 b 369 826 468 856 429 826 b 246 900 310 826 272 857 b 229 914 240 910 235 914 b 214 888 218 914 213 904 b 369 747 219 819 264 747 z m 526 81 b 343 74 485 81 418 74 b 154 169 254 74 154 92 b 197 232 154 197 178 221 b 326 206 232 215 275 206 b 629 465 513 206 629 317 b 546 628 629 524 601 585 b 651 738 604 644 651 689 b 607 783 651 767 628 783 b 567 754 590 783 579 769 b 474 675 542 710 506 675 b 379 681 444 675 429 681 l 378 681 b 68 425 207 682 68 576 b 161 251 68 358 99 293 b 51 138 76 222 51 167 b 138 17 51 75 97 38 b 43 -117 69 -15 43 -74 b 351 -294 43 -243 190 -294 b 738 -69 613 -294 738 -197 b 526 81 738 11 668 81 z m 347 636 b 532 436 467 636 531 547 b 350 251 532 338 465 251 b 160 451 239 251 161 339 b 347 636 160 565 243 636 z m 382 -251 b 142 -111 240 -251 142 -203 b 276 -6 142 -44 211 -7 b 479 1 368 -6 436 -3 b 642 -103 615 11 642 -56 b 382 -251 642 -206 519 -251 z "},"ġ":{"ha":747,"x_min":0,"x_max":0,"o":"m 343 803 b 444 882 385 797 440 846 b 399 944 449 908 429 940 b 293 861 353 953 297 904 b 343 803 289 826 314 806 z m 526 81 b 343 74 485 81 418 74 b 154 169 254 74 154 92 b 197 232 154 197 178 221 b 326 206 232 215 275 206 b 629 465 513 206 629 317 b 546 628 629 524 601 585 b 651 738 604 644 651 689 b 607 783 651 767 628 783 b 567 754 590 783 579 769 b 474 675 542 710 506 675 b 379 681 444 675 429 681 l 378 681 b 68 425 207 682 68 576 b 161 251 68 358 99 293 b 51 138 76 222 51 167 b 138 17 51 75 97 38 b 43 -117 69 -15 43 -74 b 351 -294 43 -243 190 -294 b 738 -69 613 -294 738 -197 b 526 81 738 11 668 81 z m 347 636 b 532 436 467 636 531 547 b 350 251 532 338 465 251 b 160 451 239 251 161 339 b 347 636 160 565 243 636 z m 382 -251 b 142 -111 240 -251 142 -203 b 276 -6 142 -44 211 -7 b 479 1 368 -6 436 -3 b 642 -103 615 11 642 -56 b 382 -251 642 -206 519 -251 z "},"h":{"ha":853,"x_min":0,"x_max":0,"o":"m 719 386 b 476 681 682 618 601 681 b 229 528 386 681 289 629 l 229 771 l 231 963 b 207 986 231 985 221 988 b 108 950 188 985 172 981 b 71 918 75 935 71 929 b 142 771 71 875 142 908 l 142 176 b 75 22 142 42 75 61 b 125 0 75 4 97 0 l 242 0 b 293 22 274 0 293 6 b 229 176 293 61 229 42 l 229 328 b 446 618 229 528 344 615 b 635 374 593 621 614 497 l 672 136 b 614 22 686 47 614 58 b 664 0 614 4 636 0 l 783 0 b 833 22 815 0 833 6 b 760 138 833 58 774 49 z "},"ħ":{"ha":853,"x_min":0,"x_max":0,"o":"m 719 386 b 476 681 682 618 601 681 b 229 528 386 681 289 629 l 229 742 l 319 742 b 340 764 336 742 340 750 b 319 785 340 778 336 785 l 229 785 l 231 963 b 207 986 231 985 221 988 b 108 950 188 985 172 981 b 71 918 75 935 71 929 b 142 785 71 876 136 906 l 86 785 b 65 764 69 785 65 778 b 86 742 65 750 69 742 l 142 742 l 142 176 b 75 22 142 42 75 61 b 125 0 75 4 97 0 l 242 0 b 293 22 274 0 293 6 b 229 176 293 61 229 42 l 229 328 b 446 618 229 528 344 615 b 635 374 593 621 614 497 l 672 136 b 614 22 686 47 614 58 b 664 0 614 4 636 0 l 783 0 b 833 22 815 0 833 6 b 760 138 833 58 774 49 z "},"i":{"ha":383,"x_min":0,"x_max":0,"o":"m 143 803 b 244 882 185 797 240 846 b 199 944 249 908 229 940 b 93 861 153 953 97 904 b 143 803 89 826 114 806 z m 153 176 b 86 22 153 42 86 61 b 136 0 86 4 108 0 l 253 0 b 303 22 285 0 303 6 b 240 176 303 61 240 42 l 240 465 l 242 657 b 217 681 242 679 232 682 b 119 644 199 679 183 675 b 82 613 86 629 82 624 b 153 465 82 569 153 603 z "},"ı":{"ha":383,"x_min":0,"x_max":0,"o":"m 153 176 b 86 22 153 42 86 61 b 136 0 86 4 108 0 l 253 0 b 303 22 285 0 303 6 b 240 176 303 61 240 42 l 240 465 l 242 657 b 217 681 242 679 232 682 b 119 644 199 679 183 675 b 82 613 86 629 82 624 b 153 465 82 569 153 603 z "},"í":{"ha":383,"x_min":0,"x_max":0,"o":"m 97 751 b 318 856 153 732 300 807 b 290 922 329 886 314 913 b 174 861 256 933 226 906 b 85 774 122 814 89 785 b 97 751 82 768 81 757 z m 153 176 b 86 22 153 42 86 61 b 136 0 86 4 108 0 l 253 0 b 303 22 285 0 303 6 b 240 176 303 61 240 42 l 240 465 l 242 657 b 217 681 242 679 232 682 b 119 644 199 679 183 675 b 82 613 86 629 82 624 b 153 465 82 569 153 603 z "},"î":{"ha":383,"x_min":0,"x_max":0,"o":"m 43 751 b 179 833 75 749 143 794 b 315 751 215 794 283 749 b 331 768 331 753 331 761 b 267 863 329 778 300 810 b 183 939 224 928 221 939 b 88 857 146 939 140 931 b 28 768 51 807 29 778 b 43 751 28 761 28 753 z m 153 176 b 86 22 153 42 86 61 b 136 0 86 4 108 0 l 253 0 b 303 22 285 0 303 6 b 240 176 303 61 240 42 l 240 465 l 242 657 b 217 681 242 679 232 682 b 119 644 199 679 183 675 b 82 613 86 629 82 624 b 153 465 82 569 153 603 z "},"ï":{"ha":383,"x_min":0,"x_max":0,"o":"m 67 801 b 143 871 104 801 143 832 b 86 926 143 903 119 926 b 14 850 47 926 14 888 b 67 801 14 821 38 801 z m 251 801 b 328 871 289 801 328 832 b 271 926 328 903 303 926 b 199 850 231 926 199 888 b 251 801 199 821 222 801 z m 153 176 b 86 22 153 42 86 61 b 136 0 86 4 108 0 l 253 0 b 303 22 285 0 303 6 b 240 176 303 61 240 42 l 240 465 l 242 657 b 217 681 242 679 232 682 b 119 644 199 679 183 675 b 82 613 86 629 82 624 b 153 465 82 569 153 603 z "},"ì":{"ha":383,"x_min":0,"x_max":0,"o":"m 290 751 b 303 774 307 757 306 768 b 214 861 299 785 265 814 b 97 922 161 906 132 933 b 69 856 74 913 58 886 b 290 751 88 807 235 732 z m 153 176 b 86 22 153 42 86 61 b 136 0 86 4 108 0 l 253 0 b 303 22 285 0 303 6 b 240 176 303 61 240 42 l 240 465 l 242 657 b 217 681 242 679 232 682 b 119 644 199 679 183 675 b 82 613 86 629 82 624 b 153 465 82 569 153 603 z "},"ī":{"ha":383,"x_min":0,"x_max":0,"o":"m 326 774 b 356 801 351 774 354 785 b 333 831 358 819 360 831 l 15 831 b -15 803 -12 831 -14 819 b 8 774 -18 785 -19 774 z m 153 176 b 86 22 153 42 86 61 b 136 0 86 4 108 0 l 253 0 b 303 22 285 0 303 6 b 240 176 303 61 240 42 l 240 465 l 242 657 b 217 681 242 679 232 682 b 119 644 199 679 183 675 b 82 613 86 629 82 624 b 153 465 82 569 153 603 z "},"į":{"ha":383,"x_min":0,"x_max":0,"o":"m 143 803 b 244 882 185 797 240 846 b 199 944 249 908 229 940 b 93 861 153 953 97 904 b 143 803 89 826 114 806 z m 253 0 b 303 22 285 0 303 6 b 240 176 303 61 240 42 l 240 465 l 242 657 b 217 681 242 679 232 682 b 119 644 199 679 183 675 b 82 613 86 629 82 624 b 153 465 82 569 153 603 l 153 176 b 86 22 153 42 86 61 b 136 0 86 4 108 0 l 165 0 b 39 -158 94 -47 39 -94 b 171 -264 39 -229 103 -264 b 274 -232 199 -264 243 -257 b 257 -212 285 -222 279 -203 b 194 -225 240 -218 214 -225 b 110 -147 139 -225 110 -197 b 196 0 110 -106 133 -54 z "},"j":{"ha":367,"x_min":0,"x_max":0,"o":"m 183 803 b 285 882 225 797 281 846 b 239 944 289 908 269 940 b 133 861 193 953 138 904 b 183 803 129 826 154 806 z m 174 -51 b 61 -237 175 -164 174 -237 b 135 -294 11 -237 26 -294 b 263 -117 226 -294 263 -221 l 263 -51 l 264 467 l 265 658 b 240 682 265 681 256 683 b 143 646 222 681 207 675 b 106 614 110 631 106 625 b 176 465 106 571 175 603 z "},"ȷ":{"ha":367,"x_min":0,"x_max":0,"o":"m 174 -51 b 61 -237 175 -164 174 -237 b 135 -294 11 -237 26 -294 b 263 -117 226 -294 263 -221 l 263 -51 l 264 467 l 265 658 b 240 682 265 681 256 683 b 143 646 222 681 207 675 b 106 614 110 631 106 625 b 176 465 106 571 175 603 z "},"k":{"ha":799,"x_min":0,"x_max":0,"o":"m 589 560 b 694 647 667 643 694 619 b 654 667 694 658 683 667 l 538 667 b 507 646 510 667 507 654 b 536 575 507 625 569 611 l 229 247 l 229 771 l 231 963 b 207 986 231 985 221 988 b 108 950 188 985 172 981 b 71 918 75 935 71 929 b 142 771 71 875 142 908 l 142 176 b 75 22 142 42 75 61 b 125 0 75 4 97 0 l 242 0 b 293 22 274 0 293 6 b 229 175 293 61 229 42 l 449 410 l 579 113 b 538 21 601 63 538 57 b 588 0 538 4 547 0 l 699 0 b 757 22 746 0 757 6 b 665 138 757 53 701 53 l 515 481 z "},"l":{"ha":364,"x_min":0,"x_max":0,"o":"m 142 176 b 75 22 142 42 75 61 b 125 0 75 4 97 0 l 242 0 b 293 22 274 0 293 6 b 229 176 293 61 229 42 l 229 771 l 231 963 b 207 986 231 985 221 988 b 108 950 188 985 172 981 b 71 918 75 935 71 929 b 142 771 71 875 142 908 z "},"ĺ":{"ha":364,"x_min":0,"x_max":0,"o":"m 97 1057 b 318 1161 153 1038 300 1113 b 290 1228 329 1192 314 1218 b 174 1167 256 1239 226 1211 b 85 1079 122 1119 89 1090 b 97 1057 82 1074 81 1063 z m 142 176 b 75 22 142 42 75 61 b 125 0 75 4 97 0 l 242 0 b 293 22 274 0 293 6 b 229 176 293 61 229 42 l 229 771 l 231 963 b 207 986 231 985 221 988 b 108 950 188 985 172 981 b 71 918 75 935 71 929 b 142 771 71 875 142 908 z "},"ľ":{"ha":364,"x_min":0,"x_max":0,"o":"m 142 176 b 75 22 142 42 75 61 b 125 0 75 4 97 0 l 242 0 b 293 22 274 0 293 6 b 229 176 293 61 229 42 l 229 771 l 231 963 b 207 986 231 985 221 988 b 108 950 188 985 172 981 b 71 918 75 935 71 929 b 142 771 71 875 142 908 z m 350 699 b 446 931 383 699 446 890 b 403 983 446 972 424 983 b 351 922 376 983 353 964 b 335 718 351 904 338 763 b 350 699 333 708 339 699 z "},"ł":{"ha":364,"x_min":0,"x_max":0,"o":"m 335 565 b 307 571 328 576 321 581 l 229 526 l 229 771 l 231 963 b 207 986 231 985 221 988 b 108 950 188 985 172 981 b 71 918 75 935 71 929 b 142 771 71 875 142 908 l 142 476 l 18 406 b 10 379 3 397 4 389 b 39 369 17 367 24 361 l 142 429 l 142 176 b 75 22 142 42 75 61 b 125 0 75 4 97 0 l 242 0 b 293 22 274 0 293 6 b 229 176 293 61 229 42 l 229 479 l 326 536 b 335 565 340 544 340 554 z "},"m":{"ha":1335,"x_min":0,"x_max":0,"o":"m 1201 386 b 965 681 1164 618 1090 681 b 706 506 860 681 761 622 b 482 681 675 626 593 681 b 229 517 381 681 285 626 l 231 650 b 206 674 231 672 221 675 b 121 644 188 672 164 664 b 83 610 88 629 83 621 b 107 582 83 599 90 592 b 149 467 150 558 149 518 l 149 176 b 83 22 149 42 83 61 b 132 0 83 4 104 0 l 250 0 b 300 22 282 0 300 6 b 238 176 300 61 238 42 l 238 328 b 458 619 238 528 347 618 b 633 376 592 624 633 515 l 633 176 b 568 22 633 42 568 61 b 617 0 568 4 589 0 l 735 0 b 785 22 767 0 785 6 b 722 176 785 61 722 42 l 719 354 b 935 618 729 535 838 615 b 1117 374 1078 621 1096 497 l 1154 136 b 1097 22 1169 47 1097 58 b 1146 0 1097 4 1118 0 l 1265 0 b 1315 22 1297 0 1315 6 b 1242 138 1315 58 1257 49 z "},"n":{"ha":861,"x_min":0,"x_max":0,"o":"m 726 386 b 483 681 689 618 610 681 b 229 513 390 681 288 625 l 231 650 b 206 674 231 672 221 675 b 121 644 188 672 164 664 b 83 610 88 629 83 621 b 107 582 83 599 90 592 b 149 467 150 558 149 518 l 149 176 b 83 22 149 42 83 61 b 132 0 83 4 104 0 l 250 0 b 300 22 282 0 300 6 b 238 176 300 61 238 42 l 238 328 b 453 618 238 528 353 615 b 642 374 601 621 622 497 l 679 136 b 622 22 694 47 622 58 b 672 0 622 4 643 0 l 790 0 b 840 22 822 0 840 6 b 767 138 840 58 782 49 z "},"ń":{"ha":861,"x_min":0,"x_max":0,"o":"m 353 751 b 574 856 408 732 556 807 b 546 922 585 886 569 913 b 429 861 511 933 482 906 b 340 774 378 814 344 785 b 353 751 338 768 336 757 z m 726 386 b 483 681 689 618 610 681 b 229 513 390 681 288 625 l 231 650 b 206 674 231 672 221 675 b 121 644 188 672 164 664 b 83 610 88 629 83 621 b 107 582 83 599 90 592 b 149 467 150 558 149 518 l 149 176 b 83 22 149 42 83 61 b 132 0 83 4 104 0 l 250 0 b 300 22 282 0 300 6 b 238 176 300 61 238 42 l 238 328 b 453 618 238 528 353 615 b 642 374 601 621 622 497 l 679 136 b 622 22 694 47 622 58 b 672 0 622 4 643 0 l 790 0 b 840 22 822 0 840 6 b 767 138 840 58 782 49 z "},"ň":{"ha":861,"x_min":0,"x_max":0,"o":"m 439 761 b 522 838 476 761 479 771 b 586 931 556 890 585 922 b 571 949 586 939 586 947 b 435 867 539 951 471 904 b 299 949 399 904 331 951 b 283 931 283 947 283 939 b 343 843 285 922 307 893 b 439 761 396 769 401 761 z m 726 386 b 483 681 689 618 610 681 b 229 513 390 681 288 625 l 231 650 b 206 674 231 672 221 675 b 121 644 188 672 164 664 b 83 610 88 629 83 621 b 107 582 83 599 90 592 b 149 467 150 558 149 518 l 149 176 b 83 22 149 42 83 61 b 132 0 83 4 104 0 l 250 0 b 300 22 282 0 300 6 b 238 176 300 61 238 42 l 238 328 b 453 618 238 528 353 615 b 642 374 601 621 622 497 l 679 136 b 622 22 694 47 622 58 b 672 0 622 4 643 0 l 790 0 b 840 22 822 0 840 6 b 767 138 840 58 782 49 z "},"ñ":{"ha":861,"x_min":0,"x_max":0,"o":"m 260 776 b 308 817 260 801 274 817 b 529 758 372 817 465 758 b 618 833 581 758 618 785 b 585 864 618 878 585 897 b 538 825 585 840 572 825 b 315 883 488 825 408 883 b 226 807 264 883 226 856 b 260 776 226 763 260 743 z m 726 386 b 483 681 689 618 610 681 b 229 513 390 681 288 625 l 231 650 b 206 674 231 672 221 675 b 121 644 188 672 164 664 b 83 610 88 629 83 621 b 107 582 83 599 90 592 b 149 467 150 558 149 518 l 149 176 b 83 22 149 42 83 61 b 132 0 83 4 104 0 l 250 0 b 300 22 282 0 300 6 b 238 176 300 61 238 42 l 238 328 b 453 618 238 528 353 615 b 642 374 601 621 622 497 l 679 136 b 622 22 694 47 622 58 b 672 0 622 4 643 0 l 790 0 b 840 22 822 0 840 6 b 767 138 840 58 782 49 z "},"o":{"ha":776,"x_min":0,"x_max":0,"o":"m 376 -14 b 724 347 585 -14 724 144 b 407 681 724 538 586 681 b 50 308 196 681 50 519 b 376 -14 50 111 188 -14 z m 408 38 b 140 361 253 38 140 168 b 367 624 140 514 229 624 b 635 294 517 624 635 476 b 408 38 635 138 543 38 z "},"ó":{"ha":776,"x_min":0,"x_max":0,"o":"m 311 751 b 532 856 367 732 514 807 b 504 922 543 886 528 913 b 388 861 469 933 440 906 b 299 774 336 814 303 785 b 311 751 296 768 294 757 z m 376 -14 b 724 347 585 -14 724 144 b 407 681 724 538 586 681 b 50 308 196 681 50 519 b 376 -14 50 111 188 -14 z m 408 38 b 140 361 253 38 140 168 b 367 624 140 514 229 624 b 635 294 517 624 635 476 b 408 38 635 138 543 38 z "},"ô":{"ha":776,"x_min":0,"x_max":0,"o":"m 257 751 b 393 833 289 749 357 794 b 529 751 429 794 497 749 b 544 768 544 753 544 761 b 481 863 543 778 514 810 b 397 939 438 928 435 939 b 301 857 360 939 354 931 b 242 768 265 807 243 778 b 257 751 242 761 242 753 z m 376 -14 b 724 347 585 -14 724 144 b 407 681 724 538 586 681 b 50 308 196 681 50 519 b 376 -14 50 111 188 -14 z m 408 38 b 140 361 253 38 140 168 b 367 624 140 514 229 624 b 635 294 517 624 635 476 b 408 38 635 138 543 38 z "},"ö":{"ha":776,"x_min":0,"x_max":0,"o":"m 281 801 b 357 871 318 801 357 832 b 300 926 357 903 333 926 b 228 850 261 926 228 888 b 281 801 228 821 251 801 z m 465 801 b 542 871 503 801 542 832 b 485 926 542 903 517 926 b 413 850 444 926 413 888 b 465 801 413 821 436 801 z m 376 -14 b 724 347 585 -14 724 144 b 407 681 724 538 586 681 b 50 308 196 681 50 519 b 376 -14 50 111 188 -14 z m 408 38 b 140 361 253 38 140 168 b 367 624 140 514 229 624 b 635 294 517 624 635 476 b 408 38 635 138 543 38 z "},"ò":{"ha":776,"x_min":0,"x_max":0,"o":"m 504 751 b 517 774 521 757 519 768 b 428 861 513 785 479 814 b 311 922 375 906 346 933 b 283 856 288 913 272 886 b 504 751 301 807 449 732 z m 376 -14 b 724 347 585 -14 724 144 b 407 681 724 538 586 681 b 50 308 196 681 50 519 b 376 -14 50 111 188 -14 z m 408 38 b 140 361 253 38 140 168 b 367 624 140 514 229 624 b 635 294 517 624 635 476 b 408 38 635 138 543 38 z "},"ő":{"ha":776,"x_min":0,"x_max":0,"o":"m 281 749 b 439 907 333 749 439 858 b 393 956 439 938 415 956 b 311 867 360 956 343 922 b 263 765 283 813 263 775 b 281 749 263 758 265 749 z m 472 747 b 636 900 526 747 636 853 b 592 949 636 931 614 949 b 507 864 561 949 542 917 b 453 765 476 811 453 776 b 472 747 451 758 454 747 z m 376 -14 b 724 347 585 -14 724 144 b 407 681 724 538 586 681 b 50 308 196 681 50 519 b 376 -14 50 111 188 -14 z m 408 38 b 140 361 253 38 140 168 b 367 624 140 514 229 624 b 635 294 517 624 635 476 b 408 38 635 138 543 38 z "},"ō":{"ha":776,"x_min":0,"x_max":0,"o":"m 540 774 b 569 801 565 774 568 785 b 547 831 572 819 574 831 l 229 831 b 199 803 201 831 200 819 b 222 774 196 785 194 774 z m 376 -14 b 724 347 585 -14 724 144 b 407 681 724 538 586 681 b 50 308 196 681 50 519 b 376 -14 50 111 188 -14 z m 408 38 b 140 361 253 38 140 168 b 367 624 140 514 229 624 b 635 294 517 624 635 476 b 408 38 635 138 543 38 z "},"ø":{"ha":776,"x_min":0,"x_max":0,"o":"m 681 785 b 688 807 685 793 688 800 b 669 821 688 817 676 821 b 643 803 656 821 651 818 l 553 646 b 407 681 510 668 460 681 b 50 308 196 681 50 519 b 197 32 50 182 107 85 l 108 -124 b 101 -142 104 -131 101 -135 b 118 -158 101 -153 110 -158 b 154 -132 135 -158 142 -151 l 238 13 b 376 -14 279 -6 325 -14 b 724 347 585 -14 724 144 b 588 624 724 465 671 565 z m 140 361 b 367 624 140 514 229 624 b 511 574 419 624 469 606 l 239 103 b 140 361 178 160 140 250 z m 408 38 b 274 76 358 38 313 51 l 542 544 b 635 294 599 483 635 394 b 408 38 635 138 543 38 z "},"õ":{"ha":776,"x_min":0,"x_max":0,"o":"m 488 758 b 576 833 539 758 576 785 b 543 864 576 878 543 897 b 496 825 543 840 531 825 b 274 883 446 825 367 883 b 185 807 222 883 185 856 b 218 776 185 763 218 743 b 267 817 218 801 232 817 b 488 758 331 817 424 758 z m 376 -14 b 724 347 585 -14 724 144 b 407 681 724 538 586 681 b 50 308 196 681 50 519 b 376 -14 50 111 188 -14 z m 408 38 b 140 361 253 38 140 168 b 367 624 140 514 229 624 b 635 294 517 624 635 476 b 408 38 635 138 543 38 z "},"œ":{"ha":1293,"x_min":0,"x_max":0,"o":"m 1204 158 b 974 56 1154 103 1071 56 b 719 263 831 56 743 174 b 1213 424 886 313 1058 368 b 1246 481 1247 436 1253 456 b 969 681 1215 600 1113 681 b 671 511 833 681 729 613 b 385 681 619 614 522 681 b 50 346 192 681 50 532 b 401 -14 50 153 176 -14 b 668 135 528 -14 618 44 b 942 -14 721 44 818 -14 b 1242 140 1113 -14 1211 76 b 1204 158 1256 171 1224 181 z m 414 29 b 150 372 250 29 150 185 b 381 638 150 586 286 638 b 622 350 514 640 607 510 b 621 308 621 336 621 322 b 624 264 621 293 622 279 b 414 29 614 142 554 29 z m 711 389 b 938 632 711 499 786 635 b 1118 475 1019 629 1110 564 b 1096 433 1119 457 1118 442 b 717 307 979 392 851 350 b 713 335 714 317 713 325 b 711 356 713 342 711 349 z "},"p":{"ha":814,"x_min":0,"x_max":0,"o":"m 479 681 b 215 528 350 681 257 607 l 217 657 b 192 681 217 679 207 682 b 107 650 174 679 150 671 b 69 615 74 635 69 628 b 94 589 69 606 76 597 b 135 472 136 565 135 524 l 139 -101 b 72 -256 139 -236 72 -217 b 122 -278 72 -274 94 -278 l 239 -278 b 289 -256 271 -278 289 -272 b 226 -101 289 -217 226 -236 l 225 75 b 463 -14 278 17 376 -15 b 761 346 651 -12 761 158 b 479 681 761 529 663 681 z m 472 35 b 225 264 365 32 224 115 l 225 367 b 449 610 225 468 297 610 b 672 304 556 610 672 526 b 472 35 672 150 607 36 z "},"þ":{"ha":822,"x_min":0,"x_max":0,"o":"m 479 681 b 224 542 357 681 268 615 l 224 772 l 225 964 b 200 988 225 986 215 989 b 103 951 182 986 167 982 b 65 919 69 936 65 931 b 136 772 65 876 136 910 l 135 -101 b 69 -256 135 -236 69 -217 b 118 -278 69 -274 90 -278 l 236 -278 b 286 -256 268 -278 286 -272 b 224 -101 286 -217 224 -236 l 224 78 b 463 -14 275 18 375 -15 b 761 346 651 -12 761 158 b 479 681 761 529 663 681 z m 472 35 b 225 264 365 32 224 115 l 225 367 b 449 610 225 468 297 610 b 672 304 556 610 672 526 b 472 35 672 150 607 36 z "},"q":{"ha":790,"x_min":0,"x_max":0,"o":"m 693 651 b 669 681 693 668 685 681 b 575 639 631 681 629 639 b 376 681 536 639 475 681 b 50 315 203 681 50 518 b 356 -14 50 138 165 -14 b 608 128 474 -14 563 51 l 608 -103 b 518 -256 608 -247 518 -212 b 568 -278 518 -272 536 -278 l 710 -278 b 760 -256 738 -278 760 -274 b 693 -103 760 -221 693 -242 z m 388 56 b 142 367 281 56 142 144 b 361 624 142 511 225 624 b 564 504 451 624 517 581 b 607 322 604 439 607 357 b 388 56 607 204 540 56 z "},"r":{"ha":594,"x_min":0,"x_max":0,"o":"m 433 681 b 229 519 339 681 264 594 l 231 650 b 206 674 231 672 221 675 b 121 644 188 672 164 664 b 83 610 88 629 83 621 b 107 582 83 599 90 592 b 149 467 150 558 149 518 l 149 176 b 83 22 149 42 83 61 b 132 0 83 4 104 0 l 250 0 b 300 22 282 0 300 6 b 238 176 300 61 238 42 l 238 356 b 372 594 238 492 304 594 b 483 542 433 594 431 540 b 531 599 511 543 531 576 b 433 681 531 636 504 681 z "},"ŕ":{"ha":594,"x_min":0,"x_max":0,"o":"m 293 756 b 514 860 349 736 496 811 b 486 926 525 890 510 917 b 369 865 451 938 422 910 b 281 778 318 818 285 789 b 293 756 278 772 276 761 z m 433 681 b 229 519 339 681 264 594 l 231 650 b 206 674 231 672 221 675 b 121 644 188 672 164 664 b 83 610 88 629 83 621 b 107 582 83 599 90 592 b 149 467 150 558 149 518 l 149 176 b 83 22 149 42 83 61 b 132 0 83 4 104 0 l 250 0 b 300 22 282 0 300 6 b 238 176 300 61 238 42 l 238 356 b 372 594 238 492 304 594 b 483 542 433 594 431 540 b 531 599 511 543 531 576 b 433 681 531 636 504 681 z "},"ř":{"ha":594,"x_min":0,"x_max":0,"o":"m 324 765 b 407 842 361 765 364 775 b 471 935 440 894 469 926 b 456 953 471 943 471 951 b 319 871 424 956 356 908 b 183 953 283 908 215 956 b 168 935 168 951 168 943 b 228 847 169 926 192 897 b 324 765 281 774 286 765 z m 433 681 b 229 519 339 681 264 594 l 231 650 b 206 674 231 672 221 675 b 121 644 188 672 164 664 b 83 610 88 629 83 621 b 107 582 83 599 90 592 b 149 467 150 558 149 518 l 149 176 b 83 22 149 42 83 61 b 132 0 83 4 104 0 l 250 0 b 300 22 282 0 300 6 b 238 176 300 61 238 42 l 238 356 b 372 594 238 492 304 594 b 483 542 433 594 431 540 b 531 599 511 543 531 576 b 433 681 531 636 504 681 z "},"s":{"ha":631,"x_min":0,"x_max":0,"o":"m 140 -14 b 193 13 165 -14 171 13 b 338 -14 221 13 257 -14 b 586 176 496 -14 586 85 b 344 379 586 282 468 333 b 138 531 207 432 138 463 b 275 632 138 589 189 632 b 463 561 342 632 408 603 b 549 510 511 524 529 499 b 550 547 558 517 556 535 b 504 639 540 571 528 599 b 468 681 493 660 485 681 b 432 665 456 681 450 663 b 285 681 397 668 356 681 b 71 500 179 681 71 621 b 318 293 71 388 190 342 b 508 149 426 250 508 213 b 368 40 508 74 440 40 b 106 186 297 40 225 51 b 72 204 94 199 83 207 b 60 178 60 201 57 190 b 111 28 78 118 92 82 b 140 -14 126 -8 125 -14 z "},"":{"ha":631,"x_min":0,"x_max":0,"o":"m 140 -14 b 193 13 165 -14 171 13 b 338 -14 221 13 257 -14 b 586 176 496 -14 586 85 b 344 379 586 282 468 333 b 138 531 207 432 138 463 b 275 632 138 589 189 632 b 463 561 342 632 408 603 b 549 510 511 524 529 499 b 550 547 558 517 556 535 b 504 639 540 571 528 599 b 468 681 493 660 485 681 b 432 665 456 681 450 663 b 285 681 397 668 356 681 b 71 500 179 681 71 621 b 318 293 71 388 190 342 b 508 149 426 250 508 213 b 368 40 508 74 440 40 b 106 186 297 40 225 51 b 72 204 94 199 83 207 b 60 178 60 201 57 190 b 111 28 78 118 92 82 b 140 -14 126 -8 125 -14 z "},"ś":{"ha":631,"x_min":0,"x_max":0,"o":"m 224 751 b 444 856 279 732 426 807 b 417 922 456 886 440 913 b 300 861 382 933 353 906 b 211 774 249 814 215 785 b 224 751 208 768 207 757 z m 140 -14 b 193 13 165 -14 171 13 b 338 -14 221 13 257 -14 b 586 176 496 -14 586 85 b 344 379 586 282 468 333 b 138 531 207 432 138 463 b 275 632 138 589 189 632 b 463 561 342 632 408 603 b 549 510 511 524 529 499 b 550 547 558 517 556 535 b 504 639 540 571 528 599 b 468 681 493 660 485 681 b 432 665 456 681 450 663 b 285 681 397 668 356 681 b 71 500 179 681 71 621 b 318 293 71 388 190 342 b 508 149 426 250 508 213 b 368 40 508 74 440 40 b 106 186 297 40 225 51 b 72 204 94 199 83 207 b 60 178 60 201 57 190 b 111 28 78 118 92 82 b 140 -14 126 -8 125 -14 z "},"š":{"ha":631,"x_min":0,"x_max":0,"o":"m 169 949 b 154 931 154 947 154 939 b 214 843 156 922 178 893 b 310 761 267 769 272 761 b 393 838 347 761 350 771 b 457 931 426 890 456 922 b 442 949 457 939 457 947 b 306 867 410 951 342 904 b 169 949 269 904 201 951 z m 140 -14 b 193 13 165 -14 171 13 b 338 -14 221 13 257 -14 b 586 176 496 -14 586 85 b 344 379 586 282 468 333 b 138 531 207 432 138 463 b 275 632 138 589 189 632 b 463 561 342 632 408 603 b 549 510 511 524 529 499 b 550 547 558 517 556 535 b 504 639 540 571 528 599 b 468 681 493 660 485 681 b 432 665 456 681 450 663 b 285 681 397 668 356 681 b 71 500 179 681 71 621 b 318 293 71 388 190 342 b 508 149 426 250 508 213 b 368 40 508 74 440 40 b 106 186 297 40 225 51 b 72 204 94 199 83 207 b 60 178 60 201 57 190 b 111 28 78 118 92 82 b 140 -14 126 -8 125 -14 z "},"ş":{"ha":631,"x_min":0,"x_max":0,"o":"m 338 -14 b 586 176 496 -14 586 85 b 344 379 586 282 468 333 b 138 531 207 432 138 463 b 275 632 138 589 189 632 b 463 561 342 632 408 603 b 549 510 511 524 529 499 b 550 547 558 517 556 535 b 504 639 540 571 528 599 b 468 681 493 660 485 681 b 432 665 456 681 450 663 b 285 681 397 668 356 681 b 71 500 179 681 71 621 b 318 293 71 388 190 342 b 508 149 426 250 508 213 b 368 40 508 74 440 40 b 106 186 297 40 225 51 b 72 204 94 199 83 207 b 60 178 60 201 57 190 b 111 28 78 118 92 82 b 140 -14 126 -8 125 -14 b 193 13 165 -14 171 13 b 289 -10 214 13 240 -3 l 244 -93 b 261 -115 238 -106 247 -112 b 356 -193 310 -128 356 -147 b 289 -254 356 -226 335 -254 b 207 -229 250 -254 226 -240 b 190 -249 192 -219 179 -235 b 297 -290 206 -268 238 -290 b 421 -183 363 -290 421 -249 b 293 -76 421 -119 364 -89 l 324 -14 z "},"ß":{"ha":815,"x_min":0,"x_max":0,"o":"m 519 -14 b 756 210 656 -15 756 85 b 574 411 756 313 675 353 b 436 522 499 453 436 478 b 560 817 436 628 560 703 b 381 986 560 904 508 986 b 138 663 235 986 138 864 l 138 169 b 75 22 138 54 75 53 b 133 0 75 6 88 0 l 206 0 b 267 21 257 0 267 4 b 224 167 267 57 224 53 l 225 667 b 354 939 225 769 222 939 b 463 800 438 939 463 858 b 372 490 463 649 372 596 b 529 328 372 399 457 365 b 671 147 610 285 671 242 b 543 32 671 82 621 32 b 346 175 438 32 381 114 b 315 215 333 199 329 215 b 294 164 304 215 294 203 b 314 67 294 147 299 100 b 519 -14 351 -1 478 -14 z "},"t":{"ha":464,"x_min":0,"x_max":0,"o":"m 403 108 b 292 58 379 85 332 58 b 197 192 208 58 194 118 b 204 614 200 403 203 532 l 331 611 b 379 640 351 610 372 611 b 346 667 386 669 367 667 l 206 667 b 210 771 207 742 208 754 b 194 800 211 792 210 800 b 164 790 183 800 178 803 b 33 657 125 757 85 719 b 26 640 25 647 26 644 b 58 617 26 622 38 617 l 119 617 b 114 192 115 524 114 378 l 114 169 b 263 -14 114 53 156 -14 b 432 88 357 -14 415 49 b 403 108 442 110 419 126 z "},"ŧ":{"ha":464,"x_min":0,"x_max":0,"o":"m 403 108 b 292 58 379 85 332 58 b 197 192 208 58 194 118 l 201 417 l 281 417 b 301 439 297 417 301 425 b 281 460 301 453 297 460 l 201 460 b 204 614 203 525 204 575 l 331 611 b 379 640 351 610 372 611 b 346 667 386 669 367 667 l 206 667 b 210 771 207 742 208 754 b 194 800 211 792 210 800 b 164 790 183 800 178 803 b 33 657 125 757 85 719 b 26 640 25 647 26 644 b 58 617 26 622 38 617 l 119 617 l 115 460 l 47 460 b 26 439 31 460 26 453 b 47 417 26 425 31 417 l 115 417 b 114 192 114 350 114 275 l 114 169 b 263 -14 114 53 156 -14 b 432 88 357 -14 415 49 b 403 108 442 110 419 126 z "},"ť":{"ha":464,"x_min":0,"x_max":0,"o":"m 286 736 b 382 968 319 736 382 928 b 339 1021 382 1010 360 1021 b 288 960 313 1021 289 1001 b 271 756 288 942 274 800 b 286 736 269 746 275 736 z m 403 108 b 292 58 379 85 332 58 b 197 192 208 58 194 118 b 204 614 200 403 203 532 l 331 611 b 379 640 351 610 372 611 b 346 667 386 669 367 667 l 206 667 b 210 771 207 742 208 754 b 194 800 211 792 210 800 b 164 790 183 800 178 803 b 33 657 125 757 85 719 b 26 640 25 647 26 644 b 58 617 26 622 38 617 l 119 617 b 114 192 115 524 114 378 l 114 169 b 263 -14 114 53 156 -14 b 432 88 357 -14 415 49 b 403 108 442 110 419 126 z "},"u":{"ha":819,"x_min":0,"x_max":0,"o":"m 722 657 b 697 681 722 679 713 682 b 600 644 678 679 664 675 b 563 613 567 629 563 624 b 632 465 563 569 632 603 l 632 283 b 411 46 632 136 508 49 b 242 276 290 43 242 139 l 242 465 l 243 657 b 218 681 243 679 233 682 b 121 644 200 679 185 675 b 83 613 88 629 83 624 b 153 465 83 569 153 603 l 153 260 b 388 -14 153 58 260 -14 b 632 122 467 -14 568 31 l 633 51 b 674 -14 635 11 644 -14 b 775 22 704 -14 743 3 b 804 56 794 33 804 44 b 721 165 804 96 721 58 l 721 465 z "},"ú":{"ha":819,"x_min":0,"x_max":0,"o":"m 378 751 b 599 856 433 732 581 807 b 571 922 610 886 594 913 b 454 861 536 933 507 906 b 365 774 403 814 369 785 b 378 751 363 768 361 757 z m 722 657 b 697 681 722 679 713 682 b 600 644 678 679 664 675 b 563 613 567 629 563 624 b 632 465 563 569 632 603 l 632 283 b 411 46 632 136 508 49 b 242 276 290 43 242 139 l 242 465 l 243 657 b 218 681 243 679 233 682 b 121 644 200 679 185 675 b 83 613 88 629 83 624 b 153 465 83 569 153 603 l 153 260 b 388 -14 153 58 260 -14 b 632 122 467 -14 568 31 l 633 51 b 674 -14 635 11 644 -14 b 775 22 704 -14 743 3 b 804 56 794 33 804 44 b 721 165 804 96 721 58 l 721 465 z "},"û":{"ha":819,"x_min":0,"x_max":0,"o":"m 324 751 b 460 833 356 749 424 794 b 596 751 496 794 564 749 b 611 768 611 753 611 761 b 547 863 610 778 581 810 b 464 939 504 928 501 939 b 368 857 426 939 421 931 b 308 768 332 807 310 778 b 324 751 308 761 308 753 z m 722 657 b 697 681 722 679 713 682 b 600 644 678 679 664 675 b 563 613 567 629 563 624 b 632 465 563 569 632 603 l 632 283 b 411 46 632 136 508 49 b 242 276 290 43 242 139 l 242 465 l 243 657 b 218 681 243 679 233 682 b 121 644 200 679 185 675 b 83 613 88 629 83 624 b 153 465 83 569 153 603 l 153 260 b 388 -14 153 58 260 -14 b 632 122 467 -14 568 31 l 633 51 b 674 -14 635 11 644 -14 b 775 22 704 -14 743 3 b 804 56 794 33 804 44 b 721 165 804 96 721 58 l 721 465 z "},"ü":{"ha":819,"x_min":0,"x_max":0,"o":"m 347 801 b 424 871 385 801 424 832 b 367 926 424 903 400 926 b 294 850 328 926 294 888 b 347 801 294 821 318 801 z m 532 801 b 608 871 569 801 608 832 b 551 926 608 903 583 926 b 479 850 511 926 479 888 b 532 801 479 821 503 801 z m 722 657 b 697 681 722 679 713 682 b 600 644 678 679 664 675 b 563 613 567 629 563 624 b 632 465 563 569 632 603 l 632 283 b 411 46 632 136 508 49 b 242 276 290 43 242 139 l 242 465 l 243 657 b 218 681 243 679 233 682 b 121 644 200 679 185 675 b 83 613 88 629 83 624 b 153 465 83 569 153 603 l 153 260 b 388 -14 153 58 260 -14 b 632 122 467 -14 568 31 l 633 51 b 674 -14 635 11 644 -14 b 775 22 704 -14 743 3 b 804 56 794 33 804 44 b 721 165 804 96 721 58 l 721 465 z "},"ù":{"ha":819,"x_min":0,"x_max":0,"o":"m 571 751 b 583 774 588 757 586 768 b 494 861 579 785 546 814 b 378 922 442 906 413 933 b 350 856 354 913 339 886 b 571 751 368 807 515 732 z m 722 657 b 697 681 722 679 713 682 b 600 644 678 679 664 675 b 563 613 567 629 563 624 b 632 465 563 569 632 603 l 632 283 b 411 46 632 136 508 49 b 242 276 290 43 242 139 l 242 465 l 243 657 b 218 681 243 679 233 682 b 121 644 200 679 185 675 b 83 613 88 629 83 624 b 153 465 83 569 153 603 l 153 260 b 388 -14 153 58 260 -14 b 632 122 467 -14 568 31 l 633 51 b 674 -14 635 11 644 -14 b 775 22 704 -14 743 3 b 804 56 794 33 804 44 b 721 165 804 96 721 58 l 721 465 z "},"ű":{"ha":819,"x_min":0,"x_max":0,"o":"m 347 749 b 506 907 400 749 506 858 b 460 956 506 938 482 956 b 378 867 426 956 410 922 b 329 765 350 813 329 775 b 347 749 329 758 332 749 z m 539 747 b 703 900 593 747 703 853 b 658 949 703 931 681 949 b 574 864 628 949 608 917 b 519 765 543 811 519 776 b 539 747 518 758 521 747 z m 722 657 b 697 681 722 679 713 682 b 600 644 678 679 664 675 b 563 613 567 629 563 624 b 632 465 563 569 632 603 l 632 283 b 411 46 632 136 508 49 b 242 276 290 43 242 139 l 242 465 l 243 657 b 218 681 243 679 233 682 b 121 644 200 679 185 675 b 83 613 88 629 83 624 b 153 465 83 569 153 603 l 153 260 b 388 -14 153 58 260 -14 b 632 122 467 -14 568 31 l 633 51 b 674 -14 635 11 644 -14 b 775 22 704 -14 743 3 b 804 56 794 33 804 44 b 721 165 804 96 721 58 l 721 465 z "},"ū":{"ha":819,"x_min":0,"x_max":0,"o":"m 607 774 b 636 801 632 774 635 785 b 614 831 639 819 640 831 l 296 831 b 265 803 268 831 267 819 b 289 774 263 785 261 774 z m 722 657 b 697 681 722 679 713 682 b 600 644 678 679 664 675 b 563 613 567 629 563 624 b 632 465 563 569 632 603 l 632 283 b 411 46 632 136 508 49 b 242 276 290 43 242 139 l 242 465 l 243 657 b 218 681 243 679 233 682 b 121 644 200 679 185 675 b 83 613 88 629 83 624 b 153 465 83 569 153 603 l 153 260 b 388 -14 153 58 260 -14 b 632 122 467 -14 568 31 l 633 51 b 674 -14 635 11 644 -14 b 775 22 704 -14 743 3 b 804 56 794 33 804 44 b 721 165 804 96 721 58 l 721 465 z "},"ģ":{"ha":747,"x_min":0,"x_max":0,"o":"m 379 758 b 443 825 407 758 443 782 b 386 925 443 879 386 888 b 436 1017 386 968 436 1003 b 421 1032 436 1025 432 1032 b 303 843 389 1032 303 961 b 379 758 303 782 340 758 z m 526 81 b 343 74 485 81 418 74 b 154 169 254 74 154 92 b 197 232 154 197 178 221 b 326 206 232 215 275 206 b 629 465 513 206 629 317 b 546 628 629 524 601 585 b 651 738 604 644 651 689 b 607 783 651 767 628 783 b 567 754 590 783 579 769 b 474 675 542 710 506 675 b 379 681 444 675 429 681 l 378 681 b 68 425 207 682 68 576 b 161 251 68 358 99 293 b 51 138 76 222 51 167 b 138 17 51 75 97 38 b 43 -117 69 -15 43 -74 b 351 -294 43 -243 190 -294 b 738 -69 613 -294 738 -197 b 526 81 738 11 668 81 z m 347 636 b 532 436 467 636 531 547 b 350 251 532 338 465 251 b 160 451 239 251 161 339 b 347 636 160 565 243 636 z m 382 -251 b 142 -111 240 -251 142 -203 b 276 -6 142 -44 211 -7 b 479 1 368 -6 436 -3 b 642 -103 615 11 642 -56 b 382 -251 642 -206 519 -251 z "},"ķ":{"ha":799,"x_min":0,"x_max":0,"o":"m 589 560 b 694 647 667 643 694 619 b 654 667 694 658 683 667 l 538 667 b 507 646 510 667 507 654 b 536 575 507 625 569 611 l 229 247 l 229 771 l 231 963 b 207 986 231 985 221 988 b 108 950 188 985 172 981 b 71 918 75 935 71 929 b 142 771 71 875 142 908 l 142 176 b 75 22 142 42 75 61 b 125 0 75 4 97 0 l 242 0 b 293 22 274 0 293 6 b 229 175 293 61 229 42 l 449 410 l 579 113 b 538 21 601 63 538 57 b 588 0 538 4 547 0 l 699 0 b 757 22 746 0 757 6 b 665 138 757 53 701 53 l 515 481 z m 392 -79 b 328 -146 364 -79 328 -103 b 385 -246 328 -200 385 -208 b 335 -337 385 -289 335 -324 b 350 -353 335 -346 339 -353 b 468 -164 382 -353 468 -282 b 392 -79 468 -103 432 -79 z "},"ļ":{"ha":364,"x_min":0,"x_max":0,"o":"m 142 176 b 75 22 142 42 75 61 b 125 0 75 4 97 0 l 242 0 b 293 22 274 0 293 6 b 229 176 293 61 229 42 l 229 771 l 231 963 b 207 986 231 985 221 988 b 108 950 188 985 172 981 b 71 918 75 935 71 929 b 142 771 71 875 142 908 z m 131 -353 b 249 -164 163 -353 249 -282 b 172 -79 249 -103 213 -79 b 108 -146 144 -79 108 -103 b 165 -246 108 -200 165 -208 b 115 -337 165 -289 115 -324 b 131 -353 115 -346 119 -353 z "},"ņ":{"ha":861,"x_min":0,"x_max":0,"o":"m 726 386 b 483 681 689 618 610 681 b 229 513 390 681 288 625 l 231 650 b 206 674 231 672 221 675 b 121 644 188 672 164 664 b 83 610 88 629 83 621 b 107 582 83 599 90 592 b 149 467 150 558 149 518 l 149 176 b 83 22 149 42 83 61 b 132 0 83 4 104 0 l 250 0 b 300 22 282 0 300 6 b 238 176 300 61 238 42 l 238 328 b 453 618 238 528 353 615 b 642 374 601 621 622 497 l 679 136 b 622 22 694 47 622 58 b 672 0 622 4 643 0 l 790 0 b 840 22 822 0 840 6 b 767 138 840 58 782 49 z m 443 -79 b 379 -146 415 -79 379 -103 b 436 -246 379 -200 436 -208 b 386 -337 436 -289 386 -324 b 401 -353 386 -346 390 -353 b 519 -164 433 -353 519 -282 b 443 -79 519 -103 483 -79 z "},"ŗ":{"ha":594,"x_min":0,"x_max":0,"o":"m 433 681 b 229 519 339 681 264 594 l 231 650 b 206 674 231 672 221 675 b 121 644 188 672 164 664 b 83 610 88 629 83 621 b 107 582 83 599 90 592 b 149 467 150 558 149 518 l 149 176 b 83 22 149 42 83 61 b 132 0 83 4 104 0 l 250 0 b 300 22 282 0 300 6 b 238 176 300 61 238 42 l 238 356 b 372 594 238 492 304 594 b 483 542 433 594 431 540 b 531 599 511 543 531 576 b 433 681 531 636 504 681 z m 176 -79 b 113 -146 149 -79 113 -103 b 169 -246 113 -200 169 -208 b 119 -337 169 -289 119 -324 b 135 -353 119 -346 124 -353 b 253 -164 167 -353 253 -282 b 176 -79 253 -103 217 -79 z "},"ţ":{"ha":464,"x_min":0,"x_max":0,"o":"m 403 108 b 292 58 379 85 332 58 b 197 192 208 58 194 118 b 204 614 200 403 203 532 l 331 611 b 379 640 351 610 372 611 b 346 667 386 669 367 667 l 206 667 b 210 771 207 742 208 754 b 194 800 211 792 210 800 b 164 790 183 800 178 803 b 33 657 125 757 85 719 b 26 640 25 647 26 644 b 58 617 26 622 38 617 l 119 617 b 114 192 115 524 114 378 l 114 169 b 190 0 114 83 136 25 l 182 0 l 132 -93 b 149 -115 125 -106 135 -112 b 243 -193 197 -128 243 -147 b 176 -254 243 -226 222 -254 b 94 -229 138 -254 114 -240 b 78 -249 79 -219 67 -235 b 185 -290 93 -268 125 -290 b 308 -183 250 -290 308 -249 b 181 -76 308 -119 251 -89 l 214 -8 b 263 -14 228 -12 244 -14 b 432 88 357 -14 415 49 b 403 108 442 110 419 126 z "},"ș":{"ha":631,"x_min":0,"x_max":0,"o":"m 140 -14 b 193 13 165 -14 171 13 b 338 -14 221 13 257 -14 b 586 176 496 -14 586 85 b 344 379 586 282 468 333 b 138 531 207 432 138 463 b 275 632 138 589 189 632 b 463 561 342 632 408 603 b 549 510 511 524 529 499 b 550 547 558 517 556 535 b 504 639 540 571 528 599 b 468 681 493 660 485 681 b 432 665 456 681 450 663 b 285 681 397 668 356 681 b 71 500 179 681 71 621 b 318 293 71 388 190 342 b 508 149 426 250 508 213 b 368 40 508 74 440 40 b 106 186 297 40 225 51 b 72 204 94 199 83 207 b 60 178 60 201 57 190 b 111 28 78 118 92 82 b 140 -14 126 -8 125 -14 z m 257 -353 b 375 -164 289 -353 375 -282 b 299 -79 375 -103 339 -79 b 235 -146 271 -79 235 -103 b 292 -246 235 -200 292 -208 b 242 -337 292 -289 242 -324 b 257 -353 242 -346 246 -353 z "},"ț":{"ha":464,"x_min":0,"x_max":0,"o":"m 403 108 b 292 58 379 85 332 58 b 197 192 208 58 194 118 b 204 614 200 403 203 532 l 331 611 b 379 640 351 610 372 611 b 346 667 386 669 367 667 l 206 667 b 210 771 207 742 208 754 b 194 800 211 792 210 800 b 164 790 183 800 178 803 b 33 657 125 757 85 719 b 26 640 25 647 26 644 b 58 617 26 622 38 617 l 119 617 b 114 192 115 524 114 378 l 114 169 b 263 -14 114 53 156 -14 b 432 88 357 -14 415 49 b 403 108 442 110 419 126 z m 186 -79 b 122 -146 158 -79 122 -103 b 179 -246 122 -200 179 -208 b 129 -337 179 -289 129 -324 b 144 -353 129 -346 133 -353 b 263 -164 176 -353 263 -282 b 186 -79 263 -103 226 -79 z "},"ų":{"ha":819,"x_min":0,"x_max":0,"o":"m 808 -206 b 746 -218 792 -211 765 -218 b 661 -140 690 -218 661 -190 b 747 7 661 -99 685 -47 b 775 22 757 11 767 17 b 804 56 794 33 804 44 b 721 165 804 96 721 58 l 721 465 l 722 657 b 697 681 722 679 713 682 b 600 644 678 679 664 675 b 563 613 567 629 563 624 b 632 465 563 569 632 603 l 632 283 b 411 46 632 136 508 49 b 242 276 290 43 242 139 l 242 465 l 243 657 b 218 681 243 679 233 682 b 121 644 200 679 185 675 b 83 613 88 629 83 624 b 153 465 83 569 153 603 l 153 260 b 388 -14 153 58 260 -14 b 632 122 467 -14 568 31 l 633 51 b 674 -14 635 11 644 -14 b 688 -12 678 -14 683 -14 b 590 -151 632 -54 590 -96 b 722 -257 590 -222 654 -257 b 825 -225 750 -257 794 -250 b 808 -206 836 -215 831 -196 z "},"ů":{"ha":819,"x_min":0,"x_max":0,"o":"m 456 747 b 583 868 526 747 583 793 b 461 985 583 939 531 985 b 332 864 389 985 332 938 b 456 747 332 793 385 747 z m 456 946 b 532 871 497 946 526 914 b 463 789 535 826 508 789 b 383 865 419 789 390 821 b 456 946 381 913 408 946 z m 722 657 b 697 681 722 679 713 682 b 600 644 678 679 664 675 b 563 613 567 629 563 624 b 632 465 563 569 632 603 l 632 283 b 411 46 632 136 508 49 b 242 276 290 43 242 139 l 242 465 l 243 657 b 218 681 243 679 233 682 b 121 644 200 679 185 675 b 83 613 88 629 83 624 b 153 465 83 569 153 603 l 153 260 b 388 -14 153 58 260 -14 b 632 122 467 -14 568 31 l 633 51 b 674 -14 635 11 644 -14 b 775 22 704 -14 743 3 b 804 56 794 33 804 44 b 721 165 804 96 721 58 l 721 465 z "},"v":{"ha":701,"x_min":0,"x_max":0,"o":"m 572 667 b 522 644 540 667 522 661 b 550 511 522 619 592 618 l 374 58 l 197 511 b 240 644 156 618 240 619 b 190 667 240 663 218 667 l 69 667 b 19 644 38 667 19 661 b 106 511 19 619 63 618 l 304 8 b 361 -8 311 -11 322 -18 b 406 24 396 0 401 8 l 596 511 b 685 644 638 618 685 619 b 636 667 685 663 664 667 z "},"w":{"ha":1125,"x_min":0,"x_max":0,"o":"m 993 664 b 943 643 961 664 943 660 b 969 508 943 617 1014 615 l 801 103 l 600 668 b 579 679 597 676 590 681 b 554 658 567 676 560 671 l 353 110 l 197 507 b 239 642 154 614 239 615 b 190 663 239 658 218 663 l 69 663 b 19 640 38 663 19 657 b 104 507 19 615 64 614 l 299 1 b 336 -7 303 -8 319 -10 b 371 18 358 -3 365 4 l 560 533 l 746 1 b 782 -7 749 -8 764 -11 b 815 18 801 -3 808 4 l 1018 508 b 1110 643 1063 615 1110 617 b 1060 664 1110 660 1088 664 z "},"":{"ha":1125,"x_min":0,"x_max":0,"o":"m 993 664 b 943 643 961 664 943 660 b 969 508 943 617 1014 615 l 801 103 l 600 668 b 579 679 597 676 590 681 b 554 658 567 676 560 671 l 353 110 l 197 507 b 239 642 154 614 239 615 b 190 663 239 658 218 663 l 69 663 b 19 640 38 663 19 657 b 104 507 19 615 64 614 l 299 1 b 336 -7 303 -8 319 -10 b 371 18 358 -3 365 4 l 560 533 l 746 1 b 782 -7 749 -8 764 -11 b 815 18 801 -3 808 4 l 1018 508 b 1110 643 1063 615 1110 617 b 1060 664 1110 660 1088 664 z "},"ẃ":{"ha":1125,"x_min":0,"x_max":0,"o":"m 493 751 b 714 856 549 732 696 807 b 686 922 725 886 710 913 b 569 861 651 933 622 906 b 481 774 518 814 485 785 b 493 751 478 768 476 757 z m 993 664 b 943 643 961 664 943 660 b 969 508 943 617 1014 615 l 801 103 l 600 668 b 579 679 597 676 590 681 b 554 658 567 676 560 671 l 353 110 l 197 507 b 239 642 154 614 239 615 b 190 663 239 658 218 663 l 69 663 b 19 640 38 663 19 657 b 104 507 19 615 64 614 l 299 1 b 336 -7 303 -8 319 -10 b 371 18 358 -3 365 4 l 560 533 l 746 1 b 782 -7 749 -8 764 -11 b 815 18 801 -3 808 4 l 1018 508 b 1110 643 1063 615 1110 617 b 1060 664 1110 660 1088 664 z "},"ŵ":{"ha":1125,"x_min":0,"x_max":0,"o":"m 439 751 b 575 833 471 749 539 794 b 711 751 611 794 679 749 b 726 768 726 753 726 761 b 663 863 725 778 696 810 b 579 939 619 928 617 939 b 483 857 542 939 536 931 b 424 768 447 807 425 778 b 439 751 424 761 424 753 z m 993 664 b 943 643 961 664 943 660 b 969 508 943 617 1014 615 l 801 103 l 600 668 b 579 679 597 676 590 681 b 554 658 567 676 560 671 l 353 110 l 197 507 b 239 642 154 614 239 615 b 190 663 239 658 218 663 l 69 663 b 19 640 38 663 19 657 b 104 507 19 615 64 614 l 299 1 b 336 -7 303 -8 319 -10 b 371 18 358 -3 365 4 l 560 533 l 746 1 b 782 -7 749 -8 764 -11 b 815 18 801 -3 808 4 l 1018 508 b 1110 643 1063 615 1110 617 b 1060 664 1110 660 1088 664 z "},"ẅ":{"ha":1125,"x_min":0,"x_max":0,"o":"m 463 801 b 539 871 500 801 539 832 b 482 926 539 903 515 926 b 410 850 443 926 410 888 b 463 801 410 821 433 801 z m 647 801 b 724 871 685 801 724 832 b 667 926 724 903 699 926 b 594 850 626 926 594 888 b 647 801 594 821 618 801 z m 993 664 b 943 643 961 664 943 660 b 969 508 943 617 1014 615 l 801 103 l 600 668 b 579 679 597 676 590 681 b 554 658 567 676 560 671 l 353 110 l 197 507 b 239 642 154 614 239 615 b 190 663 239 658 218 663 l 69 663 b 19 640 38 663 19 657 b 104 507 19 615 64 614 l 299 1 b 336 -7 303 -8 319 -10 b 371 18 358 -3 365 4 l 560 533 l 746 1 b 782 -7 749 -8 764 -11 b 815 18 801 -3 808 4 l 1018 508 b 1110 643 1063 615 1110 617 b 1060 664 1110 660 1088 664 z "},"ẁ":{"ha":1125,"x_min":0,"x_max":0,"o":"m 686 751 b 699 774 703 757 701 768 b 610 861 694 785 661 814 b 493 922 557 906 528 933 b 465 856 469 913 454 886 b 686 751 483 807 631 732 z m 993 664 b 943 643 961 664 943 660 b 969 508 943 617 1014 615 l 801 103 l 600 668 b 579 679 597 676 590 681 b 554 658 567 676 560 671 l 353 110 l 197 507 b 239 642 154 614 239 615 b 190 663 239 658 218 663 l 69 663 b 19 640 38 663 19 657 b 104 507 19 615 64 614 l 299 1 b 336 -7 303 -8 319 -10 b 371 18 358 -3 365 4 l 560 533 l 746 1 b 782 -7 749 -8 764 -11 b 815 18 801 -3 808 4 l 1018 508 b 1110 643 1063 615 1110 617 b 1060 664 1110 660 1088 664 z "},"x":{"ha":686,"x_min":0,"x_max":0,"o":"m 501 518 b 625 644 568 611 625 619 b 575 667 625 663 603 667 l 490 667 b 439 644 457 667 439 661 b 450 518 439 619 517 613 l 358 392 l 272 518 b 288 644 207 613 288 619 b 238 667 288 663 265 667 l 94 667 b 43 644 63 667 43 661 b 168 518 43 619 103 613 l 297 328 l 158 147 b 33 22 88 56 33 47 b 82 0 33 4 54 0 l 168 0 b 218 22 200 0 218 6 b 210 147 218 47 139 56 l 322 292 l 421 149 b 406 22 486 54 406 47 b 456 0 406 4 428 0 l 599 0 b 650 22 631 0 650 6 b 525 149 650 47 590 54 l 383 356 z "},"y":{"ha":706,"x_min":0,"x_max":0,"o":"m 576 667 b 526 644 544 667 526 661 b 554 511 526 619 596 618 l 376 65 l 203 511 b 246 644 161 618 246 619 b 196 667 246 663 224 667 l 75 667 b 25 644 43 667 25 661 b 111 511 25 619 68 618 l 283 76 b 313 -43 299 40 313 6 b 225 -211 313 -118 276 -211 b 103 -156 172 -211 144 -153 b 54 -212 74 -157 54 -183 b 161 -292 54 -243 81 -292 b 414 26 307 -292 340 -160 l 600 511 b 689 644 642 618 689 619 b 640 667 689 663 668 667 z "},"":{"ha":706,"x_min":0,"x_max":0,"o":"m 576 667 b 526 644 544 667 526 661 b 554 511 526 619 596 618 l 376 65 l 203 511 b 246 644 161 618 246 619 b 196 667 246 663 224 667 l 75 667 b 25 644 43 667 25 661 b 111 511 25 619 68 618 l 283 76 b 313 -43 299 40 313 6 b 225 -211 313 -118 276 -211 b 103 -156 172 -211 144 -153 b 54 -212 74 -157 54 -183 b 161 -292 54 -243 81 -292 b 414 26 307 -292 340 -160 l 600 511 b 689 644 642 618 689 619 b 640 667 689 663 668 667 z "},"ý":{"ha":706,"x_min":0,"x_max":0,"o":"m 256 751 b 476 856 311 732 458 807 b 449 922 488 886 472 913 b 332 861 414 933 385 906 b 243 774 281 814 247 785 b 256 751 240 768 239 757 z m 576 667 b 526 644 544 667 526 661 b 554 511 526 619 596 618 l 376 65 l 203 511 b 246 644 161 618 246 619 b 196 667 246 663 224 667 l 75 667 b 25 644 43 667 25 661 b 111 511 25 619 68 618 l 283 76 b 313 -43 299 40 313 6 b 225 -211 313 -118 276 -211 b 103 -156 172 -211 144 -153 b 54 -212 74 -157 54 -183 b 161 -292 54 -243 81 -292 b 414 26 307 -292 340 -160 l 600 511 b 689 644 642 618 689 619 b 640 667 689 663 668 667 z "},"ŷ":{"ha":706,"x_min":0,"x_max":0,"o":"m 201 751 b 338 833 233 749 301 794 b 474 751 374 794 442 749 b 489 768 489 753 489 761 b 425 863 488 778 458 810 b 342 939 382 928 379 939 b 246 857 304 939 299 931 b 186 768 210 807 188 778 b 201 751 186 761 186 753 z m 576 667 b 526 644 544 667 526 661 b 554 511 526 619 596 618 l 376 65 l 203 511 b 246 644 161 618 246 619 b 196 667 246 663 224 667 l 75 667 b 25 644 43 667 25 661 b 111 511 25 619 68 618 l 283 76 b 313 -43 299 40 313 6 b 225 -211 313 -118 276 -211 b 103 -156 172 -211 144 -153 b 54 -212 74 -157 54 -183 b 161 -292 54 -243 81 -292 b 414 26 307 -292 340 -160 l 600 511 b 689 644 642 618 689 619 b 640 667 689 663 668 667 z "},"ÿ":{"ha":706,"x_min":0,"x_max":0,"o":"m 279 801 b 356 871 317 801 356 832 b 299 926 356 903 332 926 b 226 850 260 926 226 888 b 279 801 226 821 250 801 z m 464 801 b 540 871 501 801 540 832 b 483 926 540 903 515 926 b 411 850 443 926 411 888 b 464 801 411 821 435 801 z m 576 667 b 526 644 544 667 526 661 b 554 511 526 619 596 618 l 376 65 l 203 511 b 246 644 161 618 246 619 b 196 667 246 663 224 667 l 75 667 b 25 644 43 667 25 661 b 111 511 25 619 68 618 l 283 76 b 313 -43 299 40 313 6 b 225 -211 313 -118 276 -211 b 103 -156 172 -211 144 -153 b 54 -212 74 -157 54 -183 b 161 -292 54 -243 81 -292 b 414 26 307 -292 340 -160 l 600 511 b 689 644 642 618 689 619 b 640 667 689 663 668 667 z "},"ỳ":{"ha":706,"x_min":0,"x_max":0,"o":"m 449 751 b 461 774 465 757 464 768 b 372 861 457 785 424 814 b 256 922 319 906 290 933 b 228 856 232 913 217 886 b 449 751 246 807 393 732 z m 576 667 b 526 644 544 667 526 661 b 554 511 526 619 596 618 l 376 65 l 203 511 b 246 644 161 618 246 619 b 196 667 246 663 224 667 l 75 667 b 25 644 43 667 25 661 b 111 511 25 619 68 618 l 283 76 b 313 -43 299 40 313 6 b 225 -211 313 -118 276 -211 b 103 -156 172 -211 144 -153 b 54 -212 74 -157 54 -183 b 161 -292 54 -243 81 -292 b 414 26 307 -292 340 -160 l 600 511 b 689 644 642 618 689 619 b 640 667 689 663 668 667 z "},"z":{"ha":690,"x_min":0,"x_max":0,"o":"m 625 176 b 583 144 606 182 597 167 b 379 42 533 67 463 42 l 192 42 l 617 629 b 597 667 632 651 621 667 l 165 667 b 88 599 122 667 96 640 b 75 533 82 576 78 556 b 88 493 72 511 78 496 b 131 528 107 489 115 506 b 329 626 179 600 244 626 l 508 626 l 82 38 b 101 0 67 17 76 0 l 543 0 b 617 65 586 0 606 24 b 632 136 622 88 628 107 b 625 176 636 158 635 174 z "},"ź":{"ha":690,"x_min":0,"x_max":0,"o":"m 271 751 b 492 856 326 732 474 807 b 464 922 503 886 488 913 b 347 861 429 933 400 906 b 258 774 296 814 263 785 b 271 751 256 768 254 757 z m 625 176 b 583 144 606 182 597 167 b 379 42 533 67 463 42 l 192 42 l 617 629 b 597 667 632 651 621 667 l 165 667 b 88 599 122 667 96 640 b 75 533 82 576 78 556 b 88 493 72 511 78 496 b 131 528 107 489 115 506 b 329 626 179 600 244 626 l 508 626 l 82 38 b 101 0 67 17 76 0 l 543 0 b 617 65 586 0 606 24 b 632 136 622 88 628 107 b 625 176 636 158 635 174 z "},"ž":{"ha":690,"x_min":0,"x_max":0,"o":"m 357 761 b 440 838 394 761 397 771 b 504 931 474 890 503 922 b 489 949 504 939 504 947 b 353 867 457 951 389 904 b 217 949 317 904 249 951 b 201 931 201 947 201 939 b 261 843 203 922 225 893 b 357 761 314 769 319 761 z m 625 176 b 583 144 606 182 597 167 b 379 42 533 67 463 42 l 192 42 l 617 629 b 597 667 632 651 621 667 l 165 667 b 88 599 122 667 96 640 b 75 533 82 576 78 556 b 88 493 72 511 78 496 b 131 528 107 489 115 506 b 329 626 179 600 244 626 l 508 626 l 82 38 b 101 0 67 17 76 0 l 543 0 b 617 65 586 0 606 24 b 632 136 622 88 628 107 b 625 176 636 158 635 174 z "},"ż":{"ha":690,"x_min":0,"x_max":0,"o":"m 356 789 b 457 868 397 783 453 832 b 411 931 461 894 442 926 b 306 847 365 939 310 890 b 356 789 301 813 326 792 z m 625 176 b 583 144 606 182 597 167 b 379 42 533 67 463 42 l 192 42 l 617 629 b 597 667 632 651 621 667 l 165 667 b 88 599 122 667 96 640 b 75 533 82 576 78 556 b 88 493 72 511 78 496 b 131 528 107 489 115 506 b 329 626 179 600 244 626 l 508 626 l 82 38 b 101 0 67 17 76 0 l 543 0 b 617 65 586 0 606 24 b 632 136 622 88 628 107 b 625 176 636 158 635 174 z "},"ª":{"ha":488,"x_min":0,"x_max":0,"o":"m 456 607 b 410 653 440 607 419 604 l 371 858 b 231 986 356 935 317 986 b 74 924 154 986 94 950 b 90 907 63 908 74 897 b 217 944 131 929 161 944 b 325 813 299 944 307 892 b 217 826 290 822 260 826 b 44 688 121 826 44 771 b 217 553 44 614 104 553 b 360 624 265 553 325 578 b 411 556 364 583 368 556 b 474 599 449 556 474 582 b 456 607 474 608 465 607 z m 221 585 b 106 690 149 585 108 631 b 232 796 103 756 147 796 b 333 767 260 796 331 789 b 351 678 340 725 347 701 b 221 585 358 638 288 585 z "},"º":{"ha":524,"x_min":0,"x_max":0,"o":"m 253 553 b 471 778 383 553 471 651 b 274 986 471 897 385 986 b 49 754 140 986 49 885 b 253 553 49 631 136 553 z m 274 585 b 106 788 176 585 106 667 b 247 950 106 882 161 950 b 415 746 342 950 415 858 b 274 585 415 647 357 585 z "},"А":{"ha":926,"x_min":0,"x_max":0,"o":"m 201 260 b 447 304 217 304 217 304 b 676 265 661 304 661 304 l 719 154 b 679 19 763 47 679 58 b 729 0 679 4 701 0 l 854 0 b 917 24 897 0 917 4 b 815 154 917 60 860 40 l 501 954 b 475 972 497 965 488 972 l 367 972 b 332 949 336 972 332 961 b 381 853 332 910 408 922 l 111 156 b -3 19 63 31 -3 63 b 46 0 -3 4 18 0 l 151 0 b 194 25 176 0 194 6 b 161 156 194 61 117 40 z m 449 346 b 244 371 235 346 235 346 l 436 874 l 631 382 b 449 346 644 346 644 346 z "},"Б":{"ha":838,"x_min":0,"x_max":0,"o":"m 297 663 b 261 661 282 663 271 661 b 232 688 242 660 232 669 l 232 860 b 411 926 232 906 251 926 l 481 926 b 683 793 583 926 642 881 b 733 744 701 757 711 740 b 747 785 751 749 750 763 b 713 935 739 850 725 897 b 621 974 703 967 699 974 l 132 972 b 69 951 92 972 69 974 b 146 810 69 914 146 951 l 146 163 b 69 21 146 21 69 58 b 132 0 69 -1 92 0 l 376 0 b 796 311 656 0 796 125 b 297 663 796 517 625 663 z m 378 49 b 232 86 240 49 232 63 l 232 578 b 307 615 232 607 244 617 b 694 283 526 611 694 474 b 378 49 694 97 554 49 z "},"В":{"ha":814,"x_min":0,"x_max":0,"o":"m 444 576 b 643 756 593 590 642 672 b 322 972 643 886 540 972 l 132 972 b 69 951 92 972 69 974 b 146 810 69 914 146 951 l 146 163 b 69 21 146 21 69 58 b 132 0 69 -1 92 0 l 340 0 b 771 300 601 0 771 68 b 444 576 771 457 628 560 z m 232 863 b 332 926 232 919 261 926 b 547 749 458 926 547 860 b 318 603 547 650 493 603 b 232 629 268 603 232 603 z m 339 46 b 232 143 249 46 232 75 l 232 496 b 325 554 232 532 236 554 b 672 288 546 554 672 457 b 339 46 672 113 560 46 z "},"Г":{"ha":736,"x_min":0,"x_max":0,"o":"m 761 785 b 726 935 753 850 739 897 b 635 974 717 967 713 974 l 132 972 b 69 951 92 972 69 974 b 146 810 69 914 146 951 l 146 182 b 69 21 146 29 69 63 b 132 0 69 4 92 0 l 243 0 b 307 21 288 0 307 4 b 232 182 307 63 232 29 l 232 860 b 411 926 232 906 251 926 l 494 926 b 697 793 597 926 656 881 b 747 744 715 757 725 740 b 761 785 765 749 764 763 z "},"Ґ":{"ha":758,"x_min":0,"x_max":0,"o":"m 747 1156 b 697 1108 725 1160 715 1144 b 494 974 656 1019 597 974 l 132 972 b 69 951 92 972 69 974 b 146 810 69 914 146 951 l 146 182 b 69 21 146 29 69 63 b 132 0 69 4 92 0 l 243 0 b 307 21 288 0 307 4 b 232 182 307 63 232 29 l 232 860 b 411 926 232 906 251 926 l 635 926 b 726 965 713 926 717 933 b 761 1117 739 1003 753 1050 b 747 1156 764 1138 765 1151 z "},"Д":{"ha":996,"x_min":0,"x_max":0,"o":"m 971 -115 b 954 6 969 -69 965 -33 b 840 47 946 33 936 47 b 800 101 804 47 800 53 l 800 810 b 878 951 800 951 878 914 b 814 972 878 974 856 972 l 304 972 b 226 943 236 972 226 965 b 300 808 226 908 300 918 b 164 85 300 610 276 313 b 107 46 147 50 140 46 b 32 4 49 46 39 31 b 14 -117 21 -35 15 -72 b 39 -154 13 -135 14 -154 b 89 -100 53 -154 67 -142 b 265 -1 124 -35 181 -1 l 719 0 b 897 -97 806 0 861 -33 b 947 -153 918 -140 932 -153 b 971 -115 971 -153 972 -133 z m 218 46 b 372 850 317 332 336 493 b 546 926 378 914 433 926 b 714 860 692 926 714 906 l 714 47 z "},"Е":{"ha":831,"x_min":0,"x_max":0,"o":"m 764 217 b 714 160 747 218 735 208 b 524 47 681 79 660 47 l 408 46 b 232 117 251 46 232 65 l 232 499 b 343 567 232 569 276 567 l 396 567 b 608 446 563 565 569 433 b 615 518 626 451 628 463 l 592 610 b 560 657 583 646 572 657 b 396 613 525 657 556 613 l 343 613 b 232 681 276 613 232 611 l 232 861 b 411 926 232 906 251 926 l 496 926 b 699 793 599 926 657 881 b 750 744 718 757 726 740 b 764 785 768 749 767 763 b 729 935 756 850 742 897 b 638 974 719 967 714 974 l 132 972 b 69 951 92 972 69 974 b 146 810 69 914 146 951 l 146 163 b 69 21 146 21 69 58 b 132 0 69 -1 92 0 l 649 0 b 758 42 740 0 750 15 b 779 179 769 81 774 118 b 764 217 781 197 779 214 z "},"Ё":{"ha":831,"x_min":0,"x_max":0,"o":"m 301 1086 b 378 1154 339 1086 378 1115 b 319 1210 378 1186 353 1210 b 249 1133 281 1210 249 1171 b 301 1086 249 1104 271 1086 z m 485 1086 b 563 1154 522 1086 563 1115 b 504 1210 563 1186 538 1210 b 433 1133 465 1210 433 1171 b 485 1086 433 1104 456 1086 z m 764 217 b 714 160 747 218 735 208 b 524 47 681 79 660 47 l 408 46 b 232 117 251 46 232 65 l 232 499 b 343 567 232 569 276 567 l 396 567 b 608 446 563 565 569 433 b 615 518 626 451 628 463 l 592 610 b 560 657 583 646 572 657 b 396 613 525 657 556 613 l 343 613 b 232 681 276 613 232 611 l 232 861 b 411 926 232 906 251 926 l 496 926 b 699 793 599 926 657 881 b 750 744 718 757 726 740 b 764 785 768 749 767 763 b 729 935 756 850 742 897 b 638 974 719 967 714 974 l 132 972 b 69 951 92 972 69 974 b 146 810 69 914 146 951 l 146 163 b 69 21 146 21 69 58 b 132 0 69 -1 92 0 l 649 0 b 758 42 740 0 750 15 b 779 179 769 81 774 118 b 764 217 781 197 779 214 z "},"Ж":{"ha":1417,"x_min":0,"x_max":0,"o":"m 1197 851 b 1343 951 1286 932 1343 910 b 1279 972 1343 968 1321 972 l 1164 972 b 1122 950 1142 972 1122 968 b 1129 851 1122 904 1208 924 l 742 500 l 742 790 b 822 951 742 943 822 910 b 758 972 822 968 800 972 l 643 972 b 579 951 599 972 579 968 b 657 790 579 910 657 943 l 657 514 l 283 851 b 292 950 204 924 292 904 b 249 972 292 968 272 972 l 133 972 b 71 951 92 972 71 968 b 215 851 71 910 128 932 l 365 715 l 101 122 b 1 21 63 36 1 54 b 44 0 1 4 21 0 l 158 0 b 224 25 200 0 224 4 b 200 133 224 54 163 47 l 426 660 l 657 451 l 657 182 b 576 21 657 29 576 63 b 640 0 576 4 599 0 l 756 0 b 819 21 800 0 819 4 b 742 182 819 63 742 29 l 742 439 l 986 660 l 1213 133 b 1189 25 1250 47 1189 54 b 1254 0 1189 4 1213 0 l 1368 0 b 1411 21 1392 0 1411 4 b 1311 122 1411 54 1350 36 l 1047 715 z "},"З":{"ha":746,"x_min":0,"x_max":0,"o":"m 440 538 b 635 778 553 560 638 651 b 383 983 632 942 475 983 b 207 969 285 983 251 969 b 151 983 178 969 169 983 b 101 908 124 983 115 967 b 79 765 92 874 82 819 b 99 726 78 744 79 726 b 143 764 115 726 128 738 b 369 933 188 838 236 933 b 540 763 463 933 540 883 b 278 560 540 633 465 579 b 279 508 242 556 238 510 b 596 258 518 501 596 394 b 356 40 596 117 486 40 b 113 213 215 40 150 129 b 75 260 99 243 92 257 b 49 221 54 260 47 243 b 71 93 53 156 63 133 b 172 8 79 43 121 21 b 332 -11 208 -1 269 -8 b 697 281 524 -15 697 81 b 440 538 697 401 638 511 z "},"И":{"ha":1083,"x_min":0,"x_max":0,"o":"m 243 0 b 307 21 288 0 307 4 b 233 129 307 61 239 40 b 244 161 232 143 233 151 l 851 763 l 851 149 b 847 110 851 136 850 122 b 774 21 836 40 774 54 b 838 0 774 4 796 0 l 949 0 b 1011 21 992 0 1011 4 b 942 110 1011 53 956 43 b 938 149 939 122 938 136 l 938 824 b 942 863 938 836 939 850 b 1014 951 951 932 1014 918 b 951 972 1014 968 992 972 l 840 972 b 776 951 796 972 776 968 b 851 854 776 921 840 926 b 839 824 853 842 850 833 l 232 222 l 232 824 b 236 863 232 836 233 850 b 310 951 247 932 310 918 b 246 972 310 968 288 972 l 135 972 b 72 951 92 972 72 968 b 142 863 72 919 128 929 b 146 824 144 850 146 836 l 146 149 b 142 110 146 136 144 122 b 69 21 132 40 69 54 b 132 0 69 4 92 0 z "},"Й":{"ha":1083,"x_min":0,"x_max":0,"o":"m 542 1050 b 731 1190 651 1050 731 1115 b 692 1233 731 1211 717 1233 b 544 1094 619 1233 640 1094 b 393 1233 446 1094 467 1233 b 356 1190 368 1233 356 1211 b 542 1050 356 1114 435 1050 z m 243 0 b 307 21 288 0 307 4 b 233 129 307 61 239 40 b 244 161 232 143 233 151 l 851 763 l 851 149 b 847 110 851 136 850 122 b 774 21 836 40 774 54 b 838 0 774 4 796 0 l 949 0 b 1011 21 992 0 1011 4 b 942 110 1011 53 956 43 b 938 149 939 122 938 136 l 938 824 b 942 863 938 836 939 850 b 1014 951 951 932 1014 918 b 951 972 1014 968 992 972 l 840 972 b 776 951 796 972 776 968 b 851 854 776 921 840 926 b 839 824 853 842 850 833 l 232 222 l 232 824 b 236 863 232 836 233 850 b 310 951 247 932 310 918 b 246 972 310 968 288 972 l 135 972 b 72 951 92 972 72 968 b 142 863 72 919 128 929 b 146 824 144 850 146 836 l 146 149 b 142 110 146 136 144 122 b 69 21 132 40 69 54 b 132 0 69 4 92 0 z "},"К":{"ha":926,"x_min":0,"x_max":0,"o":"m 708 851 b 853 951 796 932 853 910 b 789 972 853 968 832 972 l 671 972 b 629 950 649 972 629 968 b 638 851 629 904 715 924 l 232 472 l 232 790 b 310 951 232 943 310 910 b 246 972 310 968 288 972 l 135 972 b 72 951 92 972 72 968 b 146 790 72 910 146 943 l 146 182 b 69 21 146 29 69 63 b 132 0 69 4 92 0 l 243 0 b 307 21 288 0 307 4 b 232 182 307 63 232 29 l 232 407 l 499 656 l 722 133 b 700 26 760 47 700 54 b 765 0 700 4 724 0 l 878 0 b 922 21 903 0 922 4 b 822 124 922 56 860 38 l 560 713 z "},"Л":{"ha":953,"x_min":0,"x_max":0,"o":"m 132 -14 b 256 44 164 -14 214 -7 b 386 850 363 172 367 497 b 567 926 392 914 438 926 b 725 860 696 926 725 906 l 725 183 b 647 22 725 31 647 64 b 711 1 647 6 669 1 l 821 1 b 885 22 865 1 885 6 b 810 183 885 64 810 31 l 810 806 b 889 951 810 917 889 915 b 810 972 889 964 881 972 l 333 972 b 254 951 263 972 254 964 b 329 808 254 915 329 917 b 178 89 329 347 274 89 b 75 172 124 89 131 172 b 10 99 46 172 10 157 b 132 -14 10 28 69 -14 z "},"М":{"ha":1210,"x_min":0,"x_max":0,"o":"m 1038 828 b 1097 953 1035 933 1097 922 b 1053 972 1097 967 1088 972 l 979 972 b 950 953 965 972 956 967 l 593 158 l 267 951 b 238 972 260 967 251 972 l 157 972 b 113 953 122 972 113 967 b 172 828 113 926 176 921 l 149 163 b 69 25 144 42 69 69 b 128 0 69 4 93 0 l 203 0 b 264 25 246 0 264 6 b 197 163 264 68 193 42 l 224 839 l 539 74 b 578 64 543 63 554 58 b 607 86 593 69 601 75 l 615 104 l 954 846 l 974 156 b 899 24 976 49 899 61 b 963 0 899 4 921 0 l 1075 0 b 1129 24 1110 0 1129 4 b 1058 156 1129 60 1063 50 z "},"Н":{"ha":1050,"x_min":0,"x_max":0,"o":"m 904 790 b 981 951 904 943 981 910 b 918 972 981 968 958 972 l 807 972 b 743 951 763 972 743 968 b 818 790 743 910 818 943 l 818 611 b 536 540 818 540 818 540 b 232 611 232 540 232 540 l 232 790 b 310 951 232 943 310 910 b 246 972 310 968 288 972 l 135 972 b 72 951 92 972 72 968 b 146 790 72 910 146 943 l 146 182 b 69 21 146 29 69 63 b 132 0 69 4 92 0 l 243 0 b 307 21 288 0 307 4 b 232 182 307 63 232 29 l 232 422 b 535 493 232 493 232 493 b 818 422 818 493 818 493 l 818 182 b 740 21 818 29 740 63 b 804 0 740 4 763 0 l 915 0 b 978 21 958 0 978 4 b 904 182 978 63 904 29 z "},"О":{"ha":1063,"x_min":0,"x_max":0,"o":"m 503 -14 b 1008 525 808 -14 1008 215 b 561 986 1008 789 835 986 b 54 447 263 986 54 746 b 503 -14 54 182 224 -14 z m 554 49 b 140 533 303 49 140 243 b 517 928 140 718 274 928 b 918 463 765 928 918 725 b 554 49 918 254 790 49 z "},"П":{"ha":1011,"x_min":0,"x_max":0,"o":"m 865 810 b 942 951 865 951 942 914 b 879 972 942 974 919 972 l 132 972 b 69 951 92 972 69 974 b 146 810 69 914 146 951 l 146 183 b 69 22 146 31 69 64 b 132 1 69 6 92 1 l 243 1 b 307 22 288 1 307 6 b 232 183 307 64 232 31 l 232 861 b 511 924 232 906 250 924 b 779 861 763 924 779 906 l 779 183 b 701 22 779 31 701 64 b 765 1 701 6 724 1 l 876 1 b 939 22 919 1 939 6 b 865 183 939 64 865 31 z "},"Р":{"ha":846,"x_min":0,"x_max":0,"o":"m 132 972 b 69 951 92 972 69 974 b 146 810 69 914 146 951 l 146 182 b 69 21 146 29 69 63 b 132 0 69 4 92 0 l 243 0 b 307 21 288 0 307 4 b 232 182 307 63 232 29 l 232 290 b 260 318 232 318 231 318 l 389 318 b 804 640 668 318 804 442 b 351 972 804 813 653 972 z m 389 364 b 232 401 242 364 232 379 l 232 888 b 349 925 232 917 246 925 b 704 613 571 925 704 783 b 389 364 704 413 567 364 z "},"С":{"ha":936,"x_min":0,"x_max":0,"o":"m 513 -14 b 874 142 733 -14 843 108 b 850 185 903 182 874 213 b 544 49 788 115 701 49 b 146 504 313 49 146 236 b 499 921 146 715 276 921 b 796 749 661 921 738 842 b 844 706 811 724 825 703 b 860 744 860 708 864 724 b 822 910 843 826 832 874 b 772 983 806 967 799 983 b 708 967 754 983 738 967 b 539 986 664 967 617 986 b 54 460 264 986 54 758 b 513 -14 54 183 222 -14 z "},"Т":{"ha":875,"x_min":0,"x_max":0,"o":"m 481 856 b 563 929 481 908 500 929 b 742 814 682 929 699 893 b 793 757 765 769 775 757 b 817 794 817 757 818 776 b 800 932 815 857 811 893 b 690 974 792 960 782 974 l 185 972 b 75 931 93 972 82 957 b 58 793 64 892 58 854 b 82 756 57 775 58 756 b 133 813 99 756 110 768 b 313 928 176 892 193 928 b 394 854 375 928 394 907 l 394 182 b 317 21 394 29 317 63 b 381 0 317 4 339 0 l 492 0 b 554 21 535 0 554 4 b 481 182 554 63 481 29 z "},"У":{"ha":865,"x_min":0,"x_max":0,"o":"m 718 971 b 675 946 692 971 675 965 b 704 817 675 910 756 929 l 488 338 l 232 814 b 261 951 178 914 261 915 b 204 972 261 965 251 972 l 78 972 b 33 951 46 972 33 965 b 129 814 33 919 74 915 l 438 242 b 439 222 440 236 442 229 b 321 82 404 136 374 82 b 229 140 272 82 281 140 b 167 65 199 140 167 111 b 261 -14 167 1 229 -14 b 483 217 339 -14 394 22 l 756 817 b 872 950 811 939 872 908 b 824 971 872 965 851 971 z "},"Ф":{"ha":1054,"x_min":0,"x_max":0,"o":"m 581 0 b 644 21 625 0 644 4 b 569 176 644 71 576 10 b 586 192 569 188 576 193 b 699 185 615 189 646 185 b 996 492 860 185 996 311 b 697 803 996 667 875 803 b 583 799 649 803 618 801 b 571 814 575 797 571 803 b 647 951 575 950 647 906 b 583 972 647 968 625 972 l 474 972 b 410 951 429 972 410 968 b 483 814 410 903 479 957 b 468 799 483 803 478 797 b 357 803 433 801 397 803 b 58 492 197 803 58 671 b 357 185 58 315 186 185 b 471 189 403 185 439 189 b 485 175 478 190 485 185 b 407 21 478 18 407 69 b 471 0 407 4 429 0 z m 433 235 b 160 499 269 235 160 356 b 433 750 160 660 243 750 b 485 747 449 750 465 749 l 485 240 b 433 235 467 239 451 235 z m 631 235 b 569 242 610 235 590 238 l 569 747 b 621 750 589 749 606 750 b 894 499 810 750 894 663 b 631 235 894 349 801 235 z "},"Х":{"ha":953,"x_min":0,"x_max":0,"o":"m 771 846 b 900 953 839 939 900 910 b 851 972 900 967 879 972 l 754 972 b 713 947 729 972 713 967 b 715 844 713 911 776 931 l 493 536 l 275 826 b 304 953 206 917 304 913 b 253 972 304 968 282 972 l 101 972 b 36 947 54 972 36 967 b 167 826 36 913 93 924 l 419 489 l 158 128 b 31 19 92 33 31 63 b 79 0 31 6 50 0 l 175 0 b 218 25 200 0 218 6 b 215 126 218 61 153 42 l 447 453 l 678 146 b 649 19 747 56 649 61 b 700 0 649 4 671 0 l 851 0 b 917 25 899 0 917 6 b 786 146 917 61 860 49 l 519 500 z "},"Ч":{"ha":936,"x_min":0,"x_max":0,"o":"m 790 790 b 867 951 790 943 867 910 b 804 972 867 968 844 972 l 693 972 b 629 951 649 972 629 968 b 704 790 629 910 704 943 l 704 426 b 429 396 597 406 499 396 b 189 717 203 396 186 540 l 190 788 b 268 949 193 940 268 907 b 204 969 268 965 246 969 l 94 969 b 31 949 50 969 31 965 b 106 788 31 907 106 940 l 106 688 b 408 349 106 493 156 349 b 704 376 492 349 596 358 l 704 182 b 626 21 704 29 626 63 b 690 0 626 4 649 0 l 801 0 b 864 21 844 0 864 4 b 790 182 864 63 790 29 z "},"Ц":{"ha":1036,"x_min":0,"x_max":0,"o":"m 1011 -115 b 994 6 1010 -69 1006 -33 b 915 47 986 33 976 47 b 865 101 882 47 865 67 l 865 789 b 942 950 865 942 942 908 b 879 971 942 967 919 971 l 768 971 b 704 950 724 971 704 967 b 779 789 704 908 779 942 l 779 111 b 513 49 779 67 761 49 b 232 111 247 49 232 67 l 232 789 b 310 950 232 942 310 908 b 246 971 310 967 288 971 l 135 971 b 72 950 92 971 72 967 b 146 789 72 908 146 942 l 146 163 b 69 21 146 21 69 58 b 132 0 69 -1 92 0 l 760 0 b 938 -97 846 0 903 -33 b 988 -153 960 -140 972 -153 b 1011 -115 1011 -153 1013 -133 z "},"Ш":{"ha":1476,"x_min":0,"x_max":0,"o":"m 1331 789 b 1408 950 1331 942 1408 908 b 1344 971 1408 967 1386 971 l 1235 971 b 1171 950 1190 971 1171 967 b 1246 789 1171 908 1246 942 l 1246 111 b 1021 49 1246 67 1228 49 b 782 111 797 49 782 67 l 782 789 b 861 950 782 942 861 908 b 797 971 861 967 839 971 l 682 971 b 618 950 638 971 618 967 b 696 789 618 908 696 942 l 696 111 b 471 49 696 67 678 49 b 232 111 247 49 232 67 l 232 789 b 310 950 232 942 310 908 b 246 971 310 967 288 971 l 135 971 b 72 950 92 971 72 967 b 146 789 72 908 146 942 l 146 163 b 69 21 146 21 69 58 b 132 0 69 -1 92 0 l 1344 0 b 1408 21 1386 0 1408 -1 b 1331 163 1408 58 1331 21 z "},"Щ":{"ha":1501,"x_min":0,"x_max":0,"o":"m 1478 -115 b 1460 6 1476 -69 1471 -33 b 1381 47 1453 33 1443 47 b 1331 101 1349 47 1331 67 l 1331 789 b 1408 950 1331 942 1408 908 b 1344 971 1408 967 1386 971 l 1235 971 b 1171 950 1190 971 1171 967 b 1246 789 1171 908 1246 942 l 1246 111 b 1021 49 1246 67 1228 49 b 782 111 797 49 782 67 l 782 789 b 861 950 782 942 861 908 b 797 971 861 967 839 971 l 682 971 b 618 950 638 971 618 967 b 696 789 618 908 696 942 l 696 111 b 471 49 696 67 678 49 b 232 111 247 49 232 67 l 232 789 b 310 950 232 942 310 908 b 246 971 310 967 288 971 l 135 971 b 72 950 92 971 72 967 b 146 789 72 908 146 942 l 146 163 b 69 21 146 21 69 58 b 132 0 69 -1 92 0 l 1226 0 b 1404 -97 1313 0 1368 -33 b 1454 -153 1425 -140 1439 -153 b 1478 -115 1478 -153 1479 -133 z "},"Ь":{"ha":842,"x_min":0,"x_max":0,"o":"m 297 663 b 261 661 282 663 271 661 b 232 688 242 660 232 669 l 232 789 b 310 950 232 942 310 908 b 246 971 310 967 288 971 l 135 971 b 72 950 92 971 72 967 b 146 789 72 908 146 942 l 146 163 b 69 21 146 21 69 58 b 132 0 69 -1 92 0 l 376 0 b 796 311 656 0 796 125 b 297 663 796 517 625 663 z m 378 46 b 232 82 240 46 232 60 l 232 578 b 307 615 232 607 244 617 b 694 283 526 611 694 474 b 378 46 694 97 554 46 z "},"Ы":{"ha":1240,"x_min":0,"x_max":0,"o":"m 1094 790 b 1172 951 1094 943 1172 910 b 1108 972 1172 968 1150 972 l 997 972 b 933 951 953 972 933 968 b 1008 790 933 910 1008 943 l 1008 182 b 931 21 1008 29 931 63 b 994 0 931 4 953 0 l 1106 0 b 1169 21 1150 0 1169 4 b 1094 182 1169 63 1094 29 z m 297 663 b 261 661 282 663 271 661 b 232 688 242 660 232 669 l 232 789 b 310 950 232 942 310 908 b 246 971 310 967 288 971 l 135 971 b 72 950 92 971 72 967 b 146 789 72 908 146 942 l 146 163 b 69 21 146 21 69 58 b 132 0 69 -1 92 0 l 376 0 b 796 311 656 0 796 125 b 297 663 796 517 625 663 z m 378 46 b 232 82 240 46 232 60 l 232 578 b 307 615 232 607 244 617 b 694 283 526 611 694 474 b 378 46 694 97 554 46 z "},"Ъ":{"ha":985,"x_min":0,"x_max":0,"o":"m 482 663 b 447 661 468 663 457 661 b 417 688 426 660 417 669 l 417 810 b 494 951 417 951 494 914 b 431 972 494 974 472 972 l 129 972 b 29 931 46 972 36 964 b 7 750 19 892 10 815 b 26 711 6 729 7 711 b 71 768 43 711 51 722 b 250 926 104 854 139 926 b 332 839 279 926 332 932 l 332 165 b 254 24 332 25 254 63 b 318 3 254 3 276 3 l 332 3 l 332 0 l 563 0 b 981 311 842 0 981 125 b 482 663 981 517 811 663 z m 563 49 b 417 86 426 49 417 63 l 417 578 b 492 615 417 607 431 617 b 881 283 711 611 881 474 b 563 49 881 97 740 49 z "},"Є":{"ha":901,"x_min":0,"x_max":0,"o":"m 813 165 b 538 61 750 108 661 61 b 146 476 319 61 157 224 b 326 422 215 439 275 422 b 542 489 413 422 469 489 b 696 431 596 489 667 431 b 722 453 713 431 722 436 b 503 568 722 481 586 568 b 264 493 435 568 350 493 b 146 528 224 493 183 506 b 483 925 154 731 260 925 b 794 738 669 925 733 818 b 836 699 813 713 819 699 b 853 738 854 699 857 717 b 813 910 836 819 822 874 b 764 983 799 967 790 983 b 707 969 744 983 736 969 b 536 986 663 969 628 986 b 54 460 240 986 54 758 b 499 -14 54 183 222 -14 b 839 124 692 -14 808 89 b 813 165 867 163 839 189 z "},"Э":{"ha":888,"x_min":0,"x_max":0,"o":"m 422 986 b 183 969 285 986 228 969 b 126 983 154 969 146 983 b 76 910 100 983 92 967 b 56 738 68 874 58 819 b 75 699 54 717 57 699 b 114 740 92 699 99 713 b 407 943 161 818 217 943 b 746 528 654 943 746 717 b 628 493 708 506 668 493 b 389 568 542 493 457 568 b 168 453 306 568 168 481 b 196 431 168 436 178 431 b 350 489 224 431 296 489 b 565 422 422 489 479 422 b 744 476 617 422 676 439 b 413 43 728 217 583 43 b 126 214 265 43 169 125 b 90 257 113 242 108 254 b 65 218 71 258 64 242 b 88 90 69 154 79 132 b 189 6 96 40 138 19 b 351 -11 225 -4 278 -10 b 835 514 669 -14 835 242 b 422 986 835 803 650 986 z "},"І":{"ha":378,"x_min":0,"x_max":0,"o":"m 146 182 b 69 21 146 29 69 63 b 132 0 69 4 92 0 l 243 0 b 307 21 288 0 307 4 b 232 182 307 63 232 29 l 232 790 b 310 951 232 943 310 910 b 246 972 310 968 288 972 l 135 972 b 72 951 92 972 72 968 b 146 790 72 910 146 943 z "},"Ї":{"ha":378,"x_min":0,"x_max":0,"o":"m 74 1086 b 150 1154 111 1086 150 1115 b 92 1210 150 1186 125 1210 b 21 1133 53 1210 21 1171 b 74 1086 21 1104 43 1086 z m 257 1086 b 335 1154 294 1086 335 1115 b 276 1210 335 1186 310 1210 b 206 1133 238 1210 206 1171 b 257 1086 206 1104 228 1086 z m 146 182 b 69 21 146 29 69 63 b 132 0 69 4 92 0 l 243 0 b 307 21 288 0 307 4 b 232 182 307 63 232 29 l 232 790 b 310 951 232 943 310 910 b 246 972 310 968 288 972 l 135 972 b 72 951 92 972 72 968 b 146 790 72 910 146 943 z "},"Ю":{"ha":1471,"x_min":0,"x_max":0,"o":"m 971 986 b 467 511 694 986 494 779 l 233 511 l 233 465 l 464 465 l 464 447 b 913 -14 464 182 632 -14 b 1418 525 1217 -14 1418 215 b 971 986 1418 789 1244 986 z m 232 790 b 310 951 232 943 310 910 b 246 972 310 968 288 972 l 135 972 b 72 951 92 972 72 968 b 146 790 72 910 146 943 l 146 182 b 69 21 146 29 69 63 b 132 0 69 4 92 0 l 243 0 b 307 21 288 0 307 4 b 232 182 307 63 232 29 z m 964 49 b 550 533 713 49 550 243 b 925 928 550 718 683 928 b 1328 463 1175 928 1328 725 b 964 49 1328 254 1199 49 z "},"Я":{"ha":857,"x_min":0,"x_max":0,"o":"m 711 810 b 789 951 711 951 789 914 b 725 972 789 974 767 972 l 536 972 b 82 629 242 972 82 826 b 275 372 82 515 150 421 l 149 128 b 47 21 103 38 47 56 b 92 0 47 4 67 0 l 207 0 b 275 26 251 0 275 4 b 249 133 275 54 206 49 l 360 350 b 481 339 397 343 438 339 l 597 339 b 625 311 628 339 625 340 l 625 183 b 551 22 625 31 551 64 b 614 1 551 6 571 1 l 725 1 b 789 22 767 1 789 6 b 711 183 789 64 711 31 z m 625 422 b 481 386 625 400 617 386 b 183 650 324 386 183 467 b 511 928 183 825 314 928 b 571 925 532 928 551 926 b 625 889 613 921 625 918 z "},"а":{"ha":739,"x_min":0,"x_max":0,"o":"m 693 72 b 618 147 668 74 633 69 l 556 475 b 331 679 532 599 469 679 b 81 581 210 679 114 622 b 108 553 64 557 82 538 b 310 614 172 589 221 614 b 483 403 442 614 453 529 b 308 425 426 418 379 425 b 35 203 157 425 35 336 b 308 -14 35 83 129 -14 b 538 100 388 -14 483 28 b 621 -10 546 35 553 -10 b 721 60 681 -10 721 35 b 693 72 721 75 708 72 z m 315 38 b 131 208 201 38 136 111 b 335 376 128 311 199 376 b 496 331 378 376 492 364 b 525 188 508 261 518 225 b 315 38 536 122 422 38 z "},"б":{"ha":774,"x_min":0,"x_max":0,"o":"m 411 688 b 124 450 293 688 174 615 b 265 801 136 658 208 764 b 583 876 389 871 489 829 b 656 975 633 900 656 932 b 614 979 656 1001 635 1001 b 567 954 601 967 585 958 b 481 946 543 949 510 946 b 283 906 388 940 315 922 b 68 410 122 826 68 628 b 394 -14 69 121 229 -14 b 721 356 607 -14 721 147 b 411 688 721 532 596 688 z m 432 40 b 164 361 247 40 164 207 b 386 621 164 511 260 621 b 632 329 529 621 624 521 b 432 40 640 157 544 40 z "},"в":{"ha":681,"x_min":0,"x_max":0,"o":"m 426 371 b 565 514 507 385 567 435 b 301 667 564 624 461 667 l 139 667 b 74 640 96 667 74 663 b 135 549 74 608 124 624 b 139 507 138 535 139 521 l 139 161 b 135 118 139 146 138 132 b 74 26 124 44 74 58 b 139 0 74 4 96 0 l 307 0 b 629 193 506 0 629 58 b 426 371 629 276 572 351 z m 222 576 b 299 618 222 614 231 618 b 479 507 410 618 479 586 b 290 385 479 426 438 385 b 222 401 251 385 222 385 z m 308 49 b 222 115 232 49 222 56 l 222 324 b 236 335 222 329 228 335 l 293 335 b 546 186 464 335 546 274 b 308 49 546 83 476 49 z "},"г":{"ha":582,"x_min":0,"x_max":0,"o":"m 565 525 b 543 625 560 567 553 589 b 442 667 532 660 526 667 l 139 667 b 74 640 96 667 74 663 b 135 549 74 608 124 624 b 139 507 138 535 139 521 l 139 176 b 74 22 139 42 74 61 b 122 0 74 4 94 0 l 240 0 b 290 22 272 0 290 6 b 228 176 290 61 228 42 l 228 568 b 311 619 228 614 233 619 b 496 536 432 619 460 583 b 547 485 524 496 531 482 b 565 525 567 488 568 504 z "},"ґ":{"ha":582,"x_min":0,"x_max":0,"o":"m 547 801 b 496 750 531 804 524 792 b 310 667 460 703 432 667 l 139 667 b 74 640 96 667 74 663 b 135 549 74 608 124 624 b 139 507 138 535 139 521 l 139 176 b 74 22 139 42 74 61 b 122 0 74 4 94 0 l 240 0 b 290 22 272 0 290 6 b 228 176 290 61 228 42 l 224 554 b 311 619 224 599 246 619 l 442 619 b 543 661 526 619 532 626 b 565 761 553 697 560 719 b 547 801 568 782 567 800 z "},"д":{"ha":735,"x_min":0,"x_max":0,"o":"m 36 -150 b 86 -94 53 -150 68 -137 b 257 0 113 -28 140 0 l 461 0 b 632 -94 578 0 606 -28 b 682 -150 650 -137 665 -150 b 707 -100 701 -150 708 -132 b 693 7 704 -57 703 -31 b 626 46 686 35 681 44 b 606 68 611 47 606 56 l 606 500 b 685 642 606 611 685 603 b 606 667 685 658 676 667 l 219 667 b 140 642 149 667 140 658 b 217 503 140 604 217 611 b 111 60 217 431 179 174 b 88 49 106 51 99 47 b 25 7 39 44 32 35 b 11 -100 15 -31 15 -57 b 36 -150 10 -132 17 -150 z m 167 47 b 278 569 204 135 250 269 b 410 619 282 613 301 619 b 517 565 507 619 517 613 l 517 47 z "},"е":{"ha":721,"x_min":0,"x_max":0,"o":"m 633 158 b 403 56 583 103 500 56 b 149 263 260 56 172 174 b 642 424 314 313 488 368 b 675 481 676 436 681 456 b 399 681 644 600 542 681 b 50 308 186 681 50 515 b 371 -14 50 129 179 -14 b 669 140 542 -14 640 76 b 633 158 683 171 653 181 z m 367 632 b 547 475 449 629 539 564 b 525 433 549 457 546 442 b 146 307 408 392 281 350 b 140 389 140 331 140 351 b 367 632 140 499 215 635 z "},"ё":{"ha":721,"x_min":0,"x_max":0,"o":"m 289 801 b 365 871 326 801 365 832 b 308 926 365 903 342 926 b 236 850 269 926 236 888 b 289 801 236 821 260 801 z m 474 801 b 550 871 511 801 550 832 b 493 926 550 903 525 926 b 421 850 453 926 421 888 b 474 801 421 821 444 801 z m 633 158 b 403 56 583 103 500 56 b 149 263 260 56 172 174 b 642 424 314 313 488 368 b 675 481 676 436 681 456 b 399 681 644 600 542 681 b 50 308 186 681 50 515 b 371 -14 50 129 179 -14 b 669 140 542 -14 640 76 b 633 158 683 171 653 181 z m 367 632 b 547 475 449 629 539 564 b 525 433 549 457 546 442 b 146 307 408 392 281 350 b 140 389 140 331 140 351 b 367 632 140 499 215 635 z "},"ж":{"ha":1186,"x_min":0,"x_max":0,"o":"m 976 560 b 1082 647 1054 643 1082 619 b 1042 667 1082 658 1071 667 l 925 667 b 894 646 897 667 894 654 b 924 575 894 625 957 611 l 635 267 l 635 490 b 701 644 635 625 701 606 b 651 667 701 663 679 667 l 535 667 b 485 644 503 667 485 661 b 547 490 485 606 547 625 l 547 269 l 260 575 b 289 646 228 611 289 625 b 258 667 289 654 288 667 l 143 667 b 103 647 113 667 103 658 b 207 560 103 619 129 643 l 282 481 l 132 138 b 39 22 94 53 39 53 b 97 0 39 6 51 0 l 210 0 b 260 21 249 0 260 4 b 217 113 260 57 194 63 l 347 410 l 547 196 l 547 176 b 481 22 547 42 481 61 b 531 0 481 4 503 0 l 647 0 b 699 22 679 0 699 6 b 635 176 699 61 635 42 l 635 194 l 836 410 l 967 113 b 925 21 989 63 925 57 b 975 0 925 4 935 0 l 1086 0 b 1146 22 1133 0 1146 6 b 1053 138 1146 53 1089 53 l 903 481 z "},"з":{"ha":604,"x_min":0,"x_max":0,"o":"m 368 371 b 507 529 451 388 508 446 b 299 681 506 636 400 681 b 178 671 224 681 204 671 b 140 681 160 671 154 681 b 101 636 124 681 110 669 b 76 528 93 610 83 568 b 89 503 74 515 75 503 b 121 528 99 503 108 511 b 294 633 161 579 207 633 b 404 533 379 633 404 581 b 196 385 404 481 371 397 b 194 340 172 383 169 339 b 451 181 411 338 451 257 b 289 44 451 75 372 44 b 88 118 196 44 128 79 b 53 97 65 140 33 126 b 304 -14 92 35 182 -14 b 551 197 424 -14 551 47 b 368 371 551 265 500 349 z "},"и":{"ha":828,"x_min":0,"x_max":0,"o":"m 240 0 b 290 22 272 0 290 6 b 232 113 290 57 244 43 b 246 149 229 131 231 135 l 604 461 l 607 161 b 603 118 607 146 606 132 b 542 22 592 44 542 58 b 590 0 542 4 563 0 l 708 0 b 758 22 740 0 758 6 b 696 118 758 58 710 44 b 692 161 693 132 692 146 l 692 507 b 696 549 692 521 693 535 b 758 644 707 624 758 608 b 708 667 758 663 736 667 l 592 667 b 542 644 560 667 542 661 b 600 550 542 610 588 617 b 588 510 603 532 606 525 l 224 194 l 224 507 b 228 549 224 521 225 535 b 290 644 239 624 290 608 b 240 667 290 663 268 667 l 124 667 b 74 644 92 667 74 661 b 132 549 74 608 118 624 b 136 507 135 535 136 521 l 139 161 b 135 118 139 146 138 132 b 74 22 124 44 74 58 b 122 0 74 4 94 0 z "},"й":{"ha":828,"x_min":0,"x_max":0,"o":"m 422 744 b 611 885 532 744 611 810 b 572 928 611 906 597 928 b 425 789 500 928 521 789 b 274 928 326 789 347 928 b 236 885 249 928 236 906 b 422 744 236 808 315 744 z m 240 0 b 290 22 272 0 290 6 b 232 113 290 57 244 43 b 246 149 229 131 231 135 l 604 461 l 607 161 b 603 118 607 146 606 132 b 542 22 592 44 542 58 b 590 0 542 4 563 0 l 708 0 b 758 22 740 0 758 6 b 696 118 758 58 710 44 b 692 161 693 132 692 146 l 692 507 b 696 549 692 521 693 535 b 758 644 707 624 758 608 b 708 667 758 663 736 667 l 592 667 b 542 644 560 667 542 661 b 600 550 542 610 588 617 b 588 510 603 532 606 525 l 224 194 l 224 507 b 228 549 224 521 225 535 b 290 644 239 624 290 608 b 240 667 290 663 268 667 l 124 667 b 74 644 92 667 74 661 b 132 549 74 608 118 624 b 136 507 135 535 136 521 l 139 161 b 135 118 139 146 138 132 b 74 22 124 44 74 58 b 122 0 74 4 94 0 z "},"к":{"ha":778,"x_min":0,"x_max":0,"o":"m 603 560 b 707 647 681 643 707 619 b 667 667 707 658 697 667 l 551 667 b 521 646 522 667 521 654 b 550 575 521 625 582 611 l 228 232 l 228 490 b 293 644 228 625 293 606 b 244 667 293 663 272 667 l 126 667 b 76 644 94 667 76 661 b 139 490 76 606 139 625 l 139 176 b 74 22 139 42 74 61 b 122 0 74 4 94 0 l 240 0 b 290 22 272 0 290 6 b 228 160 290 60 233 43 l 440 386 l 560 113 b 518 21 582 63 518 57 b 567 0 518 4 528 0 l 679 0 b 738 22 726 0 738 6 b 644 138 738 53 682 53 l 506 456 z "},"л":{"ha":742,"x_min":0,"x_max":0,"o":"m 72 -14 b 169 31 114 -14 142 7 b 281 574 265 147 271 413 b 400 621 283 617 296 621 b 506 569 494 621 506 615 l 506 176 b 439 22 506 42 439 61 b 489 0 439 4 461 0 l 606 0 b 656 22 638 0 656 6 b 593 176 656 61 593 42 l 593 544 b 672 646 593 611 672 610 b 593 667 672 658 664 667 l 211 667 b 150 646 158 667 150 658 b 231 543 150 610 231 619 b 106 63 231 375 194 63 b 42 108 75 63 85 108 b -4 51 18 108 -4 85 b 72 -14 -4 0 46 -14 z "},"м":{"ha":906,"x_min":0,"x_max":0,"o":"m 793 571 b 836 656 792 636 836 632 b 806 669 836 665 832 669 l 746 669 b 725 654 738 669 731 665 l 454 125 l 188 654 b 167 669 181 665 175 669 l 114 669 b 83 656 90 669 83 665 b 126 571 83 632 129 636 l 110 150 b 40 21 104 39 40 57 b 88 0 40 6 50 0 l 174 0 b 215 21 204 0 215 7 b 158 150 215 53 154 36 l 171 501 l 393 68 b 444 46 408 38 425 42 b 482 81 465 51 471 58 l 711 517 l 714 176 b 647 22 715 42 647 61 b 697 0 647 4 669 0 l 814 0 b 865 22 846 0 865 6 b 801 176 865 61 804 42 z "},"н":{"ha":821,"x_min":0,"x_max":0,"o":"m 686 490 b 751 644 686 625 751 606 b 703 667 751 663 731 667 l 585 667 b 535 644 553 667 535 661 b 597 490 535 606 597 625 l 597 417 b 415 360 597 360 597 360 b 228 417 228 360 228 360 l 228 490 b 293 644 228 625 293 606 b 244 667 293 663 272 667 l 126 667 b 76 644 94 667 76 661 b 139 490 76 606 139 625 l 139 176 b 74 22 139 42 74 61 b 122 0 74 4 94 0 l 240 0 b 290 22 272 0 290 6 b 228 176 290 61 228 42 l 228 258 b 414 315 228 315 228 315 b 597 258 597 315 597 315 l 597 176 b 532 22 597 42 532 61 b 581 0 532 4 553 0 l 699 0 b 749 22 731 0 749 6 b 686 176 749 61 686 42 z "},"о":{"ha":776,"x_min":0,"x_max":0,"o":"m 376 -14 b 724 347 585 -14 724 144 b 407 681 724 538 586 681 b 50 308 196 681 50 519 b 376 -14 50 111 188 -14 z m 408 38 b 140 361 253 38 140 168 b 367 624 140 514 229 624 b 635 294 517 624 635 476 b 408 38 635 138 543 38 z "},"п":{"ha":818,"x_min":0,"x_max":0,"o":"m 683 507 b 688 549 683 521 685 535 b 749 640 697 624 749 608 b 683 667 749 663 725 667 l 139 667 b 74 640 96 667 74 663 b 135 549 74 608 124 624 b 139 507 138 535 139 521 l 139 176 b 74 22 139 42 74 61 b 122 0 74 4 94 0 l 240 0 b 290 22 272 0 290 6 b 228 176 290 61 228 42 l 228 568 b 421 615 228 610 246 615 b 594 568 576 615 594 610 l 594 176 b 529 22 594 42 529 61 b 578 0 529 4 550 0 l 696 0 b 746 22 728 0 746 6 b 683 176 746 61 683 42 z "},"р":{"ha":814,"x_min":0,"x_max":0,"o":"m 479 681 b 215 528 350 681 257 607 l 217 657 b 192 681 217 679 207 682 b 107 650 174 679 150 671 b 69 615 74 635 69 628 b 94 589 69 606 76 597 b 135 472 136 565 135 524 l 139 -101 b 72 -256 139 -236 72 -217 b 122 -278 72 -274 94 -278 l 239 -278 b 289 -256 271 -278 289 -272 b 226 -101 289 -217 226 -236 l 225 75 b 463 -14 278 17 376 -15 b 761 346 651 -12 761 158 b 479 681 761 529 663 681 z m 472 35 b 225 264 365 32 224 115 l 225 367 b 449 610 225 468 297 610 b 672 304 556 610 672 526 b 472 35 672 150 607 36 z "},"с":{"ha":703,"x_min":0,"x_max":0,"o":"m 367 -14 b 657 143 540 -14 628 79 b 619 161 671 174 640 183 b 403 54 569 104 500 54 b 136 365 246 54 136 175 b 361 629 136 515 219 629 b 550 454 475 626 524 551 b 607 396 560 424 572 396 b 657 457 639 396 657 421 b 394 679 657 561 567 679 b 50 310 197 679 50 517 b 367 -14 50 125 182 -14 z "},"т":{"ha":633,"x_min":0,"x_max":0,"o":"m 375 0 b 425 22 407 0 425 6 b 367 118 425 58 381 44 b 363 161 364 132 363 146 l 363 592 b 422 618 363 610 372 619 b 546 546 490 615 517 601 b 594 483 571 496 576 483 b 617 525 614 483 617 501 b 603 626 615 563 613 588 b 503 667 596 660 588 667 l 135 667 b 33 625 50 667 42 657 b 21 522 24 586 22 561 b 43 481 21 500 24 481 b 92 544 61 481 67 493 b 215 615 119 597 144 614 b 275 589 265 618 275 607 l 275 161 b 271 118 275 146 274 132 b 208 22 260 44 208 58 b 258 0 208 4 231 0 z "},"у":{"ha":706,"x_min":0,"x_max":0,"o":"m 576 667 b 526 644 544 667 526 661 b 554 511 526 619 596 618 l 376 65 l 203 511 b 246 644 161 618 246 619 b 196 667 246 663 224 667 l 75 667 b 25 644 43 667 25 661 b 111 511 25 619 68 618 l 283 76 b 313 -43 299 40 313 6 b 225 -211 313 -118 276 -211 b 103 -156 172 -211 144 -153 b 54 -212 74 -157 54 -183 b 161 -292 54 -243 81 -292 b 414 26 307 -292 340 -160 l 600 511 b 689 644 642 618 689 619 b 640 667 689 663 668 667 z "},"ф":{"ha":1024,"x_min":0,"x_max":0,"o":"m 721 681 b 557 603 651 681 592 654 l 557 767 l 558 958 b 535 982 558 981 549 983 b 436 946 515 981 500 976 b 399 914 403 931 399 925 b 469 767 399 871 469 904 l 469 604 b 319 681 435 654 376 681 b 50 326 140 681 50 497 b 324 -14 50 126 161 -14 b 469 14 368 -14 417 -10 l 469 -101 b 403 -256 469 -236 403 -217 b 453 -278 403 -274 425 -278 l 569 -278 b 621 -256 601 -278 621 -272 b 557 -101 621 -217 557 -236 l 557 14 b 706 -14 610 -8 661 -14 b 971 317 868 -14 963 135 b 721 681 979 538 889 681 z m 883 293 b 711 29 875 113 818 29 b 560 104 619 29 560 72 l 560 458 b 697 622 560 546 604 622 b 883 293 831 622 892 482 z m 340 28 b 136 356 250 28 136 111 b 324 618 136 481 201 618 b 469 458 426 618 469 546 l 469 104 b 340 28 469 71 424 28 z "},"х":{"ha":686,"x_min":0,"x_max":0,"o":"m 501 518 b 625 644 568 611 625 619 b 575 667 625 663 603 667 l 490 667 b 439 644 457 667 439 661 b 450 518 439 619 517 613 l 358 392 l 272 518 b 288 644 207 613 288 619 b 238 667 288 663 265 667 l 94 667 b 43 644 63 667 43 661 b 168 518 43 619 103 613 l 297 328 l 158 147 b 33 22 88 56 33 47 b 82 0 33 4 54 0 l 168 0 b 218 22 200 0 218 6 b 210 147 218 47 139 56 l 322 292 l 421 149 b 406 22 486 54 406 47 b 456 0 406 4 428 0 l 599 0 b 650 22 631 0 650 6 b 525 149 650 47 590 54 l 383 356 z "},"ч":{"ha":726,"x_min":0,"x_max":0,"o":"m 592 490 b 657 644 592 625 657 606 b 608 667 657 663 636 667 l 490 667 b 440 644 458 667 440 661 b 503 490 440 606 503 625 l 503 301 b 313 271 442 282 382 271 b 178 447 194 271 175 354 l 179 489 b 244 643 182 624 244 604 b 196 665 244 661 224 665 l 78 665 b 28 643 46 665 28 660 b 90 489 28 604 90 624 l 94 421 b 297 222 94 326 126 222 b 503 249 372 222 433 231 l 503 176 b 438 22 503 42 438 61 b 486 0 438 4 458 0 l 604 0 b 654 22 636 0 654 6 b 592 176 654 61 592 42 z "},"ц":{"ha":799,"x_min":0,"x_max":0,"o":"m 765 -150 b 789 -100 785 -150 790 -132 b 776 7 786 -57 785 -31 b 710 47 769 36 763 44 b 683 72 685 49 683 51 l 683 490 b 749 644 683 625 749 606 b 700 667 749 663 728 667 l 582 667 b 532 644 550 667 532 661 b 594 490 532 606 594 625 l 594 88 b 401 51 594 57 575 51 b 228 88 246 51 228 57 l 228 490 b 293 644 228 625 293 606 b 244 667 293 663 272 667 l 126 667 b 76 644 94 667 76 661 b 139 490 76 606 139 625 l 139 161 b 74 26 139 64 74 61 b 139 0 74 4 96 0 l 544 0 b 714 -94 661 0 688 -28 b 765 -150 733 -137 747 -150 z "},"ш":{"ha":1168,"x_min":0,"x_max":0,"o":"m 1036 118 b 1032 161 1033 132 1032 146 l 1032 490 b 1099 644 1032 625 1099 606 b 1049 667 1099 663 1076 667 l 932 667 b 882 644 900 667 882 661 b 944 490 882 606 944 625 l 944 115 b 779 51 944 71 925 51 b 631 115 649 51 631 71 l 631 490 b 699 644 631 625 699 606 b 649 667 699 663 676 667 l 526 667 b 476 644 494 667 476 661 b 542 490 476 606 542 625 l 542 115 b 375 51 542 71 522 51 b 228 115 246 51 228 71 l 228 490 b 293 644 228 625 293 606 b 244 667 293 663 272 667 l 126 667 b 76 644 94 667 76 661 b 139 490 76 606 139 625 l 139 161 b 135 118 139 146 138 132 b 74 26 124 44 74 58 b 139 0 74 4 96 0 l 1032 0 b 1099 26 1075 0 1099 4 b 1036 118 1099 58 1047 44 z "},"щ":{"ha":1165,"x_min":0,"x_max":0,"o":"m 1132 -150 b 1156 -100 1151 -150 1157 -132 b 1142 7 1153 -57 1151 -31 b 1061 47 1135 40 1125 47 b 1032 74 1035 47 1032 50 l 1032 490 b 1099 644 1032 625 1099 606 b 1049 667 1099 663 1076 667 l 932 667 b 882 644 900 667 882 661 b 944 490 882 606 944 625 l 944 85 b 779 51 944 54 925 51 b 631 85 649 51 631 54 l 631 490 b 699 644 631 625 699 606 b 649 667 699 663 676 667 l 526 667 b 476 644 494 667 476 661 b 542 490 476 606 542 625 l 542 85 b 372 51 542 54 522 51 b 228 85 244 51 228 54 l 228 490 b 293 644 228 625 293 606 b 244 667 293 663 272 667 l 126 667 b 76 644 94 667 76 661 b 139 490 76 606 139 625 l 139 161 b 74 26 139 35 74 61 b 139 0 74 4 96 0 l 910 0 b 1081 -94 1028 0 1054 -28 b 1132 -150 1099 -137 1114 -150 z "},"ь":{"ha":667,"x_min":0,"x_max":0,"o":"m 297 429 b 249 428 285 429 267 428 b 228 454 233 426 228 436 l 228 490 b 293 644 228 625 293 606 b 244 667 293 663 272 667 l 126 667 b 76 644 94 667 76 661 b 139 490 76 606 139 625 l 139 161 b 135 118 139 146 138 132 b 74 26 124 44 74 58 b 139 0 74 4 96 0 l 307 0 b 629 204 506 0 629 58 b 297 429 629 333 550 428 z m 311 49 b 226 115 239 49 226 69 l 226 356 b 272 385 226 379 247 385 l 294 385 b 544 203 440 385 544 324 b 311 49 544 83 476 49 z "},"ы":{"ha":925,"x_min":0,"x_max":0,"o":"m 297 429 b 249 428 285 429 267 428 b 228 454 233 426 228 436 l 228 490 b 293 644 228 625 293 606 b 244 667 293 663 272 667 l 126 667 b 76 644 94 667 76 661 b 139 490 76 606 139 625 l 139 161 b 135 118 139 146 138 132 b 74 26 124 44 74 58 b 139 0 74 4 96 0 l 307 0 b 629 204 506 0 629 58 b 297 429 629 333 550 428 z m 789 490 b 854 644 789 625 854 606 b 806 667 854 663 833 667 l 688 667 b 638 644 656 667 638 661 b 700 490 638 606 700 625 l 700 176 b 635 22 700 42 635 61 b 683 0 635 4 656 0 l 801 0 b 851 22 833 0 851 6 b 789 176 851 61 789 42 z m 311 49 b 226 115 239 49 226 69 l 226 356 b 272 385 226 379 247 385 l 294 385 b 544 203 440 385 544 324 b 311 49 544 83 476 49 z "},"ъ":{"ha":792,"x_min":0,"x_max":0,"o":"m 404 429 b 356 428 392 429 375 428 b 335 454 342 426 335 436 l 335 507 b 339 549 335 521 336 535 b 401 640 350 624 401 608 b 335 667 401 663 378 667 l 157 667 b 57 625 74 667 64 657 b 40 539 47 586 43 561 b 61 497 39 515 42 497 b 110 549 78 497 85 510 b 210 619 142 596 172 619 b 250 547 240 619 250 594 l 250 161 b 246 118 250 146 249 132 b 185 26 235 44 185 58 b 250 0 185 4 207 0 l 418 0 b 740 204 617 0 740 58 b 404 429 740 335 661 428 z m 419 49 b 333 115 346 49 333 69 l 333 356 b 381 385 333 379 356 385 l 403 385 b 657 203 551 385 657 324 b 419 49 657 83 588 49 z "},"є":{"ha":700,"x_min":0,"x_max":0,"o":"m 615 164 b 404 63 565 107 492 63 b 138 306 243 63 156 164 b 208 329 164 324 183 329 b 375 282 264 329 314 282 b 511 374 435 282 511 339 b 496 390 511 383 507 390 b 388 349 475 390 442 349 b 228 392 332 349 279 392 b 133 351 200 392 161 376 l 133 358 b 350 624 132 524 232 624 b 583 521 474 624 522 521 b 631 567 611 521 631 540 b 410 681 631 631 511 681 b 50 307 172 681 50 497 b 376 -14 50 139 164 -14 b 653 146 521 -14 624 82 b 615 164 667 176 636 186 z "},"э":{"ha":661,"x_min":0,"x_max":0,"o":"m 299 681 b 144 663 200 681 186 663 b 96 681 122 663 108 681 b 64 632 78 681 72 669 b 47 529 57 610 49 568 b 61 504 46 515 47 504 b 88 529 71 504 79 513 b 275 635 118 581 175 635 b 515 378 411 635 497 513 b 442 354 488 360 468 354 b 276 401 386 354 338 401 b 139 310 217 401 139 343 b 156 292 139 299 143 292 b 263 335 176 292 210 335 b 422 292 319 335 372 292 b 518 332 451 292 490 307 b 272 36 519 150 433 36 b 78 108 194 36 114 74 b 43 88 56 131 24 117 b 271 -14 83 25 194 -14 b 608 342 515 -14 608 168 b 299 681 608 526 493 681 z "},"і":{"ha":383,"x_min":0,"x_max":0,"o":"m 143 803 b 244 882 185 797 240 846 b 199 944 249 908 229 940 b 93 861 153 953 97 904 b 143 803 89 826 114 806 z m 153 176 b 86 22 153 42 86 61 b 136 0 86 4 108 0 l 253 0 b 303 22 285 0 303 6 b 240 176 303 61 240 42 l 240 465 l 242 657 b 217 681 242 679 232 682 b 119 644 199 679 183 675 b 82 613 86 629 82 624 b 153 465 82 569 153 603 z "},"ї":{"ha":383,"x_min":0,"x_max":0,"o":"m 67 801 b 143 871 104 801 143 832 b 86 926 143 903 119 926 b 14 850 47 926 14 888 b 67 801 14 821 38 801 z m 251 801 b 328 871 289 801 328 832 b 271 926 328 903 303 926 b 199 850 231 926 199 888 b 251 801 199 821 222 801 z m 153 176 b 86 22 153 42 86 61 b 136 0 86 4 108 0 l 253 0 b 303 22 285 0 303 6 b 240 176 303 61 240 42 l 240 465 l 242 657 b 217 681 242 679 232 682 b 119 644 199 679 183 675 b 82 613 86 629 82 624 b 153 465 82 569 153 603 z "},"ю":{"ha":1104,"x_min":0,"x_max":0,"o":"m 735 681 b 379 361 542 681 401 546 l 228 361 l 228 490 b 293 644 228 625 293 606 b 244 667 293 663 272 667 l 126 667 b 76 644 94 667 76 661 b 139 490 76 606 139 625 l 139 176 b 74 22 139 42 74 61 b 122 0 74 4 94 0 l 240 0 b 290 22 272 0 290 6 b 228 176 290 61 228 42 l 228 314 l 376 314 l 376 308 b 703 -14 376 111 515 -14 b 1051 347 911 -14 1051 144 b 735 681 1051 538 914 681 z m 736 38 b 468 361 581 38 468 168 b 694 624 468 514 556 624 b 963 294 844 624 963 476 b 736 38 963 138 869 38 z "},"я":{"ha":735,"x_min":0,"x_max":0,"o":"m 599 507 b 603 549 599 521 600 535 b 665 640 614 624 665 608 b 599 667 665 663 642 667 l 481 667 b 106 433 214 667 106 561 b 250 263 106 357 158 293 b 161 142 190 233 179 185 b 67 49 129 65 104 53 b 47 33 56 47 49 43 b 124 -10 43 1 103 -10 b 254 133 207 -10 242 83 b 364 240 283 249 322 242 l 364 242 b 392 240 374 240 382 240 b 497 246 424 240 464 242 b 514 229 517 247 514 249 l 514 167 b 451 21 514 53 451 57 b 510 0 451 7 461 0 l 603 0 b 663 22 650 0 663 7 b 599 167 663 53 599 51 z m 515 311 b 401 288 515 297 507 288 b 193 444 233 288 193 374 b 436 618 193 560 281 618 b 515 597 499 618 515 614 z "},"⁄":{"ha":513,"x_min":0,"x_max":0,"o":"m 83 -139 b 108 -119 94 -139 106 -131 l 458 1001 b 438 1028 463 1015 451 1028 l 419 1028 b 394 1008 408 1028 397 1019 l 44 -112 b 64 -139 42 -126 51 -139 z "},"¹":{"ha":332,"x_min":0,"x_max":0,"o":"m 201 968 b 186 983 201 982 194 983 b 138 971 174 982 156 976 b 78 939 81 950 78 946 b 108 921 78 931 83 926 b 147 865 144 914 147 893 l 147 471 b 90 379 147 400 90 400 b 126 367 90 371 97 367 l 204 367 b 240 381 233 367 240 371 b 201 471 240 400 201 399 z "},"²":{"ha":585,"x_min":0,"x_max":0,"o":"m 442 369 b 482 408 463 369 474 383 b 493 460 488 432 490 439 b 483 485 496 475 492 485 b 358 428 463 485 447 433 b 149 428 290 424 219 424 b 450 814 349 597 449 694 b 285 986 453 913 386 986 b 97 860 193 986 125 926 b 119 849 88 840 110 833 b 261 933 164 913 214 933 b 386 806 338 933 386 885 b 79 411 386 679 203 517 b 97 369 56 392 65 369 z "},"³":{"ha":550,"x_min":0,"x_max":0,"o":"m 264 711 b 410 863 351 743 410 788 b 272 986 410 963 319 986 b 108 926 208 986 140 958 b 133 904 85 903 99 882 b 256 940 167 925 201 940 b 347 860 292 940 349 921 b 188 713 347 796 281 732 b 193 679 168 707 167 679 b 407 539 329 681 407 633 b 253 404 407 453 339 404 b 108 446 182 404 140 424 b 83 422 76 467 61 446 b 253 361 113 392 178 361 b 469 549 403 361 469 454 b 264 711 469 647 375 707 z "}," ":{"ha":278,"x_min":0,"x_max":0,"o":""}," ":{"ha":278,"x_min":0,"x_max":0,"o":""},".":{"ha":340,"x_min":0,"x_max":0,"o":"m 171 -14 b 239 54 206 -14 239 11 b 176 118 239 96 210 118 b 107 47 143 118 107 90 b 171 -14 107 6 136 -14 z "},",":{"ha":354,"x_min":0,"x_max":0,"o":"m 132 -182 b 247 29 164 -182 247 -101 b 176 118 247 90 218 118 b 110 50 144 118 110 93 b 169 -58 110 -10 169 -18 b 115 -167 169 -104 115 -151 b 132 -182 115 -175 121 -182 z "},":":{"ha":340,"x_min":0,"x_max":0,"o":"m 171 419 b 239 488 206 419 239 444 b 176 551 239 529 210 551 b 107 481 143 551 107 524 b 171 419 107 439 136 419 z m 171 -14 b 239 54 206 -14 239 11 b 176 118 239 96 210 118 b 107 47 143 118 107 90 b 171 -14 107 6 136 -14 z "},";":{"ha":354,"x_min":0,"x_max":0,"o":"m 171 419 b 239 488 206 419 239 444 b 176 551 239 529 210 551 b 107 481 143 551 107 524 b 171 419 107 439 136 419 z m 132 -182 b 247 29 164 -182 247 -101 b 176 118 247 90 218 118 b 110 50 144 118 110 93 b 169 -58 110 -10 169 -18 b 115 -167 169 -104 115 -151 b 132 -182 115 -175 121 -182 z "},"…":{"ha":951,"x_min":0,"x_max":0,"o":"m 171 -14 b 239 54 206 -14 239 11 b 176 118 239 96 210 118 b 107 47 143 118 107 90 b 171 -14 107 6 136 -14 z m 476 -14 b 544 54 511 -14 544 11 b 482 118 544 96 515 118 b 413 47 449 118 413 90 b 476 -14 413 6 442 -14 z m 782 -14 b 850 54 817 -14 850 11 b 788 118 850 96 821 118 b 718 47 754 118 718 90 b 782 -14 718 6 747 -14 z "},"!":{"ha":340,"x_min":0,"x_max":0,"o":"m 169 342 b 181 357 178 342 179 349 b 239 911 194 653 239 840 b 169 986 239 957 208 986 b 101 911 131 986 101 957 b 158 357 101 840 144 653 b 169 342 160 349 163 342 z m 171 -14 b 239 54 206 -14 239 11 b 176 118 239 96 210 118 b 107 47 143 118 107 90 b 171 -14 107 6 136 -14 z "},"¡":{"ha":340,"x_min":0,"x_max":0,"o":"m 169 681 b 101 613 135 681 101 656 b 164 549 101 571 131 549 b 233 619 197 549 233 576 b 169 681 233 661 204 681 z m 171 325 b 160 310 163 325 161 318 b 101 -244 146 15 101 -174 b 171 -319 101 -290 132 -319 b 239 -244 210 -319 239 -290 b 182 310 239 -174 196 15 b 171 325 181 318 178 325 z "},"?":{"ha":679,"x_min":0,"x_max":0,"o":"m 357 374 b 379 482 358 417 360 446 b 593 797 446 606 590 675 b 346 986 596 904 497 986 b 93 801 199 986 93 888 b 144 739 93 756 122 739 b 194 799 179 739 186 761 b 346 940 224 914 285 940 b 476 794 419 940 478 889 b 315 372 472 643 315 557 b 357 374 315 342 354 347 z m 333 -14 b 401 54 368 -14 401 11 b 339 118 401 96 372 118 b 269 47 306 118 269 90 b 333 -14 269 6 299 -14 z "},"¿":{"ha":833,"x_min":0,"x_max":0,"o":"m 463 681 b 394 613 428 681 394 656 b 457 549 394 571 424 549 b 526 619 490 549 526 576 b 463 681 526 661 497 681 z m 439 293 b 417 185 438 250 436 221 b 203 -131 350 61 206 -8 b 450 -319 200 -237 299 -319 b 703 -135 597 -319 703 -221 b 651 -72 703 -89 675 -72 b 601 -132 617 -72 610 -94 b 450 -274 572 -247 511 -274 b 319 -128 376 -274 318 -222 b 481 294 324 24 481 110 b 439 293 481 325 442 319 z "},"·":{"ha":340,"x_min":0,"x_max":0,"o":"m 171 250 b 239 318 206 250 239 275 b 176 382 239 360 210 382 b 107 311 143 382 107 354 b 171 250 107 269 136 250 z "},"•":{"ha":446,"x_min":0,"x_max":0,"o":"m 224 197 b 321 293 272 197 321 233 b 232 382 321 351 278 382 b 135 283 185 382 135 344 b 224 197 135 224 175 197 z "},"*":{"ha":692,"x_min":0,"x_max":0,"o":"m 160 442 b 244 454 183 421 221 425 b 303 601 272 486 278 550 b 386 603 322 640 365 642 b 446 454 408 558 418 486 b 531 442 469 425 507 421 b 536 529 557 464 558 500 b 411 606 510 563 451 579 b 433 690 369 633 383 688 b 582 692 478 693 544 678 b 621 768 617 704 633 738 b 542 801 610 799 576 814 b 428 710 504 789 465 739 b 356 760 386 679 343 711 b 404 899 368 800 404 861 b 346 961 404 935 378 961 b 288 899 314 961 288 935 b 335 760 288 860 321 807 b 263 710 347 711 304 679 b 149 801 231 733 185 790 b 69 768 114 814 81 799 b 108 692 57 738 74 704 b 257 690 146 678 208 693 b 282 606 307 688 321 633 b 154 529 249 583 178 560 b 160 442 132 500 133 464 z "},"#":{"ha":990,"x_min":0,"x_max":0,"o":"m 739 942 b 714 972 743 960 733 972 b 683 949 697 972 688 964 l 606 631 l 371 631 l 447 942 b 422 972 451 960 442 972 b 392 949 406 972 396 964 l 314 631 l 96 631 b 68 603 78 631 68 621 l 68 601 b 96 574 68 583 78 574 l 299 574 l 244 353 l 68 353 b 40 325 50 353 40 343 l 40 324 b 68 296 40 306 50 296 l 231 296 l 165 31 b 190 0 161 13 171 0 b 221 24 207 0 217 8 l 288 296 l 522 296 l 457 31 b 482 0 453 13 463 0 b 513 24 499 0 508 8 l 579 296 l 844 296 b 872 324 863 296 872 306 l 872 325 b 844 353 872 343 863 353 l 593 353 l 649 574 l 872 574 b 900 601 890 574 900 583 l 900 603 b 872 631 900 621 890 631 l 663 631 z m 357 574 l 590 574 l 536 353 l 301 353 z "},"/":{"ha":513,"x_min":0,"x_max":0,"o":"m 83 -139 b 108 -119 94 -139 106 -131 l 458 1001 b 438 1028 463 1015 451 1028 l 419 1028 b 394 1008 408 1028 397 1019 l 44 -112 b 64 -139 42 -126 51 -139 z "},"\\":{"ha":514,"x_min":0,"x_max":0,"o":"m 438 -139 b 458 -112 451 -139 461 -126 l 108 1008 b 83 1028 104 1019 94 1028 l 65 1028 b 44 1001 50 1028 40 1015 l 394 -119 b 419 -139 397 -131 408 -139 z "},"-":{"ha":472,"x_min":0,"x_max":0,"o":"m 385 382 b 403 396 393 382 401 389 l 404 407 b 390 426 406 418 401 426 l 81 426 b 63 413 72 426 64 419 l 61 403 b 75 382 60 390 64 382 z "},"­":{"ha":472,"x_min":0,"x_max":0,"o":"m 385 382 b 403 396 393 382 401 389 l 404 407 b 390 426 406 418 401 426 l 81 426 b 63 413 72 426 64 419 l 61 403 b 75 382 60 390 64 382 z "},"–":{"ha":682,"x_min":0,"x_max":0,"o":"m 593 382 b 611 396 601 382 610 389 l 613 407 b 599 426 614 418 610 426 l 81 426 b 63 413 72 426 64 419 l 61 403 b 75 382 60 390 64 382 z "},"—":{"ha":958,"x_min":0,"x_max":0,"o":"m 871 382 b 889 396 881 382 888 389 l 890 407 b 876 426 892 418 888 426 l 81 426 b 63 413 72 426 64 419 l 61 403 b 75 382 60 390 64 382 z "},"_":{"ha":551,"x_min":0,"x_max":0,"o":"m 525 -92 b 550 -67 540 -92 550 -82 b 525 -42 550 -51 540 -42 l 25 -42 b 0 -67 10 -42 0 -51 b 25 -92 0 -82 10 -92 z "},"(":{"ha":519,"x_min":0,"x_max":0,"o":"m 469 -167 b 513 -162 482 -174 506 -174 b 500 -125 522 -150 513 -133 b 206 460 307 26 206 215 b 493 1036 206 692 297 893 b 503 1074 506 1044 511 1063 b 467 1072 494 1082 478 1079 b 90 464 264 956 90 754 b 469 -167 90 146 274 -62 z "},")":{"ha":519,"x_min":0,"x_max":0,"o":"m 54 -167 b 433 464 250 -62 433 146 b 57 1072 433 754 260 956 b 21 1074 46 1079 29 1082 b 31 1036 13 1063 18 1044 b 318 460 226 893 318 692 b 24 -125 318 215 217 26 b 11 -162 11 -133 1 -150 b 54 -167 18 -174 42 -174 z "},"{":{"ha":453,"x_min":0,"x_max":0,"o":"m 315 -119 b 243 42 250 -103 243 -21 l 243 285 b 114 465 243 381 193 436 b 243 647 192 494 243 550 l 243 863 b 317 1028 243 924 263 1010 b 350 1058 333 1033 350 1042 b 313 1081 350 1074 332 1082 b 142 838 201 1074 142 974 l 142 592 b 65 493 142 557 118 507 b 43 469 53 490 43 482 b 64 439 43 451 47 446 b 142 340 110 424 142 374 l 142 67 b 313 -176 142 -69 201 -169 b 346 -146 333 -178 346 -167 b 315 -119 346 -131 328 -122 z "},"}":{"ha":453,"x_min":0,"x_max":0,"o":"m 388 493 b 311 592 335 507 311 557 l 311 838 b 140 1081 311 974 251 1074 b 103 1058 121 1082 103 1074 b 136 1028 103 1042 119 1033 b 210 863 190 1010 210 924 l 210 647 b 339 465 210 550 261 494 b 210 285 260 436 210 381 l 210 42 b 138 -119 210 -21 203 -103 b 107 -146 125 -122 107 -131 b 140 -176 107 -167 119 -178 b 311 67 251 -169 311 -69 l 311 340 b 389 439 311 374 343 424 b 410 469 406 446 410 451 b 388 493 410 482 400 490 z "},"[":{"ha":482,"x_min":0,"x_max":0,"o":"m 363 -178 b 386 -153 376 -178 386 -168 b 363 -128 386 -137 376 -128 l 261 -128 b 244 -111 251 -128 244 -121 l 244 1015 b 261 1032 244 1025 251 1032 l 363 1032 b 386 1057 376 1032 386 1042 b 363 1082 386 1072 376 1082 l 164 1082 b 142 1060 149 1082 142 1074 l 142 -156 b 164 -178 142 -169 149 -178 z "},"]":{"ha":482,"x_min":0,"x_max":0,"o":"m 318 -178 b 340 -156 333 -178 340 -169 l 340 1060 b 318 1082 340 1074 333 1082 l 119 1082 b 97 1057 106 1082 97 1072 b 119 1032 97 1042 106 1032 l 221 1032 b 238 1015 231 1032 238 1025 l 238 -111 b 221 -128 238 -121 231 -128 l 119 -128 b 97 -153 106 -128 97 -137 b 119 -178 97 -168 106 -178 z "},"‚":{"ha":354,"x_min":0,"x_max":0,"o":"m 132 -182 b 247 29 164 -182 247 -101 b 176 118 247 90 218 118 b 110 50 144 118 110 93 b 169 -58 110 -10 169 -18 b 115 -167 169 -104 115 -151 b 132 -182 115 -175 121 -182 z "},"„":{"ha":515,"x_min":0,"x_max":0,"o":"m 132 -182 b 247 29 164 -182 247 -101 b 176 118 247 90 218 118 b 110 50 144 118 110 93 b 169 -58 110 -10 169 -18 b 115 -167 169 -104 115 -151 b 132 -182 115 -175 121 -182 z m 363 -182 b 478 29 394 -182 478 -101 b 407 118 478 90 447 118 b 340 50 375 118 340 93 b 399 -58 340 -10 399 -18 b 344 -167 399 -104 344 -151 b 363 -182 344 -175 350 -182 z "},"“":{"ha":446,"x_min":0,"x_max":0,"o":"m 153 981 b 38 769 121 981 38 900 b 108 681 38 710 68 681 b 175 749 140 681 175 706 b 117 857 175 810 117 818 b 169 965 117 903 169 950 b 153 981 169 974 164 981 z m 383 981 b 267 769 351 981 267 900 b 339 681 267 710 297 681 b 406 749 369 681 406 706 b 346 857 406 810 346 818 b 400 965 346 903 400 950 b 383 981 400 974 394 981 z "},"”":{"ha":446,"x_min":0,"x_max":0,"o":"m 63 676 b 179 886 94 676 179 756 b 107 975 179 947 149 975 b 40 907 76 975 40 950 b 100 799 40 847 100 839 b 46 692 100 753 46 706 b 63 676 46 682 51 676 z m 293 676 b 408 886 325 676 408 756 b 338 975 408 947 378 975 b 271 907 306 975 271 950 b 329 799 271 847 329 839 b 276 692 329 753 276 706 b 293 676 276 682 282 676 z "},"‘":{"ha":354,"x_min":0,"x_max":0,"o":"m 222 982 b 107 771 190 982 107 901 b 178 682 107 711 136 682 b 244 751 210 682 244 708 b 185 858 244 811 185 819 b 239 967 185 904 239 953 b 222 982 239 976 233 982 z "},"’":{"ha":354,"x_min":0,"x_max":0,"o":"m 132 674 b 247 885 164 674 247 754 b 176 974 247 946 218 974 b 110 906 144 974 110 949 b 169 797 110 846 169 838 b 115 689 169 751 115 704 b 132 674 115 681 121 674 z "},"«":{"ha":554,"x_min":0,"x_max":0,"o":"m 229 133 b 246 149 236 133 244 133 b 124 351 250 181 175 290 b 246 554 175 413 250 522 b 229 569 244 569 236 569 b 121 464 214 569 183 538 b 39 351 68 403 39 374 b 121 239 39 329 68 300 b 229 133 183 165 214 133 z m 453 133 b 469 149 460 133 468 133 b 347 351 472 181 399 290 b 469 554 399 413 472 522 b 453 569 468 569 460 569 b 343 464 436 569 406 538 b 263 351 290 403 263 374 b 343 239 263 329 290 300 b 453 133 406 165 436 133 z "},"»":{"ha":557,"x_min":0,"x_max":0,"o":"m 104 133 b 214 239 119 133 150 165 b 294 351 267 300 294 329 b 214 464 294 374 267 403 b 104 569 150 538 119 569 b 88 554 97 569 89 569 b 210 351 83 522 158 413 b 88 149 158 290 83 181 b 104 133 89 133 97 133 z m 326 133 b 436 239 343 133 374 165 b 517 351 489 300 517 329 b 436 464 517 374 489 403 b 326 569 374 538 343 569 b 310 554 319 569 311 569 b 433 351 307 522 381 413 b 310 149 381 290 307 181 b 326 133 311 133 319 133 z "},"‹":{"ha":347,"x_min":0,"x_max":0,"o":"m 253 133 b 269 149 260 133 268 133 b 147 351 274 181 199 290 b 269 554 199 413 274 522 b 253 569 268 569 260 569 b 144 464 238 569 207 538 b 63 351 90 403 63 374 b 144 239 63 329 90 300 b 253 133 207 165 238 133 z "},"›":{"ha":346,"x_min":0,"x_max":0,"o":"m 92 133 b 201 239 108 133 139 165 b 282 351 254 300 282 329 b 201 464 282 374 254 403 b 92 569 139 538 108 569 b 75 554 85 569 76 569 b 199 351 72 522 146 413 b 75 149 146 290 72 181 b 92 133 76 133 85 133 z "},"\"":{"ha":517,"x_min":0,"x_max":0,"o":"m 165 643 b 188 671 179 643 185 656 b 215 926 194 729 215 907 b 165 986 215 963 197 986 b 114 925 132 986 114 961 b 142 671 114 907 135 729 b 165 643 144 656 146 643 z m 353 643 b 375 671 367 643 372 656 b 403 926 381 729 403 907 b 353 986 403 963 383 986 b 301 925 319 986 301 961 b 329 671 301 907 321 729 b 353 643 331 656 333 643 z "},"'":{"ha":331,"x_min":0,"x_max":0,"o":"m 165 643 b 188 671 179 643 185 656 b 215 926 194 729 215 907 b 165 986 215 963 197 986 b 114 925 132 986 114 961 b 142 671 114 907 135 729 b 165 643 144 656 146 643 z "}}}
